<svg xmlns="http://www.w3.org/2000/svg" xmlns:xlink="http://www.w3.org/1999/xlink" viewBox="0 0 58.74 22.17">
  <defs>
    <style>
      .cls-1 {
        fill: none;
      }

      .cls-2 {
        fill: #1d1d1b;
      }

      .cls-3 {
        clip-path: url(#clip-path);
      }

      .cls-4 {
        fill: #fff;
      }

      .cls-5 {
        fill: #a71b71;
      }

      .cls-6 {
        fill: #c22e0c;
      }

      .cls-7 {
        fill: #e30613;
      }

      .cls-8 {
        fill: #ffd500;
      }

      .cls-9 {
        fill: #006e89;
      }

      .cls-10 {
        fill: #aa1346;
      }

      .cls-11 {
        fill: #408927;
      }

      .cls-12 {
        fill: #0062a7;
      }

      .cls-13 {
        fill: #e6007e;
      }

      .cls-14 {
        fill: #ef7d00;
      }

      .cls-15 {
        fill: #00afcb;
      }

      .cls-16 {
        fill: #e50051;
      }

      .cls-17 {
        fill: #ae0f0a;
      }

      .cls-18 {
        fill: #f59c00;
      }

      .cls-19 {
        fill: #95c11f;
      }

      .cls-20 {
        fill: #00b1eb;
      }
    </style>
    <clipPath id="clip-path">
      <rect class="cls-1" width="58.74" height="22.17"/>
    </clipPath>
  </defs>
  <g id="Ebene_2" data-name="Ebene 2">
    <g id="Ebene_1-2" data-name="Ebene 1">
      <g>
        <rect class="cls-2" width="58.74" height="22.17"/>
        <g class="cls-3">
          <path class="cls-4" d="M28.13,17.06a.64.64,0,0,1-.25.52,1,1,0,0,1-.62.2,1.38,1.38,0,0,1-.76-.22l.15-.25a1,1,0,0,0,.6.19.7.7,0,0,0,.37-.09.37.37,0,0,0,.18-.32.58.58,0,0,0-.31-.48l-.58-.37a.75.75,0,0,1-.31-.61.66.66,0,0,1,.21-.5.85.85,0,0,1,.59-.19,1.41,1.41,0,0,1,.61.13v.33a1.08,1.08,0,0,0-.6-.17.7.7,0,0,0-.35.08.34.34,0,0,0-.15.29.57.57,0,0,0,.32.47l.58.38a.74.74,0,0,1,.32.61"/>
          <polygon class="cls-4" points="30.45 14.96 30.34 15.25 29.55 15.25 29.55 17.73 29.25 17.73 29.25 15.25 28.45 15.25 28.45 14.96 30.45 14.96"/>
          <path class="cls-4" d="M32.57,17.73h-.33L32,17H30.84l-.27.74h-.3L31.33,15h.17Zm-.72-1-.33-.94c-.05-.14-.09-.26-.11-.34h0c0,.08-.06.2-.11.34l-.35.94Z"/>
          <path class="cls-4" d="M35.13,16.32a1.37,1.37,0,0,1-.36,1,1.48,1.48,0,0,1-1.14.42H33V15h.6a1.57,1.57,0,0,1,1.15.39,1.31,1.31,0,0,1,.36,1m-.32,0a1.05,1.05,0,0,0-.27-.76,1.14,1.14,0,0,0-.87-.31h-.35v2.2h.34a1,1,0,0,0,1.15-1.13"/>
          <polygon class="cls-4" points="37.29 14.96 37.18 15.25 36.39 15.25 36.39 17.73 36.09 17.73 36.09 15.25 35.29 15.25 35.29 14.96 37.29 14.96"/>
          <path class="cls-4" d="M41.28,15l-1,2.79h-.22l-.51-1.43c-.06-.16-.1-.3-.14-.44h0c-.05.14-.09.29-.15.44l-.52,1.43h-.24l-1-2.79h.34l.61,1.85c.06.18.11.33.14.44h0l.15-.42.48-1.31L39.11,15h.33l.63,1.83c0,.1.09.25.15.43h0c0-.11.07-.25.12-.41L41,15Z"/>
          <polygon class="cls-4" points="43.1 17.73 41.73 17.73 41.73 14.96 43.09 14.96 42.96 15.25 42.04 15.25 42.04 16.17 42.96 16.17 42.96 16.46 42.04 16.46 42.04 17.45 43.1 17.45 43.1 17.73"/>
          <path class="cls-4" d="M45.45,17.73h-.36c-.33-.51-.5-.79-.54-.84-.14-.21-.24-.32-.29-.33H44v1.17h-.31V15h.57a1,1,0,0,1,.71.22.69.69,0,0,1,.21.53.73.73,0,0,1-.16.48.88.88,0,0,1-.38.27h0a1.59,1.59,0,0,1,.29.39s.22.34.56.88m-.64-2c0-.33-.2-.49-.59-.49H44v1h.28a.56.56,0,0,0,.41-.16.53.53,0,0,0,.16-.38"/>
          <polygon class="cls-4" points="47.73 17.73 47.32 17.73 46.21 16.48 46.21 17.73 45.9 17.73 45.9 14.96 46.21 14.96 46.21 16.23 47.24 14.96 47.62 14.96 46.48 16.33 47.73 17.73"/>
          <polygon class="cls-4" points="49.55 17.73 48.18 17.73 48.18 14.96 49.54 14.96 49.41 15.25 48.48 15.25 48.48 16.17 49.41 16.17 49.41 16.46 48.48 16.46 48.48 17.45 49.55 17.45 49.55 17.73"/>
          <polygon class="cls-4" points="30.06 13.3 30.06 10.4 28.82 12.3 28.79 12.3 27.56 10.42 27.56 13.3 26.6 13.3 26.6 8.87 27.65 8.87 28.82 10.74 29.98 8.87 31.03 8.87 31.03 13.3 30.06 13.3"/>
          <path class="cls-4" d="M35,13.3l-.41-1H32.68l-.41,1h-1l1.9-4.43h.9L36,13.3ZM33.62,10,33,11.44h1.18Z"/>
          <rect class="cls-4" x="36.26" y="8.86" width="0.98" height="4.43"/>
          <polygon class="cls-4" points="41.05 13.3 38.9 10.48 38.9 13.3 37.94 13.3 37.94 8.87 38.84 8.87 40.91 11.6 40.91 8.87 41.88 8.87 41.88 13.3 41.05 13.3"/>
          <polygon class="cls-4" points="42.43 13.3 42.43 12.56 44.87 9.72 42.5 9.72 42.5 8.87 46.12 8.87 46.12 9.61 43.68 12.44 46.12 12.44 46.12 13.3 42.43 13.3"/>
          <polygon class="cls-4" points="46.67 13.3 46.67 8.87 50.02 8.87 50.02 9.73 47.64 9.73 47.64 10.63 49.73 10.63 49.73 11.5 47.64 11.5 47.64 12.43 50.05 12.43 50.05 13.3 46.67 13.3"/>
          <path class="cls-4" d="M53.3,13.3l-.95-1.42h-.77V13.3h-1V8.87h2c1,0,1.67.55,1.67,1.46h0a1.37,1.37,0,0,1-.95,1.38l1.09,1.58Zm0-2.92c0-.42-.29-.63-.77-.63h-1V11h1c.47,0,.75-.25.75-.63Z"/>
          <polygon class="cls-5" points="8.87 4.43 4.43 8.87 8.87 8.87 8.87 4.43"/>
          <polygon class="cls-6" points="22.17 4.43 17.73 8.87 22.17 8.87 22.17 4.43"/>
          <polygon class="cls-7" points="8.87 4.43 8.87 8.87 13.3 8.87 8.87 4.43"/>
          <polygon class="cls-8" points="17.73 4.43 13.3 8.87 17.73 8.87 17.73 4.43"/>
          <polygon class="cls-9" points="4.43 13.3 8.87 13.3 4.43 8.87 4.43 13.3"/>
          <polygon class="cls-10" points="22.17 13.3 17.73 8.87 17.73 13.3 22.17 13.3"/>
          <polygon class="cls-11" points="4.43 17.73 8.87 17.73 8.87 13.3 4.43 17.73"/>
          <polygon class="cls-12" points="17.73 17.73 22.17 13.3 22.17 17.73 17.73 17.73"/>
          <polygon class="cls-13" points="4.43 4.43 4.43 8.87 8.87 4.43 4.43 4.43"/>
          <polygon class="cls-14" points="17.73 4.43 17.73 8.87 22.17 4.43 17.73 4.43"/>
          <polygon class="cls-15" points="4.43 8.87 8.87 13.3 8.87 8.87 4.43 8.87"/>
          <polygon class="cls-16" points="17.73 8.87 22.17 13.3 22.17 8.87 17.73 8.87"/>
          <polygon class="cls-17" points="8.87 8.87 13.3 13.3 13.3 8.87 8.87 8.87"/>
          <polygon class="cls-18" points="17.73 8.87 13.3 13.3 13.3 8.87 17.73 8.87"/>
          <polygon class="cls-19" points="4.43 13.3 4.43 17.73 8.87 13.3 4.43 13.3"/>
          <polygon class="cls-20" points="22.17 13.3 17.73 17.73 17.73 13.3 22.17 13.3"/>
        </g>
      </g>
    </g>
  </g>
</svg>
