<svg xmlns="http://www.w3.org/2000/svg" xmlns:xlink="http://www.w3.org/1999/xlink" viewBox="0 0 58.86 29.49">
  <defs>
    <style>
      .cls-1 {
        fill: none;
      }

      .cls-2 {
        fill: #e94f35;
      }

      .cls-3 {
        clip-path: url(#clip-path);
      }
    </style>
    <clipPath id="clip-path" transform="translate(-0.01 -14.8)">
      <rect class="cls-1" width="58.87" height="59.09"/>
    </clipPath>
  </defs>
  <g id="Ebene_2" data-name="Ebene 2">
    <g id="Ebene_1-2" data-name="Ebene 1">
      <g>
        <path class="cls-2" d="M9.51,27.66,12.34,26v3.26l-.32.19L9.51,30.93ZM16.07,31l-2.86-1.66V26l.12.07,11.34,6.54v3.27Zm-10.88,3V25.17l7.58-4.38,11.47,6.62-3.45,2-8-4.63L8.64,27.16v4.77l.43.25,7.15,4.13-3.45,2ZM.87,36.41V22.67l11.9-6.87,11.9,6.87v4l-11.9-6.87L4.32,24.66v9.76l8.45,4.89,5.19-3-8-4.63,1.89-1.09.94-.54,2.87,1.65,8.6,5L12.77,43.29ZM12.77,14.8,0,22.17V36.92l12.76,7.37,12.77-7.37V32.14L21.66,29.9l3.88-2.24V22.17Z" transform="translate(-0.01 -14.8)"/>
        <g class="cls-3">
          <path class="cls-2" d="M34.89,21.21a3.19,3.19,0,0,1-.68.23,3,3,0,0,1-.68.09,3.25,3.25,0,0,1-1.47-.32,2.35,2.35,0,0,1-1-.9A2.52,2.52,0,0,1,30.74,19a3,3,0,0,1,.37-1.56,2.32,2.32,0,0,1,1-1,2.89,2.89,0,0,1,1.35-.32,3.7,3.7,0,0,1,.9.11,3.36,3.36,0,0,1,.74.28l-.33,1a3.52,3.52,0,0,0-.57-.21,2.56,2.56,0,0,0-.6-.09,1.86,1.86,0,0,0-1.31.42,1.69,1.69,0,0,0-.46,1.27,1.56,1.56,0,0,0,.23.85,1.36,1.36,0,0,0,.61.55,2.06,2.06,0,0,0,.91.2,1.5,1.5,0,0,0,.72-.14v-.63h-.91v-1h2V21a1.63,1.63,0,0,1-.44.26" transform="translate(-0.01 -14.8)"/>
          <path class="cls-2" d="M37.58,20a1.1,1.1,0,0,0,.4.37,1,1,0,0,0,.53.14,1.13,1.13,0,0,0,1-.51.85.85,0,0,0,.15-.48V16.22h1v3.33a1.87,1.87,0,0,1-.29,1,2,2,0,0,1-.77.71,2.32,2.32,0,0,1-1.08.25,2.28,2.28,0,0,1-1.07-.25,1.93,1.93,0,0,1-.76-.71,1.87,1.87,0,0,1-.29-1V16.22h1v3.31a.85.85,0,0,0,.15.48" transform="translate(-0.01 -14.8)"/>
          <polygon class="cls-2" points="45.08 1.42 45.08 2.42 43.8 2.42 43.8 6.67 42.76 6.67 42.76 2.42 41.53 2.42 41.53 1.42 45.08 1.42"/>
          <polygon class="cls-2" points="49.66 1.42 49.66 2.42 47.11 2.42 47.11 3.54 49.36 3.54 49.36 4.54 47.11 4.54 47.11 5.67 49.76 5.67 49.76 6.67 46.07 6.67 46.07 1.42 49.66 1.42"/>
          <polygon class="cls-2" points="55.56 1.42 55.56 6.89 55.53 6.89 51.85 3.57 51.88 6.67 50.83 6.67 50.83 1.22 50.87 1.22 54.54 4.58 54.52 1.42 55.56 1.42"/>
          <path class="cls-2" d="M34.41,26.34a1.16,1.16,0,0,1,.24.72,1.36,1.36,0,0,1-.53,1.18,2.18,2.18,0,0,1-1.31.37H31.06V23.36h1.55a2.21,2.21,0,0,1,1.31.34,1.12,1.12,0,0,1,.48,1,1.41,1.41,0,0,1-.17.69,1.29,1.29,0,0,1-.46.47,1.72,1.72,0,0,1,.64.5m-2.31-.83h.63a.56.56,0,0,0,.44-.18.65.65,0,0,0,.16-.43.46.46,0,0,0-.18-.4.75.75,0,0,0-.49-.14H32.1Zm1.25,2a.49.49,0,0,0,.23-.44c0-.37-.3-.56-.89-.56H32.1v1.15h.66a1,1,0,0,0,.59-.15" transform="translate(-0.01 -14.8)"/>
          <polygon class="cls-2" points="39.12 8.56 39.12 9.56 36.57 9.56 36.57 10.68 38.82 10.68 38.82 11.68 36.57 11.68 36.57 12.81 39.22 12.81 39.22 13.81 35.53 13.81 35.53 8.56 39.12 8.56"/>
          <path class="cls-2" d="M43.12,28.61,42,26.94h-.69v1.67h-1V23.36h1.59a2.27,2.27,0,0,1,1.52.47,1.65,1.65,0,0,1,.54,1.3,2.19,2.19,0,0,1-.2.91,1.62,1.62,0,0,1-.63.67l1.22,1.9Zm-1.79-2.67h.73a.76.76,0,0,0,.62-.24.93.93,0,0,0,.19-.54,1,1,0,0,0-.17-.54.67.67,0,0,0-.63-.26h-.74Z" transform="translate(-0.01 -14.8)"/>
          <path class="cls-2" d="M48.84,28.35a4.29,4.29,0,0,1-.69.23,2.89,2.89,0,0,1-.68.09A3.15,3.15,0,0,1,46,28.34a2.28,2.28,0,0,1-1-.9,2.48,2.48,0,0,1-.34-1.31,3.16,3.16,0,0,1,.36-1.56,2.36,2.36,0,0,1,1-.95,2.93,2.93,0,0,1,1.36-.32,3.68,3.68,0,0,1,.89.11,3,3,0,0,1,.75.28l-.34,1a2.29,2.29,0,0,0-.57-.21,2.19,2.19,0,0,0-.6-.1,1.86,1.86,0,0,0-1.31.43A1.68,1.68,0,0,0,45.76,26a1.58,1.58,0,0,0,.22.85,1.44,1.44,0,0,0,.62.55,2,2,0,0,0,.9.19,1.52,1.52,0,0,0,.72-.13v-.64h-.91v-1h2v2.22a1.33,1.33,0,0,1-.43.27" transform="translate(-0.01 -14.8)"/>
          <path class="cls-2" d="M31.06,30.49h1.57a3.19,3.19,0,0,1,1.66.39,2.42,2.42,0,0,1,1,1,3.1,3.1,0,0,1,.29,1.32,2.49,2.49,0,0,1-.36,1.34,2.36,2.36,0,0,1-1,.89,2.92,2.92,0,0,1-1.32.31H31.06Zm1.65,4.26A1.85,1.85,0,0,0,34,34.33a1.5,1.5,0,0,0,.47-1.19,1.74,1.74,0,0,0-.26-1,1.4,1.4,0,0,0-.61-.51,1.59,1.59,0,0,0-.65-.14H32.1v3.26Z" transform="translate(-0.01 -14.8)"/>
          <rect class="cls-2" x="36.56" y="15.7" width="1.04" height="5.25"/>
          <path class="cls-2" d="M42.64,35.49a3.19,3.19,0,0,1-.68.22,3,3,0,0,1-.68.09,3.12,3.12,0,0,1-1.47-.32,2.35,2.35,0,0,1-1-.9,2.49,2.49,0,0,1-.35-1.31,3.05,3.05,0,0,1,.37-1.56,2.44,2.44,0,0,1,1-1,2.89,2.89,0,0,1,1.35-.31,3.71,3.71,0,0,1,.9.1,4,4,0,0,1,.74.28l-.33,1a2.29,2.29,0,0,0-.57-.21,2.19,2.19,0,0,0-.6-.1,1.82,1.82,0,0,0-1.31.43,1.67,1.67,0,0,0-.46,1.27,1.55,1.55,0,0,0,.23.84,1.44,1.44,0,0,0,.61.56,2.06,2.06,0,0,0,.91.19,1.5,1.5,0,0,0,.72-.14V34h-.91V33h2v2.22a1.9,1.9,0,0,1-.44.27" transform="translate(-0.01 -14.8)"/>
          <rect class="cls-2" x="44.25" y="15.7" width="1.04" height="5.25"/>
          <polygon class="cls-2" points="49.82 15.7 49.82 16.7 48.54 16.7 48.54 20.95 47.51 20.95 47.51 16.7 46.28 16.7 46.28 15.7 49.82 15.7"/>
          <path class="cls-2" d="M53,34.72H51.25l-.42,1h-1l2.37-5.46h.06l2.37,5.46H53.4Zm-.34-.87-.5-1.28-.53,1.28Z" transform="translate(-0.01 -14.8)"/>
          <polygon class="cls-2" points="56.39 15.7 56.39 19.95 58.86 19.95 58.86 20.95 55.36 20.95 55.36 15.7 56.39 15.7"/>
          <polygon class="cls-2" points="35.48 28.09 34.44 28.09 34.44 25.95 32.09 25.95 32.09 28.09 31.06 28.09 31.06 22.83 32.09 22.83 32.09 24.95 34.44 24.95 34.44 22.83 35.48 22.83 35.48 28.09"/>
          <path class="cls-2" d="M37.77,41.42a1.18,1.18,0,0,0,.4.37,1,1,0,0,0,.54.14,1.08,1.08,0,0,0,.56-.14,1,1,0,0,0,.4-.37.85.85,0,0,0,.15-.48V37.63h1V41a1.86,1.86,0,0,1-.28,1,2,2,0,0,1-.78.71,2.41,2.41,0,0,1-2.14,0,2,2,0,0,1-.77-.71,1.86,1.86,0,0,1-.28-1V37.63h1v3.31a.85.85,0,0,0,.15.48" transform="translate(-0.01 -14.8)"/>
          <path class="cls-2" d="M45.44,40.62a1.1,1.1,0,0,1,.23.71,1.34,1.34,0,0,1-.52,1.18,2.2,2.2,0,0,1-1.31.37H42.09V37.63h1.54a2.17,2.17,0,0,1,1.31.34,1.13,1.13,0,0,1,.48,1,1.41,1.41,0,0,1-.16.69,1.18,1.18,0,0,1-.47.47,1.61,1.61,0,0,1,.65.51m-2.32-.84h.63a.58.58,0,0,0,.45-.18.63.63,0,0,0,.15-.43.48.48,0,0,0-.18-.4.77.77,0,0,0-.49-.14h-.56Zm1.26,2a.47.47,0,0,0,.22-.44c0-.37-.29-.55-.88-.55h-.6v1.14h.67a1.05,1.05,0,0,0,.59-.15" transform="translate(-0.01 -14.8)"/>
        </g>
      </g>
    </g>
  </g>
</svg>
