<svg xmlns="http://www.w3.org/2000/svg" xmlns:xlink="http://www.w3.org/1999/xlink" viewBox="0 0 58.98 57.32">
  <defs>
    <style>
      .cls-1 {
        fill: none;
      }

      .cls-2 {
        fill: #1f3880;
      }

      .cls-3 {
        fill: #e30613;
      }

      .cls-4 {
        clip-path: url(#clip-path);
      }

      .cls-5 {
        fill: #fff;
      }

      .cls-6 {
        fill: #14387f;
      }
    </style>
    <clipPath id="clip-path" transform="translate(0 -0.94)">
      <rect class="cls-1" width="58.98" height="59.21"/>
    </clipPath>
  </defs>
  <g id="Ebene_2" data-name="Ebene 2">
    <g id="Ebene_1-2" data-name="Ebene 1">
      <g>
        <polygon class="cls-2" points="0 57.32 55.4 57.32 0 0 0 57.32"/>
        <polygon class="cls-3" points="46.57 37.74 44.5 42.76 49.59 40.84 45.91 46.08 45.44 45.6 47.8 42.25 47.79 42.24 43.39 43.83 45.13 39.49 45.12 39.48 41.7 41.73 41.23 41.24 46.57 37.74"/>
        <g class="cls-4">
          <path class="cls-3" d="M48,46.49a1.24,1.24,0,1,0,1.7,1.76,1.23,1.23,0,0,0,.1-1.82,1.26,1.26,0,0,0-1.8.06M48.8,50l-.44-.46.36-.35v0a1.55,1.55,0,0,1-1.33-.48,1.83,1.83,0,0,1,.17-2.63A1.81,1.81,0,0,1,50.2,46a1.64,1.64,0,0,1,.43,1.35h0L51,47l.43.46Z" transform="translate(0 -0.94)"/>
          <path class="cls-3" d="M53.88,47.92a.45.45,0,1,1,0-.64.45.45,0,0,1,0,.64m-3.75,3.45-.44-.45,2.66-2.58.44.45Z" transform="translate(0 -0.94)"/>
          <path class="cls-3" d="M53.82,50.5h0a1.24,1.24,0,0,1,1.13.38c.72.73.35,1.42-.27,2l-1.58,1.53L52.67,54l1.5-1.45c.43-.42.78-.83.27-1.35s-1.22-.11-1.69.35l-1.27,1.23-.43-.46,2.65-2.57.44.45Z" transform="translate(0 -0.94)"/>
          <polygon class="cls-3" points="56.66 56.33 56.24 56.74 53.58 53.99 57.68 53.73 56.17 52.17 56.58 51.76 58.98 54.24 54.89 54.5 56.66 56.33"/>
          <path class="cls-5" d="M7.89,50A3,3,0,0,1,9,52.09,3.09,3.09,0,0,1,8.1,54.5a3.28,3.28,0,1,1-1.75-5.6l0,.71a2.55,2.55,0,0,0-2.39.7A2.63,2.63,0,0,0,4,54a2.57,2.57,0,0,0,1.79.75,2.68,2.68,0,0,0,1.85-.71,2.18,2.18,0,0,0,.19-3L6.49,52.38,6,51.92Z" transform="translate(0 -0.94)"/>
          <path class="cls-5" d="M11.08,48A1.2,1.2,0,0,0,9.53,48a1.25,1.25,0,0,0-.12,1.59Zm-1.29,2.1a1.28,1.28,0,0,0,1.85,0,1.35,1.35,0,0,0,.28-1.43l.63-.17a2,2,0,0,1-.5,2.08,1.92,1.92,0,0,1-2.81-.07A1.92,1.92,0,1,1,12,47.85Z" transform="translate(0 -0.94)"/>
          <path class="cls-5" d="M12.94,46.64a1.32,1.32,0,1,0,1.85-1.85,1.32,1.32,0,0,0-1.95-.07,1.33,1.33,0,0,0,.1,1.92M9,43.61l.47-.47L12,45.65v0a1.7,1.7,0,0,1,.48-1.43,1.94,1.94,0,0,1,2.82.13,2,2,0,0,1,.14,2.81,1.64,1.64,0,0,1-1.43.5v0l.39.38-.48.48Z" transform="translate(0 -0.94)"/>
          <path class="cls-5" d="M15.66,39a.45.45,0,0,1,0,.64.46.46,0,0,1-.65,0A.47.47,0,0,1,15,39a.46.46,0,0,1,.65,0m-1.17,1.17a.48.48,0,0,1,0,.65.46.46,0,0,1-.65,0,.45.45,0,0,1,0-.64.47.47,0,0,1,.65,0m1.7,3.2A1.32,1.32,0,1,0,18,41.53a1.32,1.32,0,0,0-1.95-.07,1.34,1.34,0,0,0,.1,1.92m3.73-.88-.48.48-.39-.39h0a1.63,1.63,0,0,1-.5,1.43,2,2,0,0,1-2.81-.13,1.94,1.94,0,0,1-.14-2.82A1.71,1.71,0,0,1,17,40.59h0l-.4-.4.48-.48Z" transform="translate(0 -0.94)"/>
          <path class="cls-5" d="M20,39.94c.47.47.93.82,1.5.24s.23-1-.24-1.51L19.7,37.12l.47-.48,1.62,1.61c.74.74,1,1.54.15,2.37s-1.62.59-2.37-.15L18,38.86l.47-.48Z" transform="translate(0 -0.94)"/>
          <path class="cls-5" d="M22.66,36.89a1.37,1.37,0,0,0,2,.14,1.34,1.34,0,0,0-.13-2,1.32,1.32,0,0,0-2-.07,1.34,1.34,0,0,0,.1,1.92m2.87-.79h0a1.7,1.7,0,0,1-.5,1.43,2.1,2.1,0,0,1-2.95-3,1.72,1.72,0,0,1,1.43-.48h0L21,31.58l.47-.48L26.39,36l-.48.47Z" transform="translate(0 -0.94)"/>
          <path class="cls-5" d="M27.5,31.49a1.21,1.21,0,0,0-1.56.09,1.24,1.24,0,0,0-.11,1.58Zm-1.29,2.1a1.28,1.28,0,0,0,1.85,0,1.37,1.37,0,0,0,.27-1.43L29,32a2,2,0,0,1-.51,2.08A1.91,1.91,0,0,1,25.65,34a1.92,1.92,0,1,1,2.75-2.62Z" transform="translate(0 -0.94)"/>
          <polygon class="cls-6" points="31.21 28.42 29.97 25.44 32.95 26.67 31.89 23.94 32.43 23.4 34.05 27.78 31.1 26.57 32.32 29.51 27.95 27.9 28.49 27.35 31.21 28.42"/>
          <path class="cls-6" d="M32.51,22.15a.48.48,0,1,1-.68.68.48.48,0,0,1,.68-.68m3.76,4-.48.48L33,23.78l.47-.47Z" transform="translate(0 -0.94)"/>
          <path class="cls-6" d="M35.21,22.16h0a1,1,0,0,1,.24-1,1.22,1.22,0,0,1,.56-.3l.21.66a.67.67,0,0,0-.41.16c-.52.53.13,1.22.49,1.58l1.4,1.4-.48.48-2.8-2.8.48-.47Z" transform="translate(0 -0.94)"/>
          <polygon class="cls-6" points="39.87 21.55 39.39 22.02 37.03 19.67 36.74 19.96 36.3 19.52 36.59 19.23 35.58 18.23 36.06 17.75 37.06 18.75 37.56 18.25 38.01 18.69 37.51 19.19 39.87 21.55"/>
          <path class="cls-6" d="M39.77,18.28a.63.63,0,0,0-.67.1.48.48,0,0,0,0,.65c.25.26.67,0,1.14-.16a1.2,1.2,0,0,1,1.45.15,1.3,1.3,0,0,1,0,1.86,1.43,1.43,0,0,1-1.7.28l.24-.6a.84.84,0,0,0,1-.13.59.59,0,0,0,0-.88c-.62-.62-1.67.86-2.55,0a1.14,1.14,0,0,1,0-1.63A1.21,1.21,0,0,1,40,17.67Z" transform="translate(0 -0.94)"/>
          <path class="cls-6" d="M43.27,15.14h0a1.54,1.54,0,0,0-1.34.4,1.41,1.41,0,0,0,0,2,1.38,1.38,0,0,0,2,.07,1.53,1.53,0,0,0,.43-1.39h0l.64.63a2.23,2.23,0,0,1-.6,1.18,2.06,2.06,0,0,1-3,0,2.09,2.09,0,0,1,0-3,2.12,2.12,0,0,1,1.14-.58Z" transform="translate(0 -0.94)"/>
          <path class="cls-6" d="M41.55,11,44,13.4h0a1.34,1.34,0,0,1,.38-1.22c.77-.77,1.51-.39,2.17.26l1.66,1.66-.48.48L46.17,13c-.45-.45-.89-.82-1.44-.26s-.09,1.3.41,1.8l1.33,1.33-.48.47-4.91-4.9Z" transform="translate(0 -0.94)"/>
          <path class="cls-6" d="M48,11.52A1.32,1.32,0,1,0,49.8,9.67a1.32,1.32,0,0,0-1.95-.07,1.34,1.34,0,0,0,.1,1.92m3.73-.88-.47.48-.39-.39h0a1.68,1.68,0,0,1-.5,1.43A2,2,0,0,1,47.5,12a1.93,1.93,0,0,1-.14-2.82,1.73,1.73,0,0,1,1.43-.49h0l-.4-.4.48-.47Z" transform="translate(0 -0.94)"/>
          <path class="cls-6" d="M53.08,9.24l-.48.48L50.24,7.36,50,7.62l-.44-.44.26-.26L48.68,5.81a2,2,0,0,1-.6-.85,1.14,1.14,0,0,1,.37-1.07,1.26,1.26,0,0,1,.4-.28l.48.48a1.62,1.62,0,0,0-.39.25c-.38.39-.11.67.39,1.16l1,.94.7-.7.44.44-.7.7Z" transform="translate(0 -0.94)"/>
          <polygon class="cls-6" points="54.69 6.68 54.21 7.16 51.85 4.8 51.56 5.1 51.12 4.66 51.41 4.37 50.4 3.36 50.88 2.88 51.88 3.89 52.38 3.39 52.83 3.83 52.33 4.33 54.69 6.68"/>
        </g>
      </g>
    </g>
  </g>
</svg>
