<svg xmlns="http://www.w3.org/2000/svg" xmlns:xlink="http://www.w3.org/1999/xlink" viewBox="0 0 58.1 12.37">
  <defs>
    <style>
      .cls-1 {
        fill: none;
      }

      .cls-2 {
        fill: #1d1d1b;
      }

      .cls-3 {
        clip-path: url(#clip-path);
      }
    </style>
    <clipPath id="clip-path" transform="translate(-7.93 -8.88)">
      <rect class="cls-1" width="75.5" height="25.19"/>
    </clipPath>
  </defs>
  <g id="Ebene_2" data-name="Ebene 2">
    <g id="Ebene_1-2" data-name="Ebene 1">
      <g>
        <polygon class="cls-2" points="21.28 1.86 18.91 4.24 21.5 10.58 19.79 10.58 17.68 5.34 17.24 5.8 17.24 10.58 15.7 10.58 15.7 1.86 17.24 1.86 17.24 4.03 19.36 1.86 21.28 1.86"/>
        <g class="cls-3">
          <path class="cls-2" d="M29.89,16.64V10.75h1.55v5.92c0,.95.46,1.49,1.16,1.49s1.14-.54,1.14-1.49V10.75H35.3v5.91a2.71,2.71,0,1,1-5.41,0" transform="translate(-7.93 -8.88)"/>
          <polygon class="cls-2" points="28.63 1.86 30.17 1.86 30.17 9.2 32.99 9.2 32.99 10.58 28.63 10.58 28.63 1.86"/>
          <polygon class="cls-2" points="32.31 1.86 37.66 1.86 37.66 3.25 35.75 3.25 35.75 10.58 34.21 10.58 34.21 3.25 32.31 3.25 32.31 1.86"/>
          <path class="cls-2" d="M46.21,16.64V10.75h1.55v5.92c0,.95.46,1.49,1.16,1.49s1.15-.54,1.15-1.49V10.75h1.55v5.91a2.71,2.71,0,1,1-5.41,0" transform="translate(-7.93 -8.88)"/>
          <path class="cls-2" d="M52.88,10.75h2.57A2.28,2.28,0,0,1,57.84,13a2.31,2.31,0,0,1-.56,1.52,2.15,2.15,0,0,1-.64.47l1.78,4.52H56.74l-1.6-4.26h-.71v4.26H52.88Zm1.55,3.09h1a.8.8,0,0,0,.78-.89.86.86,0,0,0-.93-.82h-.86Z" transform="translate(-7.93 -8.88)"/>
          <polygon class="cls-2" points="51.15 1.86 55.49 1.86 55.49 3.25 52.69 3.25 52.69 4.75 55.29 4.75 55.29 6.13 52.69 6.13 52.69 9.2 55.54 9.2 55.54 10.58 51.15 10.58 51.15 1.86"/>
          <rect class="cls-2" x="56.56" y="1.86" width="1.54" height="8.71"/>
          <path class="cls-2" d="M18.53,16.31H14.59V14.12a1.21,1.21,0,0,0-.95,0v2.19H9.71V14.88a4.41,4.41,0,0,1,8.82,0ZM14.87,16h3.39V14.88a4.14,4.14,0,0,0-8.28,0V16h3.39V13.94l.08,0a1.5,1.5,0,0,1,1.34,0l.08,0Z" transform="translate(-7.93 -8.88)"/>
          <path class="cls-2" d="M14.12,19.66a2.58,2.58,0,0,1-2.57-2.58h.27a2.3,2.3,0,1,0,4.6,0h.27a2.58,2.58,0,0,1-2.57,2.58" transform="translate(-7.93 -8.88)"/>
          <path class="cls-2" d="M16.39,14.17h-.88v-.88h.88Zm-.61-.27h.34v-.34h-.34Z" transform="translate(-7.93 -8.88)"/>
          <path class="cls-2" d="M12.73,14.17h-.88v-.88h.88Zm-.61-.27h.34v-.34h-.34Z" transform="translate(-7.93 -8.88)"/>
          <path class="cls-2" d="M14.12,21.25a6.19,6.19,0,1,1,6.19-6.18,6.19,6.19,0,0,1-6.19,6.18m0-12.1A5.92,5.92,0,1,0,20,15.07a5.93,5.93,0,0,0-5.91-5.92" transform="translate(-7.93 -8.88)"/>
        </g>
      </g>
    </g>
  </g>
</svg>
