<svg xmlns="http://www.w3.org/2000/svg" viewBox="0 0 56.63 41.83">
  <defs>
    <style>
      .cls-1 {
        fill: none;
      }

      .cls-2, .cls-6 {
        fill: #1d1d1b;
      }

      .cls-2, .cls-3, .cls-4 {
        fill-rule: evenodd;
      }

      .cls-3 {
        fill: #f9d3e6;
      }

      .cls-5 {
        fill: #fff;
      }
    </style>
  </defs>
  <g id="Ebene_2" data-name="Ebene 2">
    <g id="Ebene_1-2" data-name="Ebene 1">
      <g>
        <rect class="cls-1" width="56.63" height="41.83"/>
        <path class="cls-2" d="M21.9,8.85,32,18.93l-5.7,5.68s-2.78-2.74-3.67-3.68a2.63,2.63,0,0,1-.53-.86A3,3,0,0,1,21.9,19Z"/>
        <rect class="cls-1" width="56.63" height="41.83"/>
        <rect class="cls-1" width="56.63" height="41.83"/>
        <rect class="cls-1" width="56.63" height="41.83"/>
        <rect class="cls-1" width="56.63" height="41.83"/>
        <path class="cls-3" d="M21.9,18.91v-.09a.14.14,0,0,0,0,.09"/>
        <path class="cls-4" d="M22.73,6.1a2.78,2.78,0,0,0-.59.88,2.87,2.87,0,0,0-.24,1V18.84a3.68,3.68,0,0,1,1.31-2.16l8.53-8.54L26.23,2.61l-3,3-.52.52"/>
        <path class="cls-5" d="M22.89,6.22a2.59,2.59,0,0,0-.57.85,2.71,2.71,0,0,0-.23.93V18.29a3.57,3.57,0,0,1,1.2-2.05l8.15-8.15-5.21-5.2L23.38,5.73l-.49.49"/>
        <polygon class="cls-6" points="0 37.77 0 32.49 1.01 32.49 1.01 34.67 1.02 34.67 2.33 32.49 3.43 32.49 2.07 34.62 3.58 37.77 2.45 37.77 1.4 35.55 1.01 36.15 1.01 37.77 0 37.77"/>
        <path class="cls-6" d="M4.63,34.18c0-1.3.69-1.76,1.66-1.76A1.55,1.55,0,0,1,8,34.18v1.89c0,1.3-.69,1.76-1.67,1.76s-1.66-.46-1.66-1.76Zm1,2c0,.58.25.74.65.74S7,36.78,7,36.2V34.05c0-.58-.25-.74-.66-.74s-.65.16-.65.74Z"/>
        <polygon class="cls-6" points="9.49 37.77 9.49 32.49 10.6 32.49 12 35.62 12.01 35.62 12.01 32.49 12.93 32.49 12.93 37.77 11.97 37.77 10.43 34.36 10.41 34.36 10.41 37.77 9.49 37.77"/>
        <polygon class="cls-6" points="17.61 32.49 17.61 33.38 16.43 33.38 16.43 37.77 15.42 37.77 15.42 33.38 14.25 33.38 14.25 32.49 17.61 32.49"/>
        <path class="cls-6" d="M21.23,37.76l-.88-2.15h-.48v2.15h-1V32.49h1.46c1.21,0,1.79.58,1.79,1.58a1.27,1.27,0,0,1-.8,1.34l1,2.35Zm-1.36-3h.52a.73.73,0,1,0,0-1.46h-.52Z"/>
        <path class="cls-6" d="M23.22,37.76l1.31-5.27h1.29l1.27,5.27h-1l-.26-1.11H24.48l-.29,1.11Zm1.44-2h1l-.49-2.13h0Z"/>
        <path class="cls-6" d="M30.52,34c-.17-.5-.39-.71-.74-.71a.52.52,0,0,0-.55.49v.09c0,.79,2.25.85,2.25,2.5A1.48,1.48,0,0,1,30,37.88a.91.91,0,0,1-.23,0,1.69,1.69,0,0,1-1.72-1.48l1-.21c.12.64.48.86.78.86a.59.59,0,0,0,.62-.56v-.07c0-1-2.25-1-2.25-2.48a1.39,1.39,0,0,1,1.29-1.48,1.51,1.51,0,0,1,.3,0,1.57,1.57,0,0,1,1.62,1.27Z"/>
        <polygon class="cls-6" points="36.06 32.49 36.06 33.38 34.89 33.38 34.89 37.77 33.88 37.77 33.88 33.38 32.7 33.38 32.7 32.49 36.06 32.49"/>
        <polygon class="cls-6" points="37.6 37.77 37.6 32.49 40.69 32.49 40.69 32.89 38.08 32.89 38.08 34.83 39.99 34.83 39.99 35.22 38.08 35.22 38.08 37.77 37.6 37.77"/>
        <rect class="cls-6" x="42.07" y="32.49" width="0.48" height="5.27"/>
        <polygon class="cls-6" points="44.42 32.49 44.9 32.49 44.9 37.37 47.25 37.37 47.25 37.77 44.42 37.77 44.42 32.49"/>
        <polygon class="cls-6" points="48.14 37.77 48.14 32.49 48.99 32.49 50.44 36.96 50.46 36.96 51.92 32.49 52.76 32.49 52.76 37.77 52.28 37.77 52.28 32.89 52.27 32.89 50.68 37.77 50.22 37.77 48.64 32.89 48.62 32.89 48.62 37.77 48.14 37.77"/>
        <rect class="cls-1" y="2.61" width="56.63" height="35.23"/>
      </g>
    </g>
  </g>
</svg>
