<svg xmlns="http://www.w3.org/2000/svg" xmlns:xlink="http://www.w3.org/1999/xlink" viewBox="0 0 59.46 26.21">
  <defs>
    <style>
      .cls-1 {
        fill: none;
      }

      .cls-2 {
        fill: #1d1d1b;
      }

      .cls-3 {
        clip-path: url(#clip-path);
      }

      .cls-4 {
        clip-path: url(#clip-path-2);
      }
    </style>
    <clipPath id="clip-path" transform="translate(0 -16.74)">
      <rect class="cls-1" y="16.74" width="59.46" height="26.21"/>
    </clipPath>
    <clipPath id="clip-path-2" transform="translate(0 -16.74)">
      <rect class="cls-1" width="59.46" height="59.69"/>
    </clipPath>
  </defs>
  <g id="Ebene_2" data-name="Ebene 2">
    <g id="Ebene_1-2" data-name="Ebene 1">
      <g>
        <polygon class="cls-2" points="5.12 0 1.27 2.92 11.41 10.72 5.12 0"/>
        <g class="cls-3">
          <path class="cls-2" d="M59.46,29.62H58.18l.47-1.25H29.3a4.37,4.37,0,0,0-4.1,3.25A4.85,4.85,0,0,0,25,33h0a4.36,4.36,0,0,0,.52,2.08H22.36l4.53-11.13H25.58l.5-1.24H24l-.49,1.15,0,.07h-1L23,22.67H15.37l-2.86,6.74c-.32,0-.65,0-1,0-4.26,0-9.76,1.44-11.2,5.91A7.17,7.17,0,0,0,0,37.35H0a4.61,4.61,0,0,0,1.43,3.45,3.57,3.57,0,0,0,.49.38,3.54,3.54,0,0,0,.41.26l.29.3A4.71,4.71,0,0,0,5.86,43h0c2.43,0,5.2-1.61,6.77-5.28l2.31-5.38h3.31l.05-.12.59-1.46H17.58l.51-1.24H16.15l1.64-4h5.07L19.4,33.76a3.41,3.41,0,0,0-.31,1.33v0a1.75,1.75,0,0,0,.83,1.51,2.78,2.78,0,0,0,.42.22l.16.06a1.56,1.56,0,0,0,.59.64,4.65,4.65,0,0,0,2.51.52H30A4.21,4.21,0,0,0,34,35h0a4.85,4.85,0,0,0,.18-1.3,4.24,4.24,0,0,0-.76-2.46H58.87ZM22.15,23.85l-.15.41H16.61l-.05.1-2.25,5.47h3.25l-.34.82-.16.38h-3.3L11.4,36.53C9.85,40.15,7.14,41.7,4.8,41.7h0a4.65,4.65,0,0,1-2.67-.8,5.37,5.37,0,0,1-.45-.35A4.23,4.23,0,0,1,.36,37.36a6.81,6.81,0,0,1,.31-2C2,31.18,7.32,29.74,11.53,29.74c.37,0,.73,0,1.09,0h.12L15.6,23h6.86Zm35.68,5.7-.15.39H32l.2.29a4,4,0,0,1,.74,2.34h0a4.45,4.45,0,0,1-.18,1.25v0h0a4,4,0,0,1-3.76,3H22.53a5.41,5.41,0,0,1-2.05-.31,2.55,2.55,0,0,1-.37-.19,1.42,1.42,0,0,1-.67-1.21v0a3.23,3.23,0,0,1,.28-1.19l3.5-8.33L23.88,24l.4-.94h1.27l-.33.82L21,34.22a1.5,1.5,0,0,0-.12.54v0a.53.53,0,0,0,.2.43,1.26,1.26,0,0,0,.83.21h4.23L26,35.15A4.17,4.17,0,0,1,25.36,33h0a4.5,4.5,0,0,1,.18-1.25,4,4,0,0,1,3.76-3H58.14Zm-27.9.51A2.28,2.28,0,0,0,29.3,30h0a2.8,2.8,0,0,0-2.56,2.1,3.11,3.11,0,0,0-.13.9h0A2.62,2.62,0,0,0,28,35.39l.29.11a2.27,2.27,0,0,0,.63.08h0a2.78,2.78,0,0,0,2.51-2h0l0-.13a3.11,3.11,0,0,0,.13-.9,2.88,2.88,0,0,0-.28-1.26,2.33,2.33,0,0,0-1.44-1.26m1.27,3.28,0,0A2.44,2.44,0,0,1,29,35.23h0a1.82,1.82,0,0,1-.52-.08,1.17,1.17,0,0,1-.24-.09L28,35a2.79,2.79,0,0,1-.16-.93,3.1,3.1,0,0,1,.12-.84,2.64,2.64,0,0,1,2.39-2h0a2,2,0,0,1,.58.09h0a1,1,0,0,1,.1.17,2.56,2.56,0,0,1,.25,1.12,2.87,2.87,0,0,1-.1.75M11.16,31A11.43,11.43,0,0,0,4.1,33.14,5.69,5.69,0,0,0,1.66,37.3v0a2.67,2.67,0,0,0,.09.69,3,3,0,0,0,1.43,1.9,3.48,3.48,0,0,0,1.73.45c1.64,0,3.54-1.07,4.78-3.75l2-4.29.6-1.3L12,31l-.86,0m-1.8,5.48C8.16,39,6.39,40,4.91,40a3.09,3.09,0,0,1-1.55-.41,1.82,1.82,0,0,1-.23-.15A2,2,0,0,1,3,39a2.39,2.39,0,0,1-.08-.66,5.49,5.49,0,0,1,2.37-4,10.85,10.85,0,0,1,6-2.09Z" transform="translate(0 -16.74)"/>
        </g>
        <g class="cls-4">
          <path class="cls-2" d="M37.36,37.94h-.27a1.1,1.1,0,0,1-1-.53,1,1,0,0,1-.13-.25s0,0,0,0l.53-.28s0,0,.08,0,0,0,0,0c.12.28.29.39.47.39h.27a.48.48,0,0,0,.47-.48c0-.36-.35-.49-.71-.65-.52-.25-1.09-.53-1.09-1.31a1.13,1.13,0,0,1,1.23-1.17h.1a1.14,1.14,0,0,1,1,.54.85.85,0,0,1,.12.24.05.05,0,0,1,0,0l-.53.27a.19.19,0,0,1-.08,0s0,0-.05,0c-.12-.29-.29-.39-.47-.39h-.1a.48.48,0,0,0-.48.47c0,.34.38.44.77.62a1.42,1.42,0,0,1,1,1.34,1.13,1.13,0,0,1-1.23,1.17" transform="translate(0 -16.74)"/>
          <path class="cls-2" d="M41.93,37.88H39.59s-.06,0-.06-.07v-4c0-.05,0-.07.06-.07h2.34s.06,0,.06.07v.56a.05.05,0,0,1-.06.06H40.35s-.06,0-.06.07v.88s0,.07.06.07h1.29s.07,0,.07.06V36c0,.05,0,.07-.07.07H40.35s-.06,0-.06.07v.94a.05.05,0,0,0,.06.06h1.58s.06,0,.06.07v.56s0,.07-.06.07" transform="translate(0 -16.74)"/>
          <path class="cls-2" d="M45.74,37.88h-.68a.07.07,0,0,1-.06-.05l-.58-1.68a.05.05,0,0,0-.05,0h-.59c-.05,0-.07,0-.07.07v1.63s0,.07-.06.07H43c-.05,0-.07,0-.07-.07v-4s0-.06.07-.06h1.49a1.15,1.15,0,0,1,1.23,1.23V35a1.27,1.27,0,0,1-.54.89s0,0,0,.06a.33.33,0,0,0,0,.1l.57,1.66a.93.93,0,0,1,0,.1s0,.06-.07.06m-.76-3a.48.48,0,0,0-.47-.48h-.73c-.05,0-.07,0-.07.07v.88s0,.07.07.07h.73a.48.48,0,0,0,.47-.48Z" transform="translate(0 -16.74)"/>
          <path class="cls-2" d="M49.32,33.86l-1.21,4a.06.06,0,0,1-.06.05h-.48a.08.08,0,0,1-.07-.05l-1.2-3.94a.79.79,0,0,1,0-.13s0,0,.07,0H47a.06.06,0,0,1,.07,0l.65,2.38s.05.25.07.3h0s0-.24.07-.29l.65-2.39a.06.06,0,0,1,.07,0h.67s.07,0,.07,0a.38.38,0,0,1,0,.1" transform="translate(0 -16.74)"/>
          <path class="cls-2" d="M50.7,37.88h-.63s-.07,0-.07-.07v-4c0-.05,0-.07.07-.07h.63s.06,0,.06.07v4s0,.07-.06.07" transform="translate(0 -16.74)"/>
          <path class="cls-2" d="M54.38,37.41a1.13,1.13,0,0,1-1.05.53H53a1.13,1.13,0,0,1-1.23-1.17v-2A1.13,1.13,0,0,1,53,33.64h.32a1.14,1.14,0,0,1,1.05.54.85.85,0,0,1,.12.24.05.05,0,0,1,0,0l-.53.27a.19.19,0,0,1-.08,0,.05.05,0,0,1-.05,0c-.12-.29-.29-.39-.47-.39H53a.48.48,0,0,0-.48.47v2a.49.49,0,0,0,.48.48h.32c.18,0,.35-.11.47-.39,0,0,0,0,.05,0a.19.19,0,0,1,.08,0l.53.28s0,0,0,0a.87.87,0,0,1-.12.25" transform="translate(0 -16.74)"/>
          <path class="cls-2" d="M57.74,37.88H55.4s-.07,0-.07-.07v-4c0-.05,0-.07.07-.07h2.34s.06,0,.06.07v.56a.05.05,0,0,1-.06.06H56.16s-.06,0-.06.07v.88s0,.07.06.07h1.29s.07,0,.07.06V36c0,.05,0,.07-.07.07H56.16s-.06,0-.06.07v.94a.05.05,0,0,0,.06.06h1.58s.06,0,.06.07v.56s0,.07-.06.07" transform="translate(0 -16.74)"/>
          <path class="cls-2" d="M17.27,40.36l-.69,2.27s0,0,0,0h-.21a0,0,0,0,1,0,0l-.69-2.24,0-.1s0,0,0,0h.29s0,0,0,0l.44,1.6a1.13,1.13,0,0,0,0,.15h0l0-.15.45-1.6s0,0,0,0h.29s0,0,0,0l0,.07" transform="translate(0 -16.74)"/>
          <path class="cls-2" d="M19.26,42.66H18s0,0,0,0V40.3s0,0,0,0h1.3s0,0,0,0v.22s0,0,0,0h-1s0,0,0,0v.65s0,0,0,0h.79s0,0,0,0v.22s0,0,0,0H18.3s0,0,0,0v.69s0,0,0,0h1s0,0,0,0v.23s0,0,0,0" transform="translate(0 -16.74)"/>
          <path class="cls-2" d="M21.41,42.66h-.3a0,0,0,0,1,0,0l-.36-1a0,0,0,0,0,0,0h-.37s0,0,0,0v1s0,0,0,0H20a0,0,0,0,1,0,0V40.3a0,0,0,0,1,0,0h.76a.64.64,0,0,1,.69.68v0a.66.66,0,0,1-.33.52s0,0,0,0a.29.29,0,0,0,0,.09l.31.92a.29.29,0,0,1,0,.09,0,0,0,0,1,0,0m-.33-1.75a.35.35,0,0,0-.35-.35h-.41s0,0,0,0v.65s0,0,0,0h.41a.35.35,0,0,0,.35-.35Z" transform="translate(0 -16.74)"/>
          <path class="cls-2" d="M23.55,42.66h-.28s0,0,0,0l-.14-.5s0,0,0,0h-.62s0,0,0,0l-.14.5s0,0,0,0h-.28s-.05,0-.05,0a1.28,1.28,0,0,1,0-.13l.68-2.22s0,0,0,0h.2s0,0,0,0l.68,2.23c0,.05,0,.11,0,.12s0,0,0,0m-.59-1L22.79,41a1,1,0,0,1,0-.17h0a1,1,0,0,0,0,.17l-.17.63a.93.93,0,0,0,0,.1s0,0,.05,0h.4s0,0,0,0a.51.51,0,0,0,0-.09" transform="translate(0 -16.74)"/>
          <path class="cls-2" d="M25.68,42.66h-.25l0,0-.81-1.47L24.52,41h0c0,.09,0,.59,0,.89v.7s0,0,0,0h-.27s0,0,0,0V40.3s0,0,0,0h.24s0,0,0,0l.81,1.48s.06.1.07.13h0c0-.09,0-.58,0-.88V40.3s0,0,0,0h.27a0,0,0,0,1,0,0v2.32a0,0,0,0,1,0,0" transform="translate(0 -16.74)"/>
          <path class="cls-2" d="M27.15,42.7H27a.62.62,0,0,1-.58-.28.31.31,0,0,1-.05-.11s0,0,0,0l.19-.1.07,0a0,0,0,0,1,0,0,.35.35,0,0,0,.32.21h.16a.34.34,0,0,0,.34-.34c0-.24-.22-.34-.46-.45s-.63-.29-.63-.73a.64.64,0,0,1,.69-.65h.06a.62.62,0,0,1,.58.28.31.31,0,0,1,.05.1s0,0,0,0l-.2.11-.06,0,0,0a.36.36,0,0,0-.32-.22h-.06a.35.35,0,0,0-.34.35c0,.22.24.3.49.42a.81.81,0,0,1,.6.76.64.64,0,0,1-.69.65" transform="translate(0 -16.74)"/>
          <path class="cls-2" d="M29.63,40.62h-.44s0,0,0,0v2s0,0,0,0h-.26s0,0,0,0v-2s0,0,0,0h-.44s0,0,0,0v-.22s0,0,0,0h1.3a0,0,0,0,1,0,0v.22a0,0,0,0,1,0,0" transform="translate(0 -16.74)"/>
          <path class="cls-2" d="M31.57,42.66h-.28s0,0,0,0l-.14-.5s0,0,0,0h-.62s0,0,0,0l-.14.5s0,0,0,0H30s0,0,0,0a.66.66,0,0,1,0-.13l.68-2.22s0,0,0,0h.2s0,0,0,0l.68,2.23a.79.79,0,0,1,0,.12s0,0-.05,0m-.59-1L30.81,41a1,1,0,0,0,0-.17h0a1,1,0,0,0,0,.17l-.17.63a.58.58,0,0,0,0,.1s0,0,0,0H31s0,0,0,0a.51.51,0,0,0,0-.09" transform="translate(0 -16.74)"/>
          <path class="cls-2" d="M33.53,42.66h-1.3s0,0,0,0V40.3s0,0,0,0h.27a0,0,0,0,1,0,0v2s0,0,0,0h1s0,0,0,0v.23a0,0,0,0,1,0,0" transform="translate(0 -16.74)"/>
          <path class="cls-2" d="M35,40.56h-.44s0,0,0,0v2s0,0,0,0h-.26s0,0,0,0v-2s0,0,0,0h-.44a0,0,0,0,1,0,0V40.3a0,0,0,0,1,0,0H35s0,0,0,0v.22s0,0,0,0" transform="translate(0 -16.74)"/>
          <path class="cls-2" d="M36.42,42.7h-.11a.64.64,0,0,1-.69-.65V40.3s0,0,0,0h.26s0,0,0,0v1.75a.35.35,0,0,0,.35.34h.11a.34.34,0,0,0,.34-.34V40.3a0,0,0,0,1,0,0h.27s0,0,0,0v1.75a.64.64,0,0,1-.69.65" transform="translate(0 -16.74)"/>
          <path class="cls-2" d="M39.42,42.66h-.25l0,0-.81-1.47L38.26,41h0c0,.09,0,.59,0,.89v.7s0,0,0,0H38s0,0,0,0V40.3s0,0,0,0h.24s0,0,0,0L39,41.76s.06.1.07.13h0c0-.09,0-.58,0-.88V40.3s0,0,0,0h.27s0,0,0,0v2.32s0,0,0,0" transform="translate(0 -16.74)"/>
          <path class="cls-2" d="M41.64,40.63l-.19.1-.07,0,0,0a.36.36,0,0,0-.32-.22h-.18a.35.35,0,0,0-.34.35v1.18a.34.34,0,0,0,.34.34H41a.34.34,0,0,0,.34-.34V41.8a0,0,0,0,0,0,0h-.38s0,0,0,0V41.5s0,0,0,0h.72s0,0,0,0v.55a.63.63,0,0,1-.68.65h-.12a.64.64,0,0,1-.69-.65V40.87a.64.64,0,0,1,.69-.65H41a.66.66,0,0,1,.55.23.55.55,0,0,1,.09.15,0,0,0,0,1,0,0" transform="translate(0 -16.74)"/>
          <path class="cls-2" d="M43,42.7h-.16a.63.63,0,0,1-.58-.28.31.31,0,0,1,0-.11s0,0,0,0l.19-.1.07,0a0,0,0,0,1,0,0,.36.36,0,0,0,.32.21H43a.34.34,0,0,0,.34-.34c0-.24-.22-.34-.46-.45s-.63-.29-.63-.73a.64.64,0,0,1,.69-.65H43a.62.62,0,0,1,.58.28s.06.08.06.1a0,0,0,0,1,0,0l-.2.11-.06,0,0,0a.36.36,0,0,0-.32-.22H43a.35.35,0,0,0-.34.35c0,.22.24.3.49.42a.81.81,0,0,1,.6.76.64.64,0,0,1-.69.65" transform="translate(0 -16.74)"/>
          <path class="cls-2" d="M45.58,40.56h-.44s0,0,0,0v2s0,0,0,0H44.8s0,0,0,0v-2s0,0,0,0h-.44a0,0,0,0,1,0,0V40.3a0,0,0,0,1,0,0h1.3s0,0,0,0v.22s0,0,0,0" transform="translate(0 -16.74)"/>
          <path class="cls-2" d="M47.6,42.66H46.3s0,0,0,0V40.3s0,0,0,0h1.3s0,0,0,0v.22s0,0,0,0h-1s0,0,0,0v.65s0,0,0,0h.78s0,0,0,0v.22s0,0,0,0h-.78s0,0,0,0v.69a0,0,0,0,0,0,0h1s0,0,0,0v.23s0,0,0,0" transform="translate(0 -16.74)"/>
          <path class="cls-2" d="M49.57,42.45a.65.65,0,0,1-.56.25H48.9a.64.64,0,0,1-.69-.65V40.87a.64.64,0,0,1,.69-.65H49a.66.66,0,0,1,.55.23.55.55,0,0,1,.09.15,0,0,0,0,1,0,0l-.19.1-.07,0,0,0a.36.36,0,0,0-.32-.22H48.9a.35.35,0,0,0-.34.35v1.18a.34.34,0,0,0,.34.34H49a.35.35,0,0,0,.32-.22l0,0,.06,0,.2.1s0,0,0,0a.42.42,0,0,1-.08.14" transform="translate(0 -16.74)"/>
          <path class="cls-2" d="M51.84,42.66h-.27s0,0,0,0v-1s0,0,0,0h-.78a0,0,0,0,0,0,0v1s0,0,0,0h-.27s0,0,0,0V40.3s0,0,0,0h.27s0,0,0,0v1a0,0,0,0,0,0,0h.78s0,0,0,0v-1s0,0,0,0h.27a0,0,0,0,1,0,0v2.32a0,0,0,0,1,0,0" transform="translate(0 -16.74)"/>
          <path class="cls-2" d="M54.24,42.66H54l0,0-.81-1.47s-.06-.11-.07-.14h0c0,.09,0,.59,0,.89v.7s0,0,0,0h-.27s0,0,0,0V40.3s0,0,0,0H53s0,0,0,0l.81,1.48a.54.54,0,0,1,.07.13h0c0-.09,0-.58,0-.88V40.3s0,0,0,0h.26s0,0,0,0v2.32s0,0,0,0" transform="translate(0 -16.74)"/>
          <path class="cls-2" d="M55.33,42.66h-.27s0,0,0,0V40.3s0,0,0,0h.27s0,0,0,0v2.32s0,0,0,0" transform="translate(0 -16.74)"/>
          <path class="cls-2" d="M57.76,42.66h-.32a.05.05,0,0,1,0,0l-.65-1.05s0,0,0,0,0,0,0,0l-.19.24a.14.14,0,0,0,0,.09v.71s0,0,0,0h-.27a0,0,0,0,1,0,0V40.3a0,0,0,0,1,0,0h.27s0,0,0,0v1s0,0,0,0a0,0,0,0,0,0,0l.8-1h.35s0,0,0,0v0l-.71.87s0,0,0,.06l0,0,.8,1.3a0,0,0,0,1,0,0s0,0,0,0" transform="translate(0 -16.74)"/>
        </g>
      </g>
    </g>
  </g>
</svg>
