<svg xmlns="http://www.w3.org/2000/svg" xmlns:xlink="http://www.w3.org/1999/xlink" viewBox="0 0 53.73 54.07">
  <defs>
    <style>
      .cls-1 {
        fill: none;
      }

      .cls-2 {
        clip-path: url(#clip-path);
      }

      .cls-3, .cls-6 {
        fill: #fff;
      }

      .cls-3, .cls-5 {
        fill-rule: evenodd;
      }

      .cls-4 {
        clip-path: url(#clip-path-2);
      }

      .cls-5 {
        fill: #619ea2;
      }
    </style>
    <clipPath id="clip-path" transform="translate(0 0)">
      <rect class="cls-1" width="53.73" height="54.07"/>
    </clipPath>
    <clipPath id="clip-path-2" transform="translate(0 0)">
      <rect class="cls-1" width="53.73" height="54.07"/>
    </clipPath>
  </defs>
  <g id="Ebene_2" data-name="Ebene 2">
    <g id="Ebene_1-2" data-name="Ebene 1">
      <g>
        <g class="cls-2">
          <path class="cls-3" d="M19.66,1A26.6,26.6,0,0,0,.06,28.41a26.23,26.23,0,0,0,8.5,18.44A26.39,26.39,0,0,0,28.22,54a26.15,26.15,0,0,0,18.38-8.5,26.34,26.34,0,0,0,7.08-19.76A26.65,26.65,0,0,0,45.23,7.28,26.28,26.28,0,0,0,25.52,0a28.12,28.12,0,0,0-5.86,1" transform="translate(0 0)"/>
        </g>
        <g class="cls-4">
          <path class="cls-3" d="M8.77,31.26V37.6c.69.16,1.74-.05,2.43.11v.53c-.92.12-2.06,0-3.07,0V31.42c0-.31.44-.09.64-.16" transform="translate(0 0)"/>
          <path class="cls-3" d="M15.32,31.26c.61,2.37,1.35,4.6,1.9,7h-.64c-.23-.89-.51-1.75-.74-2.64H13.73c-.37.78-.51,1.81-.84,2.64-.21,0-.51.05-.64,0,.67-2.33,1.27-4.73,2-7ZM13.84,35a12.36,12.36,0,0,0,1.85,0c-.33-1-.54-2.07-.85-3.06h-.16C14.43,33,14.12,34,13.84,35" transform="translate(0 0)"/>
          <path class="cls-3" d="M18.7,31.26c2.25-.15,3.72,0,3.91,2,.14,1.47.25,3.86-.64,4.65s-1.9.3-3.32.42V31.42c0-.07,0-.15.05-.16m.63,6.39c.85,0,1.76.13,2.22-.31s.37-1.38.37-2.38.18-2-.21-2.59-1.31-.43-2.32-.47c-.13,1.81,0,3.85-.06,5.75" transform="translate(0 0)"/>
          <path class="cls-3" d="M27.89,31.26v.58c-.88.13-2,0-3,.06a22.34,22.34,0,0,0-.05,2.48,19.58,19.58,0,0,0,2.32,0v.64H24.88v2.58h3v.64H24.25v-7Z" transform="translate(0 0)"/>
          <path class="cls-3" d="M30.32,31.26q1.35,3,2.59,6.08c.16-2-.07-4,0-6.08h.63c.09,2.22.09,4.81,0,7-.24,0-.63.07-.79,0-1-1.92-1.77-4-2.64-6.08-.08,1.86.1,4.2-.05,6.13h-.53c-.09-2.22-.09-4.81,0-7Z" transform="translate(0 0)"/>
        </g>
        <g class="cls-2">
          <path class="cls-3" d="M14.94,31.6h.16c.31,1,.52,2.09.84,3.07a13.85,13.85,0,0,1-1.85,0c.29-1,.6-2,.85-3.12" transform="translate(0 0)"/>
          <path class="cls-5" d="M25.52,0A26.28,26.28,0,0,1,45.23,7.28a26.65,26.65,0,0,1,8.45,18.49A26.33,26.33,0,0,1,46.6,45.53,26.15,26.15,0,0,1,28.22,54,26.39,26.39,0,0,1,8.56,46.85,26.23,26.23,0,0,1,.06,28.41a26.26,26.26,0,0,1,7-19.81A26.44,26.44,0,0,1,19.66,1,28.12,28.12,0,0,1,25.52,0" transform="translate(0 0)"/>
        </g>
        <g class="cls-4">
          <path class="cls-3" d="M8.13,31.42v6.87c1,0,2.15.07,3.07,0v-.53c-.69-.16-1.75,0-2.43-.11V31.26c-.2.07-.68-.15-.64.16" transform="translate(0 0)"/>
          <path class="cls-3" d="M14.26,31.26c-.74,2.25-1.34,4.65-2,7,.13.1.43,0,.64,0,.33-.83.47-1.86.84-2.64h2.12c.23.89.5,1.75.74,2.64h.63c-.55-2.43-1.29-4.66-1.9-7Z" transform="translate(0 0)"/>
          <path class="cls-3" d="M18.65,31.42v6.87c1.42-.12,2.53.28,3.32-.42s.78-3.18.64-4.65c-.19-2-1.66-2.11-3.91-2-.06,0-.06.09-.05.16" transform="translate(0 0)"/>
          <path class="cls-3" d="M24.24,31.26v7h3.65v-.64h-3V35.07H27.2v-.64a19.58,19.58,0,0,1-2.32,0,22.34,22.34,0,0,1,.05-2.48c1,0,2.08.07,3-.06v-.58Z" transform="translate(0 0)"/>
          <path class="cls-3" d="M29.53,31.26c-.09,2.22-.09,4.81,0,7h.53c.15-1.93,0-4.27.05-6.13.87,2,1.65,4.16,2.64,6.08.16.12.54,0,.79,0,.09-2.22.09-4.81,0-7h-.63c-.07,2.06.16,4.1,0,6.08q-1.24-3.09-2.59-6.08Z" transform="translate(0 0)"/>
          <path class="cls-5" d="M19.38,31.9c1,0,1.89-.2,2.33.47s.21,1.71.21,2.59,0,2-.37,2.38-1.38.29-2.22.31c0-1.9-.07-3.94.05-5.75" transform="translate(0 0)"/>
          <path class="cls-5" d="M14.66,32h.15c.32,1,.52,2.09.85,3.06a12.3,12.3,0,0,1-1.85.06c.28-1,.59-2,.85-3.12" transform="translate(0 0)"/>
          <path class="cls-3" d="M9.11,22.16a24.39,24.39,0,0,1,.05,2.59c.71-.67,1.29-1.92,2.06-2.69.31,0,.69,0,.85.1a4,4,0,0,1-.85,1.53c-.32.47-.68.91-1,1.38.55,1,1.08,2,1.69,3a2.46,2.46,0,0,1,.58.15c.07.22.12.72-.05.85-2,.21-2-1.9-2.91-3-.71.4-.18,2-.42,2.91-.15.17-.68.12-.9.05-.09-2.17-.09-4.7,0-6.87.14-.18.74-.13.9,0" transform="translate(0 0)"/>
          <path class="cls-3" d="M16.5,26.12c.44.82.56,1.95,1.64,2.12a2.49,2.49,0,0,1-.05.79c-1.87.32-1.95-1.61-2.59-2.7h-.63c-.16.78.05,1.92-.11,2.7a1.62,1.62,0,0,1-.9,0c-.12-2.22,0-4.67,0-7,1.31,0,2.69-.17,3.38.52.86.86.69,3.18-.69,3.54m-.21-.95a1.54,1.54,0,0,0,.16-1.9c-.36-.36-.94-.15-1.64-.21v2.27c.61-.07,1,.14,1.48-.16" transform="translate(0 0)"/>
          <path class="cls-3" d="M24.32,29c-.14.16-.73.13-.95.05-.27-.63-.35-1.45-.58-2.11h-2c-.26.65-.33,1.5-.63,2.11a1.72,1.72,0,0,1-.9,0,67.8,67.8,0,0,1,1.9-6.87,1.52,1.52,0,0,1,1.22,0,28.76,28.76,0,0,1,1.06,3.33c.32,1.15.63,2.32.89,3.49m-3.27-3.07h1.48a26.64,26.64,0,0,0-.79-2.74c-.18,1-.51,1.78-.69,2.74" transform="translate(0 0)"/>
          <path class="cls-3" d="M29.24,22.11a1.05,1.05,0,0,1,0,.9,24.44,24.44,0,0,1-2.59,0v2c.53.16,1.42,0,2,.11a1.45,1.45,0,0,1,0,.85,6.76,6.76,0,0,1-1.9.1c-.16.87.05,2.09-.11,3-.22.07-.75.12-.89-.05-.13-2.21,0-4.63-.06-6.92,1.19,0,2.5-.07,3.6.05" transform="translate(0 0)"/>
          <path class="cls-3" d="M30.5,22.06c1.29,0,2.71-.07,3.91.05a1,1,0,0,1,0,.9,8.81,8.81,0,0,1-1.48,0c-.15,1.85.06,4.07-.1,5.92a.9.9,0,0,1-.9,0c-.12-1.87,0-4-.05-5.92a9.42,9.42,0,0,1-1.53,0c-.08-.27-.15-.89.15-1" transform="translate(0 0)"/>
          <rect class="cls-6" x="7.84" y="41.63" width="1.21" height="0.47"/>
          <polygon class="cls-6" points="10.2 39.96 10.56 39.96 10.56 42.78 11.44 42.78 11.44 43.08 10.2 43.08 10.2 39.96"/>
          <path class="cls-6" d="M12.18,42.14l-.21.94h-.34L12.34,40h.4l.69,3.12h-.35l-.21-.94Zm.65-.28-.17-.8c0-.22-.08-.48-.12-.71h0c0,.24-.08.51-.13.71l-.16.8Z" transform="translate(0 0)"/>
          <path class="cls-6" d="M13.82,40a1.75,1.75,0,0,1,.48-.06,1,1,0,0,1,.73.24,1.62,1.62,0,0,1,.42,1.26,1.86,1.86,0,0,1-.37,1.32,1.09,1.09,0,0,1-.86.34,2.33,2.33,0,0,1-.4,0Zm.36,2.79h.13c.39,0,.77-.29.77-1.35,0-.78-.24-1.21-.74-1.21h-.16Z" transform="translate(0 0)"/>
          <path class="cls-6" d="M17.33,40a1.77,1.77,0,0,1,.49-.06,1.07,1.07,0,0,1,.73.24A1.62,1.62,0,0,1,19,41.44a1.85,1.85,0,0,1-.38,1.32,1.09,1.09,0,0,1-.86.34,2.41,2.41,0,0,1-.4,0Zm.36,2.79h.13c.4,0,.78-.29.78-1.35,0-.78-.24-1.21-.74-1.21h-.17Z" transform="translate(0 0)"/>
          <rect class="cls-6" x="19.39" y="39.96" width="0.36" height="3.12"/>
          <path class="cls-6" d="M21.68,43a1,1,0,0,1-.45.09c-.61,0-1-.49-1-1.55,0-1.24.61-1.63,1.1-1.63a.81.81,0,0,1,.39.08l-.08.3a.78.78,0,0,0-.32-.06c-.33,0-.72.32-.72,1.27s.35,1.27.73,1.27a.7.7,0,0,0,.33-.07Z" transform="translate(0 0)"/>
          <polygon class="cls-6" points="22.4 39.96 22.4 41.3 23.27 41.3 23.27 39.96 23.63 39.96 23.63 43.08 23.27 43.08 23.27 41.62 22.4 41.62 22.4 43.08 22.04 43.08 22.04 39.96 22.4 39.96"/>
          <path class="cls-6" d="M26,42.14l-.2.94h-.35L26.18,40h.39l.69,3.12h-.35l-.21-.94Zm.65-.28-.16-.8c-.05-.22-.09-.48-.13-.71h0c0,.24-.08.51-.12.71l-.17.8Z" transform="translate(0 0)"/>
          <path class="cls-6" d="M27.93,40v2.09c0,.56.18.75.42.75s.43-.2.43-.75V40h.36v2c0,.81-.33,1.12-.8,1.12s-.77-.31-.77-1.08V40Z" transform="translate(0 0)"/>
          <polygon class="cls-6" points="29.69 39.96 30.88 39.96 30.88 40.27 30.05 40.27 30.05 41.36 30.82 41.36 30.82 41.66 30.05 41.66 30.05 43.08 29.69 43.08 29.69 39.96"/>
          <polygon class="cls-6" points="33.34 40.62 33.34 41.63 34.31 41.63 34.31 42.06 33.34 42.06 33.34 43.08 32.89 43.08 32.89 42.06 31.92 42.06 31.92 41.63 32.89 41.63 32.89 40.62 33.34 40.62"/>
        </g>
      </g>
    </g>
  </g>
</svg>
