<svg id="Ebene_1" data-name="Ebene 1" xmlns="http://www.w3.org/2000/svg" width="512" height="512" viewBox="0 0 512 512"><rect x="12.12" y="14.1" width="310.81" height="170.18" style="fill:#f9d1e4"/><rect x="144.5" y="12.53" width="310.81" height="170.18" style="fill:#f9d1e4"/><rect x="115.19" y="144.84" width="310.81" height="170.18" style="fill:#f9d1e4"/><rect x="193.67" y="271.55" width="310.81" height="170.18" style="fill:#f9d1e4"/><rect x="22.79" y="330.17" width="310.81" height="170.18" style="fill:#f9d1e4"/><path d="M200.56,408.47c0,17.16,16.76,24.95,86.55,24.95,60,0,72.9-5.06,72.9-15.2,0-11.3-10.52-19.49-106-19.88-137.23-1.95-173.88-26.13-173.88-78.75,0-56.54,48-82.26,203.51-82.26,147,0,209.75,14.81,209.75,82.26a99.19,99.19,0,0,1-.78,10.14c-17.16-1.57-46.79-2.34-72.52-2.34-19.88,0-38.59.39-49.12.77v-3.51c0-15.59-17.15-22.61-80.7-22.61-60.82,0-71,4.68-71,15.59s8.58,17.94,109.94,19.5c141.91,2.73,169.59,22.61,169.59,77.58,0,58.87-47.95,84.21-207.4,84.21-170.37,0-210.92-24.56-210.92-81.87,0-3.9.39-7.79.39-11.69,18.71,1.56,41.33,2.33,72.13,2.33,17.93,0,35.09,0,47.56-1.17Z" style="fill:#38ad61;stroke:#1d1d1b;stroke-miterlimit:23.7019996643066;stroke-width:10px"/><path d="M175.43,149.32v11.42c82.58,0,161.85.37,232.27-1.47-.74,21-.74,61.57-.74,83.32-69.31,0-148.58-.74-229.69-.74,1.11,21,2.21,41.66,3.69,60.47H22.79c1.11-38.35,1.48-79.64,1.48-138.26s0-100.28-.74-138.26H412.86c-.37,12.17-1.48,30.6-1.48,46.46,0,15.48.37,32.44,1.11,43.87-85.16-.37-168.12-.73-237.06-.73Z" style="fill:#38ad61;stroke:#1d1d1b;stroke-miterlimit:23.7019996643066;stroke-width:10px"/></svg>