<?xml version="1.0" encoding="utf-8"?>
<!-- Generator: Adobe Illustrator 26.0.2, SVG Export Plug-In . SVG Version: 6.00 Build 0)  -->
<svg version="1.1" id="Ebene_1" xmlns="http://www.w3.org/2000/svg" xmlns:xlink="http://www.w3.org/1999/xlink" x="0px" y="0px"
	 viewBox="0 0 1113.2 630" style="enable-background:new 0 0 1113.2 630;" xml:space="preserve">
<style type="text/css">
	.st0{fill:#F9D1E4;}
	.st1{fill:#FFFFFF;stroke:#1D1D1B;stroke-miterlimit:23.7;}
	.st2{fill:#FFFFFF;stroke:#1D1D1B;stroke-miterlimit:10;}
</style>
<g id="Background" shape-rendering="crispEdges">
	<rect x="304.7" y="60.3" class="st0" width="143.6" height="78.6"/>
	<rect x="627.1" y="174.5" class="st0" width="143.6" height="78.6"/>
	<rect x="627.1" y="174.5" class="st0" width="143.6" height="78.6"/>
	<rect x="627.1" y="174.5" class="st0" width="143.6" height="78.6"/>
	<rect x="363.4" y="203.8" class="st0" width="143.6" height="78.6"/>
	<rect x="930" y="114.8" class="st0" width="143.6" height="78.6"/>
	<rect x="888.6" y="162.8" class="st0" width="143.6" height="78.6"/>
	<rect x="746.5" y="171.9" class="st0" width="143.6" height="78.6"/>
	<rect x="602.9" y="132.5" class="st0" width="143.6" height="78.6"/>
	<rect x="705.9" y="118.6" class="st0" width="143.6" height="78.6"/>
	<rect x="704.4" y="143.2" class="st0" width="143.6" height="78.6"/>
	<rect x="359" y="174.5" class="st0" width="143.6" height="78.6"/>
	<rect x="376.6" y="107.8" class="st0" width="143.6" height="78.6"/>
	<rect x="444.9" y="85.2" class="st0" width="143.6" height="78.6"/>
	<rect x="514.8" y="55.1" class="st0" width="143.6" height="78.6"/>
	<rect x="496.7" y="55.1" class="st0" width="143.6" height="78.6"/>
	<rect x="478.6" y="55.1" class="st0" width="143.6" height="78.6"/>
	<rect x="349.3" y="21.6" class="st0" width="143.6" height="78.6"/>
	<rect x="326" y="121.5" class="st0" width="143.6" height="78.6"/>
	<rect x="78.7" y="21" class="st0" width="143.6" height="78.6"/>
	<rect x="38.9" y="68.6" class="st0" width="143.6" height="78.6"/>
	<rect x="154.9" y="85.2" class="st0" width="143.6" height="78.6"/>
	<rect x="172" y="21.6" class="st0" width="143.6" height="78.6"/>
	<rect x="270.2" y="21" class="st0" width="143.6" height="78.6"/>
	<rect x="243.8" y="93.2" class="st0" width="143.6" height="78.6"/>
	<rect x="254.2" y="153.2" class="st0" width="143.6" height="78.6"/>
	<rect x="202.4" y="213.8" class="st0" width="143.6" height="78.6"/>
	<rect x="143.3" y="136" class="st0" width="143.6" height="78.6"/>
	<rect x="109.2" y="204.1" class="st0" width="143.6" height="78.6"/>
	<rect x="304.7" y="289.8" class="st0" width="143.6" height="78.6"/>
	<rect x="617.3" y="324.7" class="st0" width="143.6" height="78.6"/>
	<rect x="617.3" y="324.7" class="st0" width="143.6" height="78.6"/>
	<rect x="617.3" y="324.7" class="st0" width="143.6" height="78.6"/>
	<rect x="353.6" y="354" class="st0" width="143.6" height="78.6"/>
	<rect x="838.7" y="226.4" class="st0" width="143.6" height="78.6"/>
	<rect x="890.1" y="282.5" class="st0" width="143.6" height="78.6"/>
	<rect x="736.7" y="322.1" class="st0" width="143.6" height="78.6"/>
	<rect x="632.9" y="243.1" class="st0" width="143.6" height="78.6"/>
	<rect x="349.2" y="324.7" class="st0" width="143.6" height="78.6"/>
	<rect x="479.4" y="265" class="st0" width="143.6" height="78.6"/>
	<rect x="366.8" y="258.1" class="st0" width="143.6" height="78.6"/>
	<rect x="538.2" y="225.7" class="st0" width="143.6" height="78.6"/>
	<rect x="483.4" y="187.1" class="st0" width="143.6" height="78.6"/>
	<rect x="349.2" y="265.7" class="st0" width="143.6" height="78.6"/>
	<rect x="62.1" y="344.1" class="st0" width="143.6" height="78.6"/>
	<rect x="130.6" y="322.6" class="st0" width="143.6" height="78.6"/>
	<rect x="72.2" y="281" class="st0" width="143.6" height="78.6"/>
	<rect x="38.9" y="279.9" class="st0" width="143.6" height="78.6"/>
	<rect x="82.4" y="289.7" class="st0" width="143.6" height="78.6"/>
	<rect x="434.2" y="355.6" class="st0" width="143.6" height="78.6"/>
	<rect x="346.3" y="456.4" class="st0" width="143.6" height="78.6"/>
	<rect x="443.4" y="470.9" class="st0" width="143.6" height="78.6"/>
	<rect x="689.1" y="492" class="st0" width="143.6" height="78.6"/>
	<rect x="612.6" y="504" class="st0" width="143.6" height="78.6"/>
	<rect x="664.9" y="457.1" class="st0" width="143.6" height="78.6"/>
	<rect x="545.5" y="364.7" class="st0" width="143.6" height="78.6"/>
	<rect x="832.8" y="355.6" class="st0" width="143.6" height="78.6"/>
	<rect x="890.2" y="425.4" class="st0" width="143.6" height="78.6"/>
	<rect x="855.2" y="505.7" class="st0" width="143.6" height="78.6"/>
	<rect x="704.7" y="410.4" class="st0" width="143.6" height="78.6"/>
	<rect x="521.7" y="346.2" class="st0" width="143.6" height="78.6"/>
	<rect x="557.9" y="530.4" class="st0" width="143.6" height="78.6"/>
	<rect x="697.2" y="511.9" class="st0" width="143.6" height="78.6"/>
	<rect x="551.3" y="432.3" class="st0" width="143.6" height="78.6"/>
	<rect x="438.6" y="425.4" class="st0" width="143.6" height="78.6"/>
	<rect x="610" y="393" class="st0" width="143.6" height="78.6"/>
	<rect x="627.6" y="298.5" class="st0" width="143.6" height="78.6"/>
	<rect x="556.6" y="304.3" class="st0" width="143.6" height="78.6"/>
	<rect x="736.7" y="246.2" class="st0" width="143.6" height="78.6"/>
	<rect x="800.6" y="304.3" class="st0" width="143.6" height="78.6"/>
	<rect x="736.7" y="355.6" class="st0" width="143.6" height="78.6"/>
	<rect x="790.3" y="422.6" class="st0" width="143.6" height="78.6"/>
	<rect x="786.6" y="472.6" class="st0" width="143.6" height="78.6"/>
	<rect x="447.8" y="310" class="st0" width="143.6" height="78.6"/>
	<rect x="571" y="472.4" class="st0" width="143.6" height="78.6"/>
	<rect x="366.8" y="417.8" class="st0" width="143.6" height="78.6"/>
	<rect x="930.6" y="482.5" class="st0" width="143.6" height="78.6"/>
	<rect x="469.5" y="126.6" class="st0" width="143.6" height="78.6"/>
	<rect x="394.5" y="85.8" class="st0" width="143.6" height="78.6"/>
	<rect x="198.4" y="246.2" class="st0" width="143.6" height="78.6"/>
	<rect x="291.6" y="218.7" class="st0" width="143.6" height="78.6"/>
	<rect x="211.1" y="298.9" class="st0" width="143.6" height="78.6"/>
	<rect x="198.4" y="364.7" class="st0" width="143.6" height="78.6"/>
	<rect x="302.1" y="361.9" class="st0" width="143.6" height="78.6"/>
	<rect x="232.9" y="433.1" class="st0" width="143.6" height="78.6"/>
</g>
<g id="text" shape-rendering="geometricPrecision">
	<path vector-effect="non-scaling-stroke" class="st1" d="M103.8,75.1V79c28.1,0,55,0.1,79-0.5c-0.4,7.1-0.4,20.9-0.4,28.3
		c-23.6,0-50.5-0.3-78.1-0.3c0.4,7.2,0.8,14.2,1.3,20.5H51.9c0.4-13,0.5-27.1,0.5-47s0-34.1-0.3-47h132.3c0,4.1-0.5,10.4-0.5,15.8
		s0,11,0.4,14.9c-28.9-0.1-57.1-0.3-80.6-0.3V75.1z"/>
	<g id="i1">
		<path vector-effect="non-scaling-stroke" class="st2" d="M253,154.8c-0.6-12.6-0.6-22.4-0.6-39.1c0-16.2,0-25.9,0.6-38.4h-48.3
			c0.4,12.8,0.5,23,0.5,37.4c0,15.1,0,27.6-0.5,40.2L253,154.8z"/>
		<rect x="204.8" y="44.7" vector-effect="non-scaling-stroke" class="st2" width="48.3" height="26.4"/>
		<rect x="200.8" y="40.6" vector-effect="non-scaling-stroke" class="st2" width="48.3" height="26.4"/>
		<rect x="196.7" y="36.7" vector-effect="non-scaling-stroke" class="st2" width="48.3" height="26.4"/>
		<rect x="192.7" y="32.6" vector-effect="non-scaling-stroke" class="st2" width="48.3" height="26.4"/>
	</g>
	<path vector-effect="non-scaling-stroke" class="st1" d="M262.6,127.1c0.6-15.6,0.5-31.3,0.5-49.1c0-18.4,0-31.7-0.5-47.9h48.8
		c-0.6,15.7-0.5,28.7-0.5,49.6c0,19.1,0,32.3,0.5,47.4L262.6,127.1z"/>
	<path vector-effect="non-scaling-stroke" class="st1" d="M482,127.1c0.5-10.4,0.5-23,0.5-37.6c0-8.8-5.1-12.9-15.7-12.9
		c-10.5,0-19.6,4.4-19.6,18.7s0,24.2,0.5,31.8h-43.1c0.4-10,0.5-21.7,0.5-38c0-7.9-4.8-12.5-15.6-12.5c-10.8,0-19.7,4.4-19.7,18.7
		c0,16.5,0.1,25.6,0.3,31.8h-44.5c0.5-11.3,0.5-22.2,0.5-38.7s0-28.1-0.5-39.4h45.1c0,6.1-0.4,10.7-0.8,16.7l1,0.3
		c7.5-12.8,19.6-18.9,39.7-18.9c23.9,0,33.6,7.5,36.2,20.5l1.1,0.1c7.4-15.2,21.8-20.5,40.9-20.5c27.2,0,36.5,11.5,36.5,30
		c0,11.4-0.4,17.9-0.4,26.4s0.1,16.3,0.6,23.7L482,127.1z"/>
	<path vector-effect="non-scaling-stroke" class="st1" d="M627.4,66.5c-0.3,5.1-0.3,10.2-0.3,15.7c0,5.4,0,10.8,0.3,16.3
		c-10-0.3-30.8-0.5-44.9-0.5c-13.6,0-34.5,0-44.6,0.5c0.3-5.5,0.4-10.5,0.4-16.3c0-5.8,0-10.5-0.4-15.7C548.1,67,569,67,582.5,67
		C596.6,67,617.2,67,627.4,66.5z"/>
	<path vector-effect="non-scaling-stroke" class="st1" d="M187.5,234.1c0,5.5,5.4,8,27.8,8c19.3,0,23.4-1.6,23.4-4.9
		c0-3.3-3.4-6.3-34.1-6.4c-44.1-0.6-55.9-8.4-55.9-25.3c0-18.2,15.3-26.4,65.4-26.4c47.2,0,67.4,4.8,67.4,26.4
		c0,1.1-0.1,2.2-0.3,3.2c-5.5-0.5-15-0.7-23.3-0.7c-6.4,0-12.4,0-15.8,0.2v-1.1c0-5.1-5.5-7.3-25.9-7.3c-19.5,0-22.8,1.5-22.8,5.1
		c0,3.6,2.8,5.8,35.3,6.3c45.6,0.8,54.5,7.2,54.5,24.8c0,18.9-15.3,27.1-66.7,27.1c-54.8,0-67.8-7.9-67.8-26.3
		c0-1.3,0.1-2.6,0.1-3.8c6,0.5,13.3,0.7,23.2,0.7c5.8,0,11.3,0,15.3-0.4L187.5,234.1z"/>
	<path vector-effect="non-scaling-stroke" class="st1" d="M364.3,237.8c-48.9,0-74-13.1-74-43.6c0-31.5,27.7-40.9,74.3-40.9
		s75.2,9.4,75.2,40.9C439.7,224.7,413.4,237.8,364.3,237.8z M364.5,177.9c-17.2,0-27.9,4.4-27.9,16.5c0,12.1,10.8,16.9,27.9,16.9
		s28.1-5.1,28.1-16.9C392.7,182.7,381.9,177.9,364.5,177.9z"/>
	<path vector-effect="non-scaling-stroke" class="st1" d="M605.4,260.1c0.5-10.4,0.5-23,0.5-37.6c0-8.8-5.1-12.8-15.7-12.8
		s-19.6,4.4-19.6,18.7c0,14.3,0.1,24.2,0.5,31.8h-43.1c0.4-10,0.5-21.7,0.5-38c0-7.9-4.8-12.5-15.5-12.5c-10.8,0-19.7,4.4-19.7,18.7
		c0,16.5,0,25.6,0.3,31.8h-44.5c0.5-11.3,0.5-22.2,0.5-38.7s0-28.1-0.5-39.4h45.1c-0.1,6.1-0.4,10.7-0.8,16.7l1,0.3
		c7.5-12.8,19.5-18.9,39.7-18.9c23.9,0,33.6,7.5,36.2,20.5h1.1c7.4-15.2,21.8-20.5,40.9-20.5c27.2,0,36.5,11.5,36.5,30
		c0,11.4-0.4,17.9-0.4,26.4c0,8.5,0.1,16.3,0.6,23.7L605.4,260.1z"/>
	<path vector-effect="non-scaling-stroke" class="st1" d="M780.5,234.6c0.5-10.4,0.5-23,0.5-37.6c0-8.8-5.1-12.8-15.7-12.8
		s-19.5,4.4-19.5,18.7s0.1,24.2,0.5,31.8h-43.1c0.4-10,0.5-21.7,0.5-38c0-7.9-4.8-12.5-15.5-12.5s-19.7,4.4-19.7,18.7
		c0,16.5,0,25.6,0.2,31.8h-44.5c0.5-11.3,0.5-22.2,0.5-38.7s0-28.1-0.5-39.4h45.1c0,6.1-0.4,10.7-0.7,16.7l1,0.3
		c7.5-12.8,19.5-18.9,39.7-18.9c23.9,0,33.6,7.5,36.2,20.5h1.1c7.4-15.2,21.8-20.5,40.9-20.5c27.2,0,36.5,11.5,36.5,30
		c0,11.4-0.4,17.9-0.4,26.4c0,8.5,0.1,16.3,0.6,23.7L780.5,234.6z"/>
	<path vector-effect="non-scaling-stroke" class="st1" d="M976.3,232.7c1.5,19.9-8.8,30.9-68.3,30.9c-49.9,0-72.8-12.4-72.8-43.7
		c0-30.1,24.6-40.9,74.2-40.9c52.1,0,67.4,10.8,67.4,34.3c0,4.7-0.3,9.5-0.9,14.2c-13.2-0.4-35.3-0.3-55.5-0.4
		c-15,0-29.1,0.1-38.1,0.3c2,10.7,10.2,14.4,27.2,14.4c16,0,22.2-3.3,22.6-9.2c4.8,0.4,13.3,0.5,22.6,0.5
		C962.8,233.2,970.1,233.1,976.3,232.7z M932.8,212.4c0-8.9-6.4-13-22.8-13c-18.9,0-25.9,3.2-27.7,14c15.9,0.4,33.5,0.4,50.5,0
		V212.4z"/>
	<path vector-effect="non-scaling-stroke" class="st1" d="M1007.2,155.3c6.1-14.7,19.8-20.5,36.6-20.5c6.8-0.1,13.5,0.8,20.1,2.6
		c-1.1,9.8-2.4,24.5-2.6,35.5c-6.8-2.4-14-3.5-21.2-3.3c-17.2,0-25.4,4.9-25.4,18.7c0,9.3,0.1,19.4,0.8,25.6h-51.3
		c0.4-10.9,0.5-22.2,0.5-38.9s0-28.1-0.5-39.2h43.2c-0.4,6.4-0.7,12.3-0.9,19.1L1007.2,155.3z"/>
	<path vector-effect="non-scaling-stroke" class="st1" d="M103.8,341.2v3.9c28.1,0,55,0,79-0.5c-0.3,7.1-0.3,20.9-0.3,28.3
		c-23.6,0-50.5-0.3-78.1-0.3c0.4,7.2,0.8,14.2,1.3,20.5H51.9c0.4-13,0.5-27.1,0.5-47s0-34.1-0.3-47h132.3c0,4.1-0.5,10.4-0.5,15.8
		s0,11,0.4,14.9c-28.9,0-57.1-0.3-80.6-0.3V341.2z"/>
	<path vector-effect="non-scaling-stroke" class="st1" d="M333.1,388.7c1.5,19.9-8.8,30.9-68.3,30.9c-49.9,0-72.8-12.4-72.8-43.7
		c0-30.1,24.6-40.9,74.2-40.9c52.1,0,67.4,10.8,67.4,34.3c0,4.7-0.3,9.5-0.9,14.2c-13.2-0.4-35.3-0.3-55.5-0.4
		c-15,0-29.1,0.1-38.1,0.3c2,10.7,10.2,14.4,27.2,14.4c16,0,22.2-3.3,22.6-9.2c4.8,0.4,13.3,0.5,22.6,0.5
		C319.7,389.3,326.9,389.1,333.1,388.7z M289.6,368.4c0-8.9-6.4-13-22.8-13c-18.9,0-26,3.2-27.7,14c15.9,0.4,33.5,0.4,50.5,0V368.4z
		"/>
	<path vector-effect="non-scaling-stroke" class="st1" d="M344.9,344.1c0,5.5,5.4,8,27.8,8c19.3,0,23.4-1.6,23.4-4.9
		c0-3.3-3.4-6.3-34.1-6.4c-44.1-0.6-55.9-8.4-55.9-25.3c0-18.2,15.3-26.4,65.4-26.4c47.2,0,67.4,4.8,67.4,26.4
		c0,1.1-0.1,2.2-0.3,3.2c-5.5-0.5-15-0.7-23.3-0.7c-6.4,0-12.4,0-15.8,0.2v-1.1c0-5.1-5.5-7.3-26-7.3c-19.5,0-22.8,1.5-22.8,5.1
		s2.7,5.8,35.3,6.3c45.6,0.9,54.5,7.3,54.5,24.9c0,18.9-15.3,27.1-66.7,27.1c-54.8,0-67.8-7.9-67.8-26.3c0-1.3,0-2.6,0-3.8
		c6,0.5,13.3,0.7,23.2,0.7c5.8,0,11.3,0,15.3-0.4L344.9,344.1z"/>
	<path vector-effect="non-scaling-stroke" class="st1" d="M507.8,338.1c24.6,0,49.3,0,62.3-0.1c-0.5,8-1,18.7-0.9,27.2
		c-11.2-0.3-36.7-0.6-62-0.9v10.2c0,8.5,3.4,12.4,22.3,12.4c12.8,0.3,25.6-1.2,38-4.2c1.1,10.2,2.6,20.5,4.5,30.7
		c-18.3,2.7-36.9,4-55.4,4c-46,0-56.5-14.2-56.5-32c0-4.2,0-12.3,0.2-21.4h-10.8c0-6.5,0-19.8-0.1-26l11.3,0.1
		c0-6.3,0-11.8-0.3-15.3c8.2,0,16.2,0.2,24.2,0.2c8,0,16.8,0,23.7-0.2L507.8,338.1z"/>
	<g id="i2">
		<rect x="551.8" y="282.7" vector-effect="non-scaling-stroke" class="st2" width="48.3" height="26.4"/>
		<rect x="555.8" y="278.7" vector-effect="non-scaling-stroke" class="st2" width="48.3" height="26.4"/>
		<rect x="559.8" y="274.7" vector-effect="non-scaling-stroke" class="st2" width="48.3" height="26.4"/>
		<rect x="563.8" y="270.6" vector-effect="non-scaling-stroke" class="st2" width="48.3" height="26.4"/>
		<path vector-effect="non-scaling-stroke" class="st2" d="M600.1,392.7c-0.6-12.6-0.6-22.4-0.6-39.1c0-16.2,0-25.9,0.6-38.4h-48.3
			c0.4,12.8,0.5,23,0.5,37.4c0,15.1,0.1,27.6-0.5,40.2L600.1,392.7z"/>
	</g>
	<path vector-effect="non-scaling-stroke" class="st1" d="M768.3,315.1c-11.7,19.9-36.6,64.2-43.9,78.1c-8.1-0.1-18.2-0.3-32.7-0.3
		c-16,0-29.2,0-33.9,0.3c-7.2-12.9-33.1-57.6-45.7-78.1h55.4c2,7.2,10.2,21.8,15.5,34.6c3.5,7.9,6.1,14.8,8.2,20.3h1.6
		c2-5.5,4.8-12.5,8.3-20.5c6-13.4,13.1-28.1,14.9-34.5L768.3,315.1z"/>
	<path vector-effect="non-scaling-stroke" class="st1" d="M847.9,371.4c0-11.3-3.3-14.2-22.1-14.2c-20.7,0-23.6,4.4-23.3,11.7
		c-6.7-0.6-13.4-0.8-20.1-0.6c-7.5-0.2-15,0-22.4,0.6c0.6-27.7,18.2-33.7,66.8-33.7c52,0,67.8,11.2,67.8,33.8
		c0,9.8-0.4,16.7-0.4,26.2c-0.1,7.1,0.6,14.1,2.1,21.1h-38.1c-8.6,0-9.9-0.6-9.9-9.2c0-1.5,0-3.8,0.1-6.5h-0.7
		c-5.8,12.4-21.8,18.3-45.9,18.3c-30.2,0-44.6-6.5-44.6-23.3s15.9-23.2,52.8-23.2c12.6-0.3,25.3,0.3,37.9,1.8V371.4z M847.7,384.6
		c-8.5-0.9-17.5-0.9-26.7-0.9c-13.8,0-19.5,2.6-19.5,6.9c0,4.3,5.5,6.5,20.1,6.5c15.3,0,26.2-4.5,26.2-12.1L847.7,384.6z"/>
	<path vector-effect="non-scaling-stroke" class="st1" d="M914.8,416.2c0.6-15.6,0.5-31.3,0.5-49.1c0-18.4,0-31.7-0.5-47.9h48.8
		c-0.6,15.7-0.5,28.7-0.5,49.6c0,19.1-0.1,32.3,0.5,47.4H914.8z"/>
	<path vector-effect="non-scaling-stroke" class="st1" d="M411.9,465.5c-0.3,5.1-0.3,10.2-0.3,15.7c0,5.4,0,10.8,0.3,16.3
		c-14.4-0.4-44.4-0.5-64.8-0.5c-19.2,0-49.1,0-63.6,0.5c0.3-5.5,0.4-10.5,0.4-16.3c0-5.8,0-10.5-0.4-15.7
		c14.6,0.6,44.4,0.5,63.6,0.5C367.6,466,397.2,466.1,411.9,465.5z"/>
	<path vector-effect="non-scaling-stroke" class="st1" d="M583.3,526.2c0.5-11.7,0.9-22.7,1-36.1c0-5.9,0.4-12.4,0.8-18.8l-0.9-0.3
		c-2.6,6.2-5.7,12.2-9.3,17.9l-25.6,37.2h-26.5L494.6,485c-3.4-5.7-6.4-11.6-9.2-17.7l-1,0.1c0.5,6.3,1,12.5,1.1,19.2
		c0.1,14.9,0.4,27.2,1,39.5h-43c0.7-13.5,1-27.2,1-47.1c0-20.5-0.3-34.6-0.7-46.9h67.4c5.1,9.4,12.3,21.8,21.5,37.5
		c2.6,4.6,5.5,10.2,8.4,15.8h0.1c2.7-5.6,5.5-11.2,8-15.8c8.6-14.9,16.7-28.3,21.6-37.5h60.5c-0.4,12.3-0.7,26.3-0.7,46.9
		c0,19.9,0.1,33.6,1,47.1L583.3,526.2z"/>
	<path vector-effect="non-scaling-stroke" class="st1" d="M689,532.5c0-11.3-3.3-14.2-22.1-14.2c-20.7,0-23.6,4.4-23.3,11.7
		c-6.7-0.6-13.4-0.8-20.1-0.6c-7.5-0.2-15,0-22.4,0.6c0.6-27.7,18.2-33.7,66.8-33.7c52,0,67.8,11.2,67.8,33.8
		c0,9.8-0.4,16.7-0.4,26.2c-0.1,7.1,0.6,14.1,2.1,21h-38.1c-8.6,0-9.9-0.6-9.9-9.2c0-1.5,0-3.8,0.1-6.5h-0.7
		c-5.8,12.4-21.8,18.3-45.9,18.3c-30.2,0-44.6-6.5-44.6-23.3s15.9-23.2,52.8-23.2c12.6-0.3,25.3,0.3,37.9,1.8L689,532.5z M689,545.8
		c-8.5-0.9-17.5-0.9-26.7-0.9c-13.8,0-19.5,2.6-19.5,6.9s5.5,6.5,20.1,6.5c15.3,0,26.2-4.5,26.2-12.1V545.8z"/>
	<g id="i3">
		<path vector-effect="non-scaling-stroke" class="st2" d="M795.4,576.8c-0.6-12.6-0.6-22.4-0.6-39.1c0-16.2,0-25.9,0.6-38.4h-48.3
			c0.4,12.8,0.5,23,0.5,37.4c0,15.1,0.1,27.6-0.5,40.2L795.4,576.8z"/>
		<rect x="747.2" y="466.7" vector-effect="non-scaling-stroke" class="st2" width="48.3" height="26.4"/>
		<rect x="743.2" y="462.7" vector-effect="non-scaling-stroke" class="st2" width="48.3" height="26.4"/>
		<rect x="739.2" y="458.7" vector-effect="non-scaling-stroke" class="st2" width="48.3" height="26.4"/>
		<rect x="735.2" y="454.7" vector-effect="non-scaling-stroke" class="st2" width="48.3" height="26.4"/>
	</g>
	<path vector-effect="non-scaling-stroke" class="st1" d="M901.7,526.2c0.4-7.5,0.5-19.4,0.5-32.3c0-13.7-5.4-18.4-21.2-18.4
		c-14.3,0-25.2,5.9-25.2,21.2c0,16.4,0.1,23.6,0.3,29.6h-49.7c0.5-11,0.6-20.2,0.6-38.6c0-16.7-0.2-28.1-0.6-39.5h49.1
		c0,7.3,0,12.7-0.5,19.8h0.7c6.9-15.7,22.3-22.4,48.3-22.4c28.9,0,47.1,10.2,47.1,36.3c0,8.6-0.3,13.8-0.3,19.9
		c0,8.9,0,16.7,0.6,24.5L901.7,526.2z"/>
	<path vector-effect="non-scaling-stroke" class="st1" d="M934.5,544.1c0.4-4,0.4-8.3,0.4-11.8c0-4.6,0-10.2-0.2-12.8
		c12.8-5.2,26.3-12.5,41.7-19.4c7-3.1,14.7-6.3,21.8-8.9l-0.1-0.5c-8,0.6-16.4,0.9-26.1,0.9c-18.8,0-27.7,0-37.2,0.1
		c0.3-3.5,0.3-10.8,0.3-14s0-7.7-0.3-11.7h128.7c0,4-0.2,7.5-0.2,10.9c0,3.9,0,11.3,0.4,14.4c-11.5,4.6-25.6,10.6-40.9,18.4
		c-7.5,3.5-15.2,6.5-23,9v0.6c9.9-0.4,19.4-0.6,28.1-0.6c17.3,0,26.2,0,36-0.4c-0.1,3.1-0.3,10.4-0.3,13.8s0.3,7.3,0.5,11.9
		L934.5,544.1z"/>
</g>
</svg>
