<?xml version="1.0" encoding="utf-8"?>
<!-- Generator: Adobe Illustrator 26.0.2, SVG Export Plug-In . SVG Version: 6.00 Build 0)  -->
<svg version="1.1" id="Ebene_1" xmlns="http://www.w3.org/2000/svg" xmlns:xlink="http://www.w3.org/1999/xlink" x="0px" y="0px"
	 viewBox="0 0 404.8 229.9" style="enable-background:new 0 0 404.8 229.9;" xml:space="preserve">
<style type="text/css">
	.st0{fill:#F9D1E4;}
	.st1{fill:#FFFFFF;stroke:#1D1D1B;stroke-width:0.5;stroke-miterlimit:23.7;}
	.st2{fill:#FFFFFF;stroke:#1D1D1B;stroke-width:0.5;stroke-miterlimit:10;}
</style>
<g id="Background" shape-rendering="crispEdges">
	<rect x="115.4" y="27" class="st0" width="49.6" height="27.2"/>
	<rect x="226.8" y="66.4" class="st0" width="49.6" height="27.2"/>
	<rect x="226.8" y="66.4" class="st0" width="49.6" height="27.2"/>
	<rect x="226.8" y="66.4" class="st0" width="49.6" height="27.2"/>
	<rect x="135.7" y="76.6" class="st0" width="49.6" height="27.2"/>
	<rect x="331.4" y="45.8" class="st0" width="49.6" height="27.2"/>
	<rect x="317.1" y="62.4" class="st0" width="49.6" height="27.2"/>
	<rect x="268" y="65.5" class="st0" width="49.6" height="27.2"/>
	<rect x="218.4" y="51.9" class="st0" width="49.6" height="27.2"/>
	<rect x="254" y="47.1" class="st0" width="49.6" height="27.2"/>
	<rect x="253.5" y="55.6" class="st0" width="49.6" height="27.2"/>
	<rect x="134.2" y="66.4" class="st0" width="49.6" height="27.2"/>
	<rect x="140.2" y="43.4" class="st0" width="49.6" height="27.2"/>
	<rect x="163.8" y="35.6" class="st0" width="49.6" height="27.2"/>
	<rect x="188" y="25.2" class="st0" width="49.6" height="27.2"/>
	<rect x="181.7" y="25.2" class="st0" width="49.6" height="27.2"/>
	<rect x="175.5" y="25.2" class="st0" width="49.6" height="27.2"/>
	<rect x="130.8" y="13.6" class="st0" width="49.6" height="27.2"/>
	<rect x="122.8" y="48.1" class="st0" width="49.6" height="27.2"/>
	<rect x="37.4" y="13.4" class="st0" width="49.6" height="27.2"/>
	<rect x="23.6" y="29.8" class="st0" width="49.6" height="27.2"/>
	<rect x="63.6" y="35.6" class="st0" width="49.6" height="27.2"/>
	<rect x="69.6" y="13.6" class="st0" width="49.6" height="27.2"/>
	<rect x="103.5" y="13.4" class="st0" width="49.6" height="27.2"/>
	<rect x="94.4" y="38.4" class="st0" width="49.6" height="27.2"/>
	<rect x="97.9" y="59.1" class="st0" width="49.6" height="27.2"/>
	<rect x="80.1" y="80" class="st0" width="49.6" height="27.2"/>
	<rect x="59.6" y="53.1" class="st0" width="49.6" height="27.2"/>
	<rect x="47.9" y="76.7" class="st0" width="49.6" height="27.2"/>
	<rect x="115.4" y="106.3" class="st0" width="49.6" height="27.2"/>
	<rect x="223.4" y="118.3" class="st0" width="49.6" height="27.2"/>
	<rect x="223.4" y="118.3" class="st0" width="49.6" height="27.2"/>
	<rect x="223.4" y="118.3" class="st0" width="49.6" height="27.2"/>
	<rect x="132.3" y="128.4" class="st0" width="49.6" height="27.2"/>
	<rect x="299.9" y="84.4" class="st0" width="49.6" height="27.2"/>
	<rect x="317.6" y="103.7" class="st0" width="49.6" height="27.2"/>
	<rect x="264.6" y="117.4" class="st0" width="49.6" height="27.2"/>
	<rect x="228.8" y="90.1" class="st0" width="49.6" height="27.2"/>
	<rect x="130.8" y="118.3" class="st0" width="49.6" height="27.2"/>
	<rect x="175.8" y="97.7" class="st0" width="49.6" height="27.2"/>
	<rect x="136.8" y="95.3" class="st0" width="49.6" height="27.2"/>
	<rect x="196" y="84.1" class="st0" width="49.6" height="27.2"/>
	<rect x="177.1" y="70.8" class="st0" width="49.6" height="27.2"/>
	<rect x="130.8" y="97.9" class="st0" width="49.6" height="27.2"/>
	<rect x="31.6" y="125" class="st0" width="49.6" height="27.2"/>
	<rect x="55.3" y="117.6" class="st0" width="49.6" height="27.2"/>
	<rect x="35.1" y="103.2" class="st0" width="49.6" height="27.2"/>
	<rect x="23.6" y="102.8" class="st0" width="49.6" height="27.2"/>
	<rect x="38.6" y="106.2" class="st0" width="49.6" height="27.2"/>
	<rect x="160.1" y="129" class="st0" width="49.6" height="27.2"/>
	<rect x="129.8" y="163.8" class="st0" width="49.6" height="27.2"/>
	<rect x="163.3" y="168.8" class="st0" width="49.6" height="27.2"/>
	<rect x="248.2" y="176.1" class="st0" width="49.6" height="27.2"/>
	<rect x="221.7" y="180.3" class="st0" width="49.6" height="27.2"/>
	<rect x="239.8" y="164.1" class="st0" width="49.6" height="27.2"/>
	<rect x="198.6" y="132.1" class="st0" width="49.6" height="27.2"/>
	<rect x="297.8" y="129" class="st0" width="49.6" height="27.2"/>
	<rect x="317.6" y="153.1" class="st0" width="49.6" height="27.2"/>
	<rect x="305.6" y="180.9" class="st0" width="49.6" height="27.2"/>
	<rect x="253.6" y="147.9" class="st0" width="49.6" height="27.2"/>
	<rect x="190.4" y="125.8" class="st0" width="49.6" height="27.2"/>
	<rect x="202.9" y="189.4" class="st0" width="49.6" height="27.2"/>
	<rect x="251" y="183" class="st0" width="49.6" height="27.2"/>
	<rect x="200.6" y="155.5" class="st0" width="49.6" height="27.2"/>
	<rect x="161.7" y="153.1" class="st0" width="49.6" height="27.2"/>
	<rect x="220.9" y="141.9" class="st0" width="49.6" height="27.2"/>
	<rect x="226.9" y="109.3" class="st0" width="49.6" height="27.2"/>
	<rect x="202.4" y="111.3" class="st0" width="49.6" height="27.2"/>
	<rect x="264.6" y="91.2" class="st0" width="49.6" height="27.2"/>
	<rect x="286.7" y="111.3" class="st0" width="49.6" height="27.2"/>
	<rect x="264.6" y="129" class="st0" width="49.6" height="27.2"/>
	<rect x="283.1" y="152.1" class="st0" width="49.6" height="27.2"/>
	<rect x="281.9" y="169.4" class="st0" width="49.6" height="27.2"/>
	<rect x="164.8" y="113.2" class="st0" width="49.6" height="27.2"/>
	<rect x="207.4" y="169.3" class="st0" width="49.6" height="27.2"/>
	<rect x="136.8" y="150.5" class="st0" width="49.6" height="27.2"/>
	<rect x="331.6" y="172.8" class="st0" width="49.6" height="27.2"/>
	<rect x="172.3" y="49.9" class="st0" width="49.6" height="27.2"/>
	<rect x="146.4" y="35.8" class="st0" width="49.6" height="27.2"/>
	<rect x="78.7" y="91.2" class="st0" width="49.6" height="27.2"/>
	<rect x="110.9" y="81.7" class="st0" width="49.6" height="27.2"/>
	<rect x="83.1" y="109.4" class="st0" width="49.6" height="27.2"/>
	<rect x="78.7" y="132.1" class="st0" width="49.6" height="27.2"/>
	<rect x="114.5" y="131.2" class="st0" width="49.6" height="27.2"/>
	<rect x="90.6" y="155.7" class="st0" width="49.6" height="27.2"/>
</g>
<g id="text" shape-rendering="geometricPrecision">
	<path vector-effect="non-scaling-stroke" class="st1" d="M46,32.1v1.3c9.7,0,19,0,27.3-0.2c-0.1,2.5-0.1,7.2-0.1,9.8
		c-8.1,0-17.4-0.1-27-0.1c0.1,2.5,0.3,4.9,0.4,7.1H28.1c0.1-4.5,0.2-9.3,0.2-16.2s0-11.8-0.1-16.2h45.7c0,1.4-0.2,3.6-0.2,5.5
		s0,3.8,0.1,5.2c-10,0-19.7-0.1-27.8-0.1V32.1z"/>
	<g id="i1">
		<path vector-effect="non-scaling-stroke" class="st2" d="M97.6,59.6c-0.2-4.3-0.2-7.7-0.2-13.5c0-5.6,0-8.9,0.2-13.3H80.9
			c0.1,4.4,0.2,8,0.2,12.9c0,5.2,0,9.6-0.2,13.9L97.6,59.6z"/>
		<rect x="80.9" y="21.6" vector-effect="non-scaling-stroke" class="st2" width="16.7" height="9.1"/>
		<rect x="79.5" y="20.2" vector-effect="non-scaling-stroke" class="st2" width="16.7" height="9.1"/>
		<rect x="78.1" y="18.8" vector-effect="non-scaling-stroke" class="st2" width="16.7" height="9.1"/>
		<rect x="76.7" y="17.4" vector-effect="non-scaling-stroke" class="st2" width="16.7" height="9.1"/>
	</g>
	<path vector-effect="non-scaling-stroke" class="st1" d="M100.9,50.1c0.2-5.4,0.2-10.8,0.2-17c0-6.4,0-10.9-0.2-16.5h16.8
		c-0.2,5.4-0.2,9.9-0.2,17.1c0,6.6,0,11.2,0.2,16.4L100.9,50.1z"/>
	<path vector-effect="non-scaling-stroke" class="st1" d="M176.6,50.1c0.2-3.6,0.2-8,0.2-13c0-3-1.8-4.5-5.4-4.5s-6.8,1.5-6.8,6.4
		s0,8.4,0.2,11h-14.9c0.1-3.5,0.2-7.5,0.2-13.1c0-2.7-1.6-4.3-5.4-4.3c-3.7,0-6.8,1.5-6.8,6.4c0,5.7,0,8.8,0.1,11h-15.4
		c0.2-3.9,0.2-7.7,0.2-13.4s0-9.7-0.2-13.6h15.6c0,2.1-0.1,3.7-0.3,5.8l0.3,0.1c2.6-4.4,6.8-6.5,13.7-6.5c8.3,0,11.6,2.6,12.5,7.1
		l0.4,0c2.6-5.2,7.5-7.1,14.1-7.1c9.4,0,12.6,4,12.6,10.3c0,3.9-0.1,6.2-0.1,9.1s0,5.6,0.2,8.2L176.6,50.1z"/>
	<path vector-effect="non-scaling-stroke" class="st1" d="M226.9,29.1c-0.1,1.8-0.1,3.5-0.1,5.4s0,3.7,0.1,5.6
		c-3.5-0.1-10.7-0.2-15.5-0.2c-4.7,0-11.9,0-15.4,0.2c0.1-1.9,0.1-3.6,0.1-5.6s0-3.6-0.1-5.4c3.5,0.2,10.7,0.2,15.4,0.2
		C216.2,29.3,223.3,29.3,226.9,29.1z"/>
	<path vector-effect="non-scaling-stroke" class="st1" d="M74.9,87c0,1.9,1.9,2.8,9.6,2.8c6.7,0,8.1-0.6,8.1-1.7s-1.2-2.2-11.8-2.2
		c-15.2-0.2-19.3-2.9-19.3-8.7c0-6.3,5.3-9.1,22.6-9.1c16.3,0,23.3,1.6,23.3,9.1c0,0.4,0,0.7-0.1,1.1c-1.9-0.2-5.2-0.3-8-0.3
		c-2.2,0-4.3,0-5.5,0.1v-0.4c0-1.8-1.9-2.5-9-2.5c-6.7,0-7.9,0.5-7.9,1.8s1,2,12.2,2.2c15.8,0.3,18.8,2.5,18.8,8.6
		c0,6.5-5.3,9.3-23,9.3c-18.9,0-23.4-2.7-23.4-9.1c0-0.4,0-0.9,0-1.3c2.1,0.2,4.6,0.3,8,0.3c2,0,3.9,0,5.3-0.1L74.9,87z"/>
	<path vector-effect="non-scaling-stroke" class="st1" d="M136,88.3c-16.9,0-25.6-4.5-25.6-15.1c0-10.9,9.6-14.1,25.7-14.1
		s26,3.2,26,14.1C162,83.8,153,88.3,136,88.3z M136.1,67.6c-5.9,0-9.6,1.5-9.6,5.7c0,4.2,3.7,5.8,9.6,5.8c5.9,0,9.7-1.8,9.7-5.8
		S142.1,67.6,136.1,67.6z"/>
	<path vector-effect="non-scaling-stroke" class="st1" d="M219.3,96c0.2-3.6,0.2-8,0.2-13c0-3-1.8-4.4-5.4-4.4s-6.8,1.5-6.8,6.4
		c0,4.9,0,8.4,0.2,11h-14.9c0.1-3.5,0.2-7.5,0.2-13.1c0-2.7-1.6-4.3-5.4-4.3s-6.8,1.5-6.8,6.4c0,5.7,0,8.8,0.1,11h-15.4
		c0.2-3.9,0.2-7.7,0.2-13.4s0-9.7-0.2-13.6h15.6c0,2.1-0.1,3.7-0.3,5.8l0.4,0.1c2.6-4.4,6.7-6.5,13.7-6.5c8.3,0,11.6,2.6,12.5,7.1
		h0.4c2.6-5.2,7.5-7.1,14.1-7.1c9.4,0,12.6,4,12.6,10.3c0,3.9-0.1,6.2-0.1,9.1c0,3,0,5.6,0.2,8.2L219.3,96z"/>
	<path vector-effect="non-scaling-stroke" class="st1" d="M279.8,87.2c0.2-3.6,0.2-8,0.2-13c0-3-1.8-4.4-5.4-4.4
		c-3.6,0-6.8,1.5-6.8,6.4c0,4.9,0,8.4,0.2,11H253c0.1-3.5,0.2-7.5,0.2-13.1c0-2.7-1.6-4.3-5.4-4.3s-6.8,1.5-6.8,6.4
		c0,5.7,0,8.8,0.1,11h-15.4c0.2-3.9,0.2-7.7,0.2-13.4s0-9.7-0.2-13.6h15.6c0,2.1-0.1,3.7-0.3,5.8l0.3,0.1c2.6-4.4,6.7-6.5,13.7-6.5
		c8.3,0,11.6,2.6,12.5,7.1h0.4c2.6-5.2,7.5-7.1,14.1-7.1c9.4,0,12.6,4,12.6,10.3c0,3.9-0.1,6.2-0.1,9.1c0,3,0,5.6,0.2,8.2
		L279.8,87.2z"/>
	<path vector-effect="non-scaling-stroke" class="st1" d="M347.4,86.5c0.5,6.9-3,10.7-23.6,10.7c-17.2,0-25.1-4.3-25.1-15.1
		c0-10.4,8.5-14.1,25.6-14.1c18,0,23.3,3.7,23.3,11.9c0,1.6-0.1,3.3-0.3,4.9c-4.6-0.1-12.2-0.1-19.2-0.1c-5.2,0-10,0-13.2,0.1
		c0.7,3.7,3.5,5,9.4,5c5.5,0,7.7-1.1,7.8-3.2c1.6,0.1,4.6,0.2,7.8,0.2C342.7,86.7,345.3,86.7,347.4,86.5z M332.4,79.5
		c0-3.1-2.2-4.5-7.9-4.5c-6.5,0-9,1.1-9.6,4.8c5.5,0.1,11.6,0.1,17.4,0V79.5z"/>
	<path vector-effect="non-scaling-stroke" class="st1" d="M358.1,59.8c2.1-5.1,6.8-7.1,12.6-7.1c2.3,0,4.7,0.3,6.9,0.9
		c-0.4,3.4-0.8,8.4-0.9,12.3c-2.3-0.8-4.8-1.2-7.3-1.1c-5.9,0-8.8,1.7-8.8,6.4c0,3.2,0,6.7,0.3,8.8h-17.7c0.1-3.8,0.2-7.7,0.2-13.4
		s0-9.7-0.2-13.6h14.9c-0.1,2.2-0.3,4.2-0.3,6.6L358.1,59.8z"/>
	<path vector-effect="non-scaling-stroke" class="st1" d="M46,124v1.3c9.7,0,19,0,27.3-0.2c-0.1,2.5-0.1,7.2-0.1,9.8
		c-8.1,0-17.4-0.1-27-0.1c0.1,2.5,0.3,4.9,0.4,7.1H28.1c0.1-4.5,0.2-9.3,0.2-16.2s0-11.8-0.1-16.2h45.7c0,1.4-0.2,3.6-0.2,5.5
		c0,1.9,0,3.8,0.1,5.2c-10,0-19.7-0.1-27.8-0.1V124z"/>
	<path vector-effect="non-scaling-stroke" class="st1" d="M125.2,140.4c0.5,6.9-3,10.7-23.6,10.7c-17.2,0-25.1-4.3-25.1-15.1
		c0-10.4,8.5-14.1,25.6-14.1c18,0,23.3,3.7,23.3,11.9c0,1.6-0.1,3.3-0.3,4.9c-4.6-0.1-12.2-0.1-19.2-0.1c-5.2,0-10,0-13.2,0.1
		c0.7,3.7,3.5,5,9.4,5c5.5,0,7.7-1.1,7.8-3.2c1.6,0.1,4.6,0.2,7.8,0.2C120.6,140.6,123.1,140.6,125.2,140.4z M110.2,133.4
		c0-3.1-2.2-4.5-7.9-4.5c-6.5,0-9,1.1-9.6,4.8c5.5,0.1,11.6,0.1,17.4,0L110.2,133.4z"/>
	<path vector-effect="non-scaling-stroke" class="st1" d="M129.3,125c0,1.9,1.9,2.8,9.6,2.8c6.7,0,8.1-0.6,8.1-1.7
		c0-1.1-1.2-2.2-11.8-2.2c-15.2-0.2-19.3-2.9-19.3-8.7c0-6.3,5.3-9.1,22.6-9.1c16.3,0,23.3,1.6,23.3,9.1c0,0.4,0,0.7-0.1,1.1
		c-1.9-0.2-5.2-0.3-8-0.3c-2.2,0-4.3,0-5.5,0.1v-0.4c0-1.8-1.9-2.5-9-2.5c-6.7,0-7.9,0.5-7.9,1.8s0.9,2,12.2,2.2
		c15.8,0.3,18.8,2.5,18.8,8.6c0,6.5-5.3,9.3-23,9.3c-18.9,0-23.4-2.7-23.4-9.1c0-0.4,0-0.9,0-1.3c2.1,0.2,4.6,0.3,8,0.3
		c2,0,3.9,0,5.3-0.1L129.3,125z"/>
	<path vector-effect="non-scaling-stroke" class="st1" d="M185.6,122.9c8.5,0,17,0,21.5,0c-0.2,2.8-0.3,6.5-0.3,9.4
		c-3.9-0.1-12.7-0.2-21.4-0.3v3.5c0,2.9,1.2,4.3,7.7,4.3c4.4,0.1,8.8-0.4,13.1-1.5c0.4,3.5,0.9,7.1,1.6,10.6
		c-6.3,0.9-12.7,1.4-19.1,1.4c-15.9,0-19.5-4.9-19.5-11c0-1.5,0-4.2,0.1-7.4h-3.7c0-2.3,0-6.8,0-9l3.9,0c0-2.2,0-4.1-0.1-5.3
		c2.8,0,5.6,0.1,8.4,0.1s5.8,0,8.2-0.1L185.6,122.9z"/>
	<g id="i2">
		<rect x="200.8" y="103.8" vector-effect="non-scaling-stroke" class="st2" width="16.7" height="9.1"/>
		<rect x="202.1" y="102.4" vector-effect="non-scaling-stroke" class="st2" width="16.7" height="9.1"/>
		<rect x="203.5" y="101" vector-effect="non-scaling-stroke" class="st2" width="16.7" height="9.1"/>
		<rect x="204.9" y="99.6" vector-effect="non-scaling-stroke" class="st2" width="16.7" height="9.1"/>
		<path vector-effect="non-scaling-stroke" class="st2" d="M217.5,141.8c-0.2-4.3-0.2-7.7-0.2-13.5c0-5.6,0-8.9,0.2-13.3h-16.7
			c0.1,4.4,0.2,8,0.2,12.9c0,5.2,0,9.6-0.2,13.9L217.5,141.8z"/>
	</g>
	<path vector-effect="non-scaling-stroke" class="st1" d="M275.5,115c-4,6.9-12.6,22.2-15.2,27c-2.8,0-6.3-0.1-11.3-0.1
		c-5.5,0-10.1,0-11.7,0.1c-2.5-4.5-11.4-19.9-15.8-27h19.1c0.7,2.5,3.5,7.5,5.4,12c1.2,2.7,2.1,5.1,2.8,7h0.6
		c0.7-1.9,1.7-4.3,2.9-7.1c2.1-4.6,4.5-9.7,5.2-11.9L275.5,115z"/>
	<path vector-effect="non-scaling-stroke" class="st1" d="M303,134.4c0-3.9-1.1-4.9-7.6-4.9c-7.1,0-8.1,1.5-8,4
		c-2.3-0.2-4.6-0.3-6.9-0.2c-2.6-0.1-5.2,0-7.7,0.2c0.2-9.6,6.3-11.6,23.1-11.6c18,0,23.4,3.9,23.4,11.7c0,3.4-0.1,5.8-0.1,9
		c0,2.4,0.2,4.9,0.7,7.3h-13.2c-3,0-3.4-0.2-3.4-3.2c0-0.5,0-1.3,0-2.3H303c-2,4.3-7.5,6.3-15.9,6.3c-10.4,0-15.4-2.3-15.4-8.1
		s5.5-8,18.2-8c4.4-0.1,8.7,0.1,13.1,0.6V134.4z M303,139c-2.9-0.3-6.1-0.3-9.2-0.3c-4.8,0-6.7,0.9-6.7,2.4c0,1.5,1.9,2.3,6.9,2.3
		c5.3,0,9-1.6,9-4.2L303,139z"/>
	<path vector-effect="non-scaling-stroke" class="st1" d="M326.1,149.9c0.2-5.4,0.2-10.8,0.2-17c0-6.4,0-10.9-0.2-16.5H343
		c-0.2,5.4-0.2,9.9-0.2,17.1c0,6.6,0,11.2,0.2,16.4H326.1z"/>
	<path vector-effect="non-scaling-stroke" class="st1" d="M152.4,166.9c-0.1,1.8-0.1,3.5-0.1,5.4s0,3.7,0.1,5.6
		c-5-0.1-15.3-0.2-22.4-0.2c-6.6,0-17,0-22,0.2c0.1-1.9,0.1-3.6,0.1-5.6s0-3.6-0.1-5.4c5,0.2,15.3,0.2,22,0.2
		C137.1,167.1,147.4,167.2,152.4,166.9z"/>
	<path vector-effect="non-scaling-stroke" class="st1" d="M211.6,187.9c0.2-4,0.3-7.8,0.3-12.5c0-2,0.1-4.3,0.3-6.5l-0.3-0.1
		c-0.9,2.1-2,4.2-3.2,6.2l-8.8,12.9h-9.2l-9.7-14.2c-1.2-2-2.2-4-3.2-6.1l-0.3,0c0.2,2.2,0.3,4.3,0.4,6.6c0,5.2,0.1,9.4,0.3,13.6
		h-14.9c0.3-4.7,0.3-9.4,0.3-16.3c0-7.1-0.1-12-0.3-16.2h23.3c1.8,3.3,4.2,7.5,7.4,12.9c0.9,1.6,1.9,3.5,2.9,5.5h0
		c0.9-1.9,1.9-3.9,2.8-5.5c3-5.2,5.8-9.8,7.4-12.9h20.9c-0.1,4.2-0.3,9.1-0.3,16.2c0,6.9,0,11.6,0.3,16.3L211.6,187.9z"/>
	<path vector-effect="non-scaling-stroke" class="st1" d="M248.2,190.1c0-3.9-1.1-4.9-7.6-4.9c-7.1,0-8.1,1.5-8,4
		c-2.3-0.2-4.6-0.3-6.9-0.2c-2.6-0.1-5.2,0-7.7,0.2c0.2-9.6,6.3-11.6,23.1-11.6c18,0,23.4,3.9,23.4,11.7c0,3.4-0.1,5.8-0.1,9
		c0,2.4,0.2,4.9,0.7,7.3h-13.2c-3,0-3.4-0.2-3.4-3.2c0-0.5,0-1.3,0-2.3h-0.3c-2,4.3-7.5,6.3-15.9,6.3c-10.4,0-15.4-2.3-15.4-8.1
		c0-5.8,5.5-8,18.2-8c4.4-0.1,8.7,0.1,13.1,0.6V190.1z M248.2,194.7c-3-0.3-6.1-0.3-9.2-0.3c-4.8,0-6.7,0.9-6.7,2.4
		c0,1.5,1.9,2.3,6.9,2.3c5.3,0,9-1.6,9-4.2V194.7z"/>
	<g id="i3">
		<path vector-effect="non-scaling-stroke" class="st2" d="M284.9,205.4c-0.2-4.3-0.2-7.7-0.2-13.5c0-5.6,0-8.9,0.2-13.3h-16.7
			c0.1,4.4,0.2,8,0.2,12.9c0,5.2,0,9.6-0.2,13.9L284.9,205.4z"/>
		<rect x="268.2" y="167.4" vector-effect="non-scaling-stroke" class="st2" width="16.7" height="9.1"/>
		<rect x="266.9" y="166" vector-effect="non-scaling-stroke" class="st2" width="16.7" height="9.1"/>
		<rect x="265.5" y="164.6" vector-effect="non-scaling-stroke" class="st2" width="16.7" height="9.1"/>
		<rect x="264.1" y="163.2" vector-effect="non-scaling-stroke" class="st2" width="16.7" height="9.1"/>
	</g>
	<path vector-effect="non-scaling-stroke" class="st1" d="M321.6,187.9c0.1-2.6,0.2-6.7,0.2-11.2c0-4.7-1.9-6.4-7.3-6.4
		c-4.9,0-8.7,2-8.7,7.3c0,5.7,0,8.1,0.1,10.2h-17.2c0.2-3.8,0.2-7,0.2-13.3c0-5.8-0.1-9.7-0.2-13.6h17c0,2.5,0,4.4-0.2,6.8h0.3
		c2.4-5.4,7.7-7.7,16.7-7.7c10,0,16.3,3.5,16.3,12.5c0,3-0.1,4.8-0.1,6.9c0,3.1,0,5.8,0.2,8.4L321.6,187.9z"/>
	<path vector-effect="non-scaling-stroke" class="st1" d="M332.9,194.1c0.1-1.4,0.1-2.9,0.1-4.1c0-1.6,0-3.5-0.1-4.4
		c4.4-1.8,9.1-4.3,14.4-6.7c2.4-1.1,5.1-2.2,7.5-3.1l0-0.2c-2.8,0.2-5.7,0.3-9,0.3c-6.5,0-9.6,0-12.9,0c0.1-1.2,0.1-3.7,0.1-4.9
		s0-2.7-0.1-4h44.5c0,1.4-0.1,2.6-0.1,3.8c0,1.3,0,3.9,0.1,5c-4,1.6-8.8,3.7-14.1,6.4c-2.6,1.2-5.2,2.2-8,3.1v0.2
		c3.4-0.1,6.7-0.2,9.7-0.2c6,0,9,0,12.4-0.1c0,1.1-0.1,3.6-0.1,4.8c0,1.2,0.1,2.5,0.2,4.1L332.9,194.1z"/>
</g>
</svg>
