<svg id="Ebene_1" data-name="Ebene 1" xmlns="http://www.w3.org/2000/svg"
     xmlns:xlink="http://www.w3.org/1999/xlink" viewBox="0 0 404.83 229.93">
  <defs>
    <style>
      .cls-1,.cls-5,.cls-6,.cls-7{fill:none;}.cls-2{fill:#f9d1e4;}.cls-3{clip-path:url(#clip-path);}.cls-4{fill:#fff;}.cls-5,.cls-6,.cls-7{stroke:#1d1d1b;stroke-width:0.38px;}.cls-5{stroke-miterlimit:23.7;}.cls-6{stroke-miterlimit:52.71;}.cls-7{stroke-miterlimit:47.72;}.cls-8{clip-path:url(#clip-path-2);}
    </style>
    <clipPath id="clip-path" transform="translate(-0.9)">
      <rect class="cls-1" x="3.95" y="3.33" width="396.08" height="215.34"/>
    </clipPath>
    <clipPath id="clip-path-2" transform="translate(-0.9)">
      <rect class="cls-1" x="9.95" y="5.33" width="396.08" height="215.34"/>
    </clipPath>
  </defs>
  <rect class="cls-2" x="103.95" y="15.38" width="56.16" height="30.75"/>
  <rect class="cls-2" x="229.97" y="60.03" width="56.16" height="30.75"/>
  <rect class="cls-2" x="229.97" y="60.03" width="56.16" height="30.75"/>
  <rect class="cls-2" x="229.97" y="60.03" width="56.16" height="30.75"/>
  <rect class="cls-2" x="126.87" y="71.5" width="56.16" height="30.75"/>
  <rect class="cls-2" x="348.42" y="36.69" width="56.16" height="30.75"/>
  <rect class="cls-2" x="332.22" y="55.46" width="56.16" height="30.75"/>
  <rect class="cls-2" x="276.68" y="59.01" width="56.16" height="30.75"/>
  <rect class="cls-2" x="220.51" y="43.63" width="56.16" height="30.75"/>
  <rect class="cls-2" x="260.79" y="38.17" width="56.16" height="30.75"/>
  <rect class="cls-2" x="260.22" y="47.81" width="56.16" height="30.75"/>
  <rect class="cls-2" x="125.15" y="60.03" width="56.16" height="30.75"/>
  <rect class="cls-2" x="132.03" y="33.97" width="56.16" height="30.75"/>
  <rect class="cls-2" x="158.74" y="25.13" width="56.16" height="30.75"/>
  <rect class="cls-2" x="186.09" y="13.37" width="56.16" height="30.75"/>
  <rect class="cls-2" x="179.01" y="13.37" width="56.16" height="30.75"/>
  <rect class="cls-2" x="171.92" y="13.37" width="56.16" height="30.75"/>
  <rect class="cls-2" x="121.36" y="0.25" width="56.16" height="30.75"/>
  <rect class="cls-2" x="112.25" y="39.3" width="56.16" height="30.75"/>
  <rect class="cls-2" x="15.59" width="56.16" height="30.75"/>
  <rect class="cls-2" y="18.61" width="56.16" height="30.75"/>
  <rect class="cls-2" x="45.35" y="25.13" width="56.16" height="30.75"/>
  <rect class="cls-2" x="52.06" y="0.25" width="56.16" height="30.75"/>
  <rect class="cls-2" x="90.44" width="56.16" height="30.75"/>
  <rect class="cls-2" x="80.14" y="28.25" width="56.16" height="30.75"/>
  <rect class="cls-2" x="84.17" y="51.72" width="56.16" height="30.75"/>
  <rect class="cls-2" x="63.95" y="75.4" width="56.16" height="30.75"/>
  <rect class="cls-2" x="40.82" y="44.97" width="56.16" height="30.75"/>
  <rect class="cls-2" x="27.5" y="71.62" width="56.16" height="30.75"/>
  <rect class="cls-2" x="103.95" y="105.13" width="56.16" height="30.75"/>
  <rect class="cls-2" x="226.14" y="118.75" width="56.16" height="30.75"/>
  <rect class="cls-2" x="226.14" y="118.75" width="56.16" height="30.75"/>
  <rect class="cls-2" x="226.14" y="118.75" width="56.16" height="30.75"/>
  <rect class="cls-2" x="123.04" y="130.22" width="56.16" height="30.75"/>
  <rect class="cls-2" x="312.72" y="80.32" width="56.16" height="30.75"/>
  <rect class="cls-2" x="332.82" y="102.25" width="56.16" height="30.75"/>
  <rect class="cls-2" x="272.85" y="117.73" width="56.16" height="30.75"/>
  <rect class="cls-2" x="232.24" y="86.87" width="56.16" height="30.75"/>
  <rect class="cls-2" x="121.32" y="118.75" width="56.16" height="30.75"/>
  <rect class="cls-2" x="172.25" y="95.42" width="56.16" height="30.75"/>
  <rect class="cls-2" x="128.2" y="92.7" width="56.16" height="30.75"/>
  <rect class="cls-2" x="195.21" y="80.04" width="56.16" height="30.75"/>
  <rect class="cls-2" x="173.8" y="64.94" width="56.16" height="30.75"/>
  <rect class="cls-2" x="121.32" y="95.7" width="56.16" height="30.75"/>
  <rect class="cls-2" x="9.07" y="126.33" width="56.16" height="30.75"/>
  <rect class="cls-2" x="35.87" y="117.93" width="56.16" height="30.75"/>
  <rect class="cls-2" x="13.04" y="101.66" width="56.16" height="30.75"/>
  <rect class="cls-2" y="101.24" width="56.16" height="30.75"/>
  <rect class="cls-2" x="17.01" y="105.07" width="56.16" height="30.75"/>
  <rect class="cls-2" x="154.57" y="130.84" width="56.16" height="30.75"/>
  <rect class="cls-2" x="120.19" y="170.26" width="56.16" height="30.75"/>
  <rect class="cls-2" x="158.17" y="175.93" width="56.16" height="30.75"/>
  <rect class="cls-2" x="254.22" y="184.16" width="56.16" height="30.75"/>
  <rect class="cls-2" x="224.3" y="188.86" width="56.16" height="30.75"/>
  <rect class="cls-2" x="244.77" y="170.54" width="56.16" height="30.75"/>
  <rect class="cls-2" x="198.06" y="134.41" width="56.16" height="30.75"/>
  <rect class="cls-2" x="310.39" y="130.84" width="56.16" height="30.75"/>
  <rect class="cls-2" x="332.84" y="158.11" width="56.16" height="30.75"/>
  <rect class="cls-2" x="319.18" y="189.54" width="56.16" height="30.75"/>
  <rect class="cls-2" x="260.33" y="152.28" width="56.16" height="30.75"/>
  <rect class="cls-2" x="188.79" y="127.18" width="56.16" height="30.75"/>
  <rect class="cls-2" x="202.92" y="199.18" width="56.16" height="30.75"/>
  <rect class="cls-2" x="257.39" y="191.95" width="56.16" height="30.75"/>
  <rect class="cls-2" x="200.33" y="160.83" width="56.16" height="30.75"/>
  <rect class="cls-2" x="156.28" y="158.11" width="56.16" height="30.75"/>
  <rect class="cls-2" x="223.29" y="145.45" width="56.16" height="30.75"/>
  <rect class="cls-2" x="230.16" y="108.5" width="56.16" height="30.75"/>
  <rect class="cls-2" x="202.4" y="110.79" width="56.16" height="30.75"/>
  <rect class="cls-2" x="272.85" y="88.06" width="56.16" height="30.75"/>
  <rect class="cls-2" x="297.81" y="110.79" width="56.16" height="30.75"/>
  <rect class="cls-2" x="272.85" y="130.84" width="56.16" height="30.75"/>
  <rect class="cls-2" x="293.77" y="157.05" width="56.16" height="30.75"/>
  <rect class="cls-2" x="292.35" y="176.58" width="56.16" height="30.75"/>
  <rect class="cls-2" x="159.87" y="113" width="56.16" height="30.75"/>
  <rect class="cls-2" x="208.06" y="176.5" width="56.16" height="30.75"/>
  <rect class="cls-2" x="128.2" y="155.17" width="56.16" height="30.75"/>
  <rect class="cls-2" x="348.66" y="180.47" width="56.16" height="30.75"/>
  <rect class="cls-2" x="168.38" y="41.29" width="56.16" height="30.75"/>
  <rect class="cls-2" x="139.04" y="25.37" width="56.16" height="30.75"/>
  <rect class="cls-2" x="62.36" y="88.06" width="56.16" height="30.75"/>
  <rect class="cls-2" x="98.79" y="77.32" width="56.16" height="30.75"/>
  <rect class="cls-2" x="67.32" y="108.68" width="56.16" height="30.75"/>
  <rect class="cls-2" x="62.36" y="134.41" width="56.16" height="30.75"/>
  <rect class="cls-2" x="102.9" y="133.31" width="56.16" height="30.75"/>
  <rect class="cls-2" x="75.87" y="161.12" width="56.16" height="30.75"/>
  <g class="cls-3">
    <path class="cls-4"
          vector-effect="non-scaling-stroke"
          d="M399.83,204.47c-.1-1.81-.2-3.28-.2-4.65s.05-4.17.1-5.39c-3.82.09-7.3.14-14.06.14-3.39,0-7.11.1-11,.25l-.05-.25a79.57,79.57,0,0,0,9-3.53c6-3,11.51-5.39,16-7.2-.15-1.22-.15-4.11-.15-5.63,0-1.33.1-2.7.1-4.27H349.31c.1,1.57.1,3.29.1,4.56s0,4.12-.1,5.49c3.72-.05,7.2-.05,14.55-.05,3.77,0,7.06-.1,10.19-.34l.05.19c-2.79,1-5.78,2.26-8.52,3.48-6,2.7-11.32,5.54-16.32,7.6.1,1,.1,3.18.1,5,0,1.38,0,3-.15,4.61Zm-43.91-7c-.24-3-.24-6.07-.24-9.55,0-2.4.1-4.41.1-7.79,0-10.24-7.11-14.21-18.43-14.21-10.24,0-16.22,2.64-18.86,8.82l-.3-.05c.15-2.8.2-4.9.2-7.74H299.18c.15,4.45.25,8.91.25,15.43,0,7.2-.05,10.78-.25,15.09h19.41c0-2.35-.1-5.14-.1-11.56,0-6,4.26-8.28,9.85-8.28,6.17,0,8.28,1.86,8.28,7.2,0,5.05-.05,9.7-.2,12.64ZM253.26,201a106.77,106.77,0,0,0-14.8-.69c-14.4,0-20.63,2.5-20.63,9.07s5.64,9.11,17.45,9.11c9.41,0,15.68-2.3,17.93-7.15h.3c0,1.08,0,2,0,2.55,0,3.33.49,3.57,3.87,3.57h14.89a34.2,34.2,0,0,1-.83-8.23c0-3.72.15-6.42.15-10.24,0-8.87-6.18-13.23-26.51-13.23-19,0-25.87,2.35-26.12,13.18,1.91-.24,5.44-.24,8.77-.24a71.5,71.5,0,0,1,7.84.24c-.1-2.84,1-4.56,9.12-4.56,7.35,0,8.62,1.13,8.62,5.54Zm0,4.26c0,3-4.26,4.75-10.24,4.75-5.68,0-7.84-.78-7.84-2.54s2.25-2.7,7.64-2.7c3.58,0,7.11,0,10.44.34Zm-22.39-7.8c-.34-5.29-.39-10.63-.39-18.42,0-8,.14-13.53.29-18.33H207.05c-1.91,3.58-5,8.82-8.42,14.65-1,1.82-2.06,4-3.14,6.18h-.05c-1.13-2.21-2.25-4.36-3.28-6.18-3.63-6.12-6.47-11-8.43-14.65H157.37c.19,4.8.29,10.29.29,18.33,0,7.79-.1,13.13-.39,18.42h16.86c-.25-4.8-.35-9.6-.4-15.43,0-2.6-.24-5.05-.44-7.5l.4-.05a69.32,69.32,0,0,0,3.57,6.91l11,16.07h10.44l9.94-14.55a54.44,54.44,0,0,0,3.63-7l.34.1c-.15,2.5-.29,5-.29,7.35-.05,5.24-.2,9.56-.39,14.11ZM119.59,173.93c-7.5,0-19.16,0-24.84-.19.09,2,.14,4,.14,6.12s0,4.22-.14,6.37c5.63-.24,17.34-.19,24.84-.19,8,0,19.7,0,25.33.19-.1-2.15-.1-4.11-.1-6.37s0-4.11.1-6.12c-5.73.24-17.34.19-25.33.19"
          transform="translate(-0.9)"/>
    <path class="cls-5"
          vector-effect="non-scaling-stroke"
          d="M399.83,204.47c-.1-1.81-.2-3.28-.2-4.65s.05-4.17.1-5.39c-3.82.09-7.3.14-14.06.14-3.39,0-7.11.1-11,.25l-.05-.25a79.57,79.57,0,0,0,9-3.53c6-3,11.51-5.39,16-7.2-.15-1.22-.15-4.11-.15-5.63,0-1.33.1-2.7.1-4.27H349.31c.1,1.57.1,3.29.1,4.56s0,4.12-.1,5.49c3.72-.05,7.2-.05,14.55-.05,3.77,0,7.06-.1,10.19-.34l.05.19c-2.79,1-5.78,2.26-8.52,3.48-6,2.7-11.32,5.54-16.32,7.6.1,1,.1,3.18.1,5,0,1.38,0,3-.15,4.61Zm-43.91-7c-.24-3-.24-6.07-.24-9.55,0-2.4.1-4.41.1-7.79,0-10.24-7.11-14.21-18.43-14.21-10.24,0-16.22,2.64-18.86,8.82l-.3-.05c.15-2.8.2-4.9.2-7.74H299.18c.15,4.45.25,8.91.25,15.43,0,7.2-.05,10.78-.25,15.09h19.41c0-2.35-.1-5.14-.1-11.56,0-6,4.26-8.28,9.85-8.28,6.17,0,8.28,1.86,8.28,7.2,0,5.05-.05,9.7-.2,12.64ZM253.26,201a106.77,106.77,0,0,0-14.8-.69c-14.4,0-20.63,2.5-20.63,9.07s5.64,9.11,17.45,9.11c9.41,0,15.68-2.3,17.93-7.15h.3c0,1.08,0,2,0,2.55,0,3.33.49,3.57,3.87,3.57h14.89a34.2,34.2,0,0,1-.83-8.23c0-3.72.15-6.42.15-10.24,0-8.87-6.18-13.23-26.51-13.23-19,0-25.87,2.35-26.12,13.18,1.91-.24,5.44-.24,8.77-.24a71.5,71.5,0,0,1,7.84.24c-.1-2.84,1-4.56,9.12-4.56,7.35,0,8.62,1.13,8.62,5.54Zm0,4.26c0,3-4.26,4.75-10.24,4.75-5.68,0-7.84-.78-7.84-2.54s2.25-2.7,7.64-2.7c3.58,0,7.11,0,10.44.34Zm-22.39-7.8c-.34-5.29-.39-10.63-.39-18.42,0-8,.14-13.53.29-18.33H207.05c-1.91,3.58-5,8.82-8.42,14.65-1,1.82-2.06,4-3.14,6.18h-.05c-1.13-2.21-2.25-4.36-3.28-6.18-3.63-6.12-6.47-11-8.43-14.65H157.37c.19,4.8.29,10.29.29,18.33,0,7.79-.1,13.13-.39,18.42h16.86c-.25-4.8-.35-9.6-.4-15.43,0-2.6-.24-5.05-.44-7.5l.4-.05a69.32,69.32,0,0,0,3.57,6.91l11,16.07h10.44l9.94-14.55a54.44,54.44,0,0,0,3.63-7l.34.1c-.15,2.5-.29,5-.29,7.35-.05,5.24-.2,9.56-.39,14.11ZM119.59,173.93c-7.5,0-19.16,0-24.84-.19.09,2,.14,4,.14,6.12s0,4.22-.14,6.37c5.63-.24,17.34-.19,24.84-.19,8,0,19.7,0,25.33.19-.1-2.15-.1-4.11-.1-6.37s0-4.11.1-6.12C139.19,174,127.58,173.93,119.59,173.93Z"
          transform="translate(-0.9)"/>
    <path class="cls-4"
          vector-effect="non-scaling-stroke"
          d="M360.58,154.45c-.25-5.88-.2-11.07-.2-18.52,0-8.18-.05-13.28.2-19.4H341.52c.19,6.32.19,11.51.19,18.71,0,7,.05,13.14-.19,19.21ZM315.35,138a106.77,106.77,0,0,0-14.8-.69c-14.4,0-20.63,2.5-20.63,9.07s5.64,9.11,17.45,9.11c9.41,0,15.68-2.3,17.93-7.15h.3c-.05,1.08-.05,2-.05,2.55,0,3.33.49,3.57,3.87,3.57h14.89a34.2,34.2,0,0,1-.83-8.23c0-3.72.15-6.42.15-10.24,0-8.87-6.18-13.23-26.51-13.23-19,0-25.87,2.35-26.12,13.18,1.91-.24,5.44-.24,8.77-.24a71.5,71.5,0,0,1,7.84.24c-.09-2.84,1-4.56,9.12-4.56,7.35,0,8.62,1.13,8.62,5.54Zm-.05,4.26c0,3-4.26,4.75-10.24,4.75-5.68,0-7.84-.78-7.84-2.54s2.26-2.7,7.65-2.7c3.57,0,7.1,0,10.43.34Zm-51.5-27.32c-.68,2.45-3.47,8.23-5.83,13.47-1.37,3.09-2.45,5.83-3.23,8h-.64c-.78-2.16-1.81-4.85-3.18-7.94-2.11-5-5.29-10.73-6.08-13.52H223.18c4.9,8,15,25.48,17.84,30.52,1.86-.1,7-.1,13.28-.1,5.68,0,9.6.05,12.79.1,2.84-5.44,12.59-22.73,17.15-30.52ZM182.6,118c-2.69.09-6.12.09-9.26.09s-6.27,0-9.45-.09c0,1.37.09,3.52.09,6l-4.41,0c.1,2.4.05,7.59.05,10.14h4.22c-.05,3.58-.1,6.71-.1,8.38,0,7,4.11,12.49,22.1,12.49a149,149,0,0,0,21.66-1.57c-.74-4-1.33-8-1.77-12A57,57,0,0,1,190.88,143c-7.39,0-8.72-1.52-8.72-4.86v-4c9.9.09,19.9.24,24.26.34,0-3.33.14-7.5.34-10.63-5.1,0-14.75.09-24.35,0Zm-63.89,8c-1.57.14-3.73.14-6,.14-3.87,0-6.71-.1-9.07-.29,0,.49,0,1,0,1.47,0,7.2,5.09,10.29,26.5,10.29,20,0,26.07-3.19,26.07-10.59,0-6.9-3.48-9.4-21.31-9.75-12.74-.19-13.82-1.07-13.82-2.45s1.27-2,8.92-2c8,0,10.14.89,10.14,2.85v.44c1.32,0,3.68-.1,6.17-.1,3.24,0,7,.1,9.12.29a11.78,11.78,0,0,0,.1-1.27c0-8.48-7.89-10.34-26.37-10.34-19.55,0-25.57,3.23-25.57,10.34,0,6.61,4.6,9.65,21.85,9.9,12,.05,13.33,1.07,13.33,2.5,0,1.27-1.62,1.91-9.16,1.91-8.78,0-10.88-1-10.88-3.14Zm-13,17.9c-3.62,0-7,0-8.82-.2-.14,2.3-2.54,3.58-8.82,3.58-6.66,0-9.84-1.47-10.63-5.64,3.53,0,9-.09,14.9-.09,7.89,0,16.56,0,21.7.14a49.21,49.21,0,0,0,.35-5.53c0-9.22-6-13.43-26.36-13.43-19.46,0-29.06,4.21-29.06,16,0,12.25,9,17.1,28.47,17.1,23.27,0,27.29-4.31,26.7-12.1-2.4.15-5.24.2-8.43.2m-8.57-7.74c-6.66.14-13.52.14-19.75,0,.69-4.22,3.43-5.49,10.83-5.49,6.42,0,8.92,1.61,8.92,5.09ZM24.43,120.61c9.17,0,20.19,0,31.51.1-.1-1.52-.15-3.78-.15-5.83s.15-4.56.2-6.18H4.24c.1,5,.1,10.59.1,18.38s0,13.28-.19,18.37h21c-.2-2.5-.35-5.24-.49-8,10.78,0,21.31.09,30.52.09,0-2.89,0-8.28.1-11.07-9.36.25-19.89.2-30.87.2v-6Z"
          transform="translate(-0.9)"/>
    <path class="cls-5"
          vector-effect="non-scaling-stroke"
          d="M360.58,154.45c-.25-5.88-.2-11.07-.2-18.52,0-8.18-.05-13.28.2-19.4H341.52c.19,6.32.19,11.51.19,18.71,0,7,.05,13.14-.19,19.21ZM315.35,138a106.77,106.77,0,0,0-14.8-.69c-14.4,0-20.63,2.5-20.63,9.07s5.64,9.11,17.45,9.11c9.41,0,15.68-2.3,17.93-7.15h.3c-.05,1.08-.05,2-.05,2.55,0,3.33.49,3.57,3.87,3.57h14.89a34.2,34.2,0,0,1-.83-8.23c0-3.72.15-6.42.15-10.24,0-8.87-6.18-13.23-26.51-13.23-19,0-25.87,2.35-26.12,13.18,1.91-.24,5.44-.24,8.77-.24a71.5,71.5,0,0,1,7.84.24c-.09-2.84,1-4.56,9.12-4.56,7.35,0,8.62,1.13,8.62,5.54Zm-.05,4.26c0,3-4.26,4.75-10.24,4.75-5.68,0-7.84-.78-7.84-2.54s2.26-2.7,7.65-2.7c3.57,0,7.1,0,10.43.34Zm-51.5-27.32c-.68,2.45-3.47,8.23-5.83,13.47-1.37,3.09-2.45,5.83-3.23,8h-.64c-.78-2.16-1.81-4.85-3.18-7.94-2.11-5-5.29-10.73-6.08-13.52H223.18c4.9,8,15,25.48,17.84,30.52,1.86-.1,7-.1,13.28-.1,5.68,0,9.6.05,12.79.1,2.84-5.44,12.59-22.73,17.15-30.52ZM182.6,118c-2.69.09-6.12.09-9.26.09s-6.27,0-9.45-.09c0,1.37.09,3.52.09,6l-4.41,0c.1,2.4.05,7.59.05,10.14h4.22c-.05,3.58-.1,6.71-.1,8.38,0,7,4.11,12.49,22.1,12.49a149,149,0,0,0,21.66-1.57c-.74-4-1.33-8-1.77-12A57,57,0,0,1,190.88,143c-7.39,0-8.72-1.52-8.72-4.86v-4c9.9.09,19.9.24,24.26.34,0-3.33.14-7.5.34-10.63-5.1,0-14.75.09-24.35,0Zm-63.89,8c-1.57.14-3.73.14-6,.14-3.87,0-6.71-.1-9.07-.29,0,.49,0,1,0,1.47,0,7.2,5.09,10.29,26.5,10.29,20,0,26.07-3.19,26.07-10.59,0-6.9-3.48-9.4-21.31-9.75-12.74-.19-13.82-1.07-13.82-2.45s1.27-2,8.92-2c8,0,10.14.89,10.14,2.85v.44c1.32,0,3.68-.1,6.17-.1,3.24,0,7,.1,9.12.29a11.78,11.78,0,0,0,.1-1.27c0-8.48-7.89-10.34-26.37-10.34-19.55,0-25.57,3.23-25.57,10.34,0,6.61,4.6,9.65,21.85,9.9,12,.05,13.33,1.07,13.33,2.5,0,1.27-1.62,1.91-9.16,1.91-8.78,0-10.88-1-10.88-3.14Zm-13,17.9c-3.62,0-7,0-8.82-.2-.14,2.3-2.54,3.58-8.82,3.58-6.66,0-9.84-1.47-10.63-5.64,3.53,0,9-.09,14.9-.09,7.89,0,16.56,0,21.7.14a49.21,49.21,0,0,0,.35-5.53c0-9.22-6-13.43-26.36-13.43-19.46,0-29.06,4.21-29.06,16,0,12.25,9,17.1,28.47,17.1,23.27,0,27.29-4.31,26.7-12.1C111.7,143.87,108.86,143.92,105.67,143.92Zm-8.57-7.74c-6.66.14-13.52.14-19.75,0,.69-4.22,3.43-5.49,10.83-5.49,6.42,0,8.92,1.61,8.92,5.09ZM24.43,120.61c9.17,0,20.19,0,31.51.1-.1-1.52-.15-3.78-.15-5.83s.15-4.56.2-6.18H4.24c.1,5,.1,10.59.1,18.38s0,13.28-.19,18.37h21c-.2-2.5-.35-5.24-.49-8,10.78,0,21.31.09,30.52.09,0-2.89,0-8.28.1-11.07-9.36.25-19.89.2-30.87.2v-6Z"
          transform="translate(-0.9)"/>
    <path class="cls-4"
          vector-effect="non-scaling-stroke"
          d="M377.36,52.37c.05-2.64.2-4.95.35-7.44H360.8c.2,4.36.2,8.82.2,15.33s-.05,10.93-.2,15.19h20.09c-.24-2.45-.29-6.42-.29-10,0-5.39,3.23-7.3,9.94-7.3a21.91,21.91,0,0,1,8.28,1.27c.05-4.31.54-10,1-13.87a28.94,28.94,0,0,0-7.84-1c-6.56,0-11.9,2.26-14.3,8ZM357.13,82.92c-3.63,0-7,0-8.82-.2-.15,2.3-2.55,3.58-8.82,3.58-6.67,0-9.85-1.47-10.64-5.64,3.53,0,9-.09,14.9-.09,7.89,0,16.56,0,21.71.14a52.12,52.12,0,0,0,.34-5.53c0-9.22-6-13.43-26.36-13.43-19.46,0-29.06,4.21-29.06,16,0,12.25,9,17.1,28.47,17.1,23.27,0,27.29-4.31,26.7-12.1-2.4.15-5.24.2-8.42.2m-8.58-7.74c-6.66.14-13.52.14-19.75,0,.69-4.22,3.43-5.49,10.83-5.49,6.42,0,8.92,1.61,8.92,5.09Zm-42.43,8.27c-.2-2.89-.25-6-.25-9.26s.15-5.88.15-10.34c0-7.2-3.63-11.71-14.26-11.71-7.45,0-13.08,2.11-16,8l-.44,0c-1-5.05-4.81-8-14.17-8-7.88,0-12.59,2.4-15.53,7.4l-.39-.1c.15-2.35.24-4.11.29-6.51H227.91c.15,4.41.2,8.82.2,15.38s0,10.73-.2,15.14h17.4c-.05-2.45-.1-6-.1-12.44,0-5.59,3.43-7.3,7.69-7.3s6.08,1.81,6.08,4.9c0,6.37-.05,10.92-.2,14.84h16.86c-.15-3-.2-6.76-.2-12.44s3.53-7.3,7.65-7.3,6.12,1.61,6.12,5c0,5.74,0,10.64-.19,14.7Zm-68.45,10c-.2-2.89-.25-6-.25-9.26s.15-5.88.15-10.34c0-7.2-3.63-11.71-14.26-11.71-7.45,0-13.08,2.11-16,8l-.44-.05c-1-5-4.8-8-14.16-8-7.89,0-12.59,2.4-15.53,7.4l-.39-.1c.14-2.35.24-4.11.29-6.51H159.46c.15,4.41.2,8.82.2,15.38s0,10.73-.2,15.14h17.4c-.05-2.45-.1-6-.1-12.44,0-5.59,3.43-7.3,7.69-7.3s6.08,1.81,6.08,4.9c0,6.37-.05,10.92-.2,14.84h16.86c-.15-3-.2-6.76-.2-12.44s3.53-7.3,7.65-7.3,6.12,1.61,6.12,5c0,5.74,0,10.64-.2,14.7ZM155.79,67.67c0-12.29-11.27-16-29.4-16s-29.06,3.68-29.06,16c0,11.91,9.85,17.06,29,17.06s29.5-5.15,29.5-17.06m-18.38.1c0,4.56-4.21,6.62-11,6.62s-10.93-1.86-10.93-6.62,4.21-6.47,10.93-6.47,11,1.92,11,6.47M57.1,83c-1.57.14-3.72.14-6,.14-3.87,0-6.71-.1-9.06-.29,0,.49-.05,1-.05,1.47,0,7.2,5.09,10.29,26.51,10.29,20,0,26.07-3.19,26.07-10.59,0-6.9-3.48-9.4-21.32-9.75-12.74-.19-13.82-1.07-13.82-2.45s1.28-2,8.92-2c8,0,10.14.89,10.14,2.85v.44c1.33,0,3.68-.1,6.18-.1,3.23,0,7,.1,9.11.29a11.78,11.78,0,0,0,.1-1.27c0-8.48-7.89-10.34-26.36-10.34C48,61.75,42,65,42,72.09c0,6.61,4.61,9.65,21.85,9.9,12,.05,13.33,1.07,13.33,2.5,0,1.27-1.62,1.91-9.16,1.91-8.77,0-10.88-1-10.88-3.14Z"
          transform="translate(-0.9)"/>
    <path class="cls-5"
          vector-effect="non-scaling-stroke"
          d="M377.36,52.37c.05-2.64.2-4.95.35-7.44H360.8c.2,4.36.2,8.82.2,15.33s-.05,10.93-.2,15.19h20.09c-.24-2.45-.29-6.42-.29-10,0-5.39,3.23-7.3,9.94-7.3a21.91,21.91,0,0,1,8.28,1.27c.05-4.31.54-10,1-13.87a28.94,28.94,0,0,0-7.84-1c-6.56,0-11.9,2.26-14.3,8ZM357.13,82.92c-3.63,0-7,0-8.82-.2-.15,2.3-2.55,3.58-8.82,3.58-6.67,0-9.85-1.47-10.64-5.64,3.53,0,9-.09,14.9-.09,7.89,0,16.56,0,21.71.14a52.12,52.12,0,0,0,.34-5.53c0-9.22-6-13.43-26.36-13.43-19.46,0-29.06,4.21-29.06,16,0,12.25,9,17.1,28.47,17.1,23.27,0,27.29-4.31,26.7-12.1C363.15,82.87,360.31,82.92,357.13,82.92Zm-8.58-7.74c-6.66.14-13.52.14-19.75,0,.69-4.22,3.43-5.49,10.83-5.49,6.42,0,8.92,1.61,8.92,5.09Zm-42.43,8.27c-.2-2.89-.25-6-.25-9.26s.15-5.88.15-10.34c0-7.2-3.63-11.71-14.26-11.71-7.45,0-13.08,2.11-16,8l-.44,0c-1-5.05-4.81-8-14.17-8-7.88,0-12.59,2.4-15.53,7.4l-.39-.1c.15-2.35.24-4.11.29-6.51H227.91c.15,4.41.2,8.82.2,15.38s0,10.73-.2,15.14h17.4c-.05-2.45-.1-6-.1-12.44,0-5.59,3.43-7.3,7.69-7.3s6.08,1.81,6.08,4.9c0,6.37-.05,10.92-.2,14.84h16.86c-.15-3-.2-6.76-.2-12.44s3.53-7.3,7.65-7.3,6.12,1.61,6.12,5c0,5.74,0,10.64-.19,14.7Zm-68.45,10c-.2-2.89-.25-6-.25-9.26s.15-5.88.15-10.34c0-7.2-3.63-11.71-14.26-11.71-7.45,0-13.08,2.11-16,8l-.44-.05c-1-5-4.8-8-14.16-8-7.89,0-12.59,2.4-15.53,7.4l-.39-.1c.14-2.35.24-4.11.29-6.51H159.46c.15,4.41.2,8.82.2,15.38s0,10.73-.2,15.14h17.4c-.05-2.45-.1-6-.1-12.44,0-5.59,3.43-7.3,7.69-7.3s6.08,1.81,6.08,4.9c0,6.37-.05,10.92-.2,14.84h16.86c-.15-3-.2-6.76-.2-12.44s3.53-7.3,7.65-7.3,6.12,1.61,6.12,5c0,5.74,0,10.64-.2,14.7ZM155.79,67.67c0-12.29-11.27-16-29.4-16s-29.06,3.68-29.06,16c0,11.91,9.85,17.06,29,17.06S155.79,79.58,155.79,67.67Zm-18.38.1c0,4.56-4.21,6.62-11,6.62s-10.93-1.86-10.93-6.62,4.21-6.47,10.93-6.47S137.41,63.22,137.41,67.77ZM57.1,83c-1.57.14-3.72.14-6,.14-3.87,0-6.71-.1-9.06-.29,0,.49-.05,1-.05,1.47,0,7.2,5.09,10.29,26.51,10.29,20,0,26.07-3.19,26.07-10.59,0-6.9-3.48-9.4-21.32-9.75-12.74-.19-13.82-1.07-13.82-2.45s1.28-2,8.92-2c8,0,10.14.89,10.14,2.85v.44c1.33,0,3.68-.1,6.18-.1,3.23,0,7,.1,9.11.29a11.78,11.78,0,0,0,.1-1.27c0-8.48-7.89-10.34-26.36-10.34C48,61.75,42,65,42,72.09c0,6.61,4.61,9.65,21.85,9.9,12,.05,13.33,1.07,13.33,2.5,0,1.27-1.62,1.91-9.16,1.91-8.77,0-10.88-1-10.88-3.14Z"
          transform="translate(-0.9)"/>
    <path class="cls-4"
          vector-effect="non-scaling-stroke"
          d="M211.52,17.93c-5.29,0-13.47,0-17.44-.19.09,2,.14,4,.14,6.12,0,2.26-.05,4.22-.14,6.37,4-.15,12.15-.19,17.44-.19,5.49,0,13.62.09,17.54.19-.1-2.15-.1-4.11-.1-6.37,0-2.11,0-4.11.1-6.12-4,.19-12.05.19-17.54.19M189.37,41.45c-.19-2.89-.24-6-.24-9.26s.15-5.88.15-10.34c0-7.2-3.63-11.71-14.26-11.71-7.45,0-13.09,2.11-16,8l-.44-.05c-1-5-4.8-8-14.16-8-7.89,0-12.59,2.4-15.53,7.4l-.39-.1c.14-2.35.24-4.11.29-6.51H111.17c.15,4.41.2,8.82.2,15.38s0,10.73-.2,15.14h17.39c0-2.45-.09-6-.09-12.44,0-5.59,3.43-7.3,7.69-7.3s6.08,1.81,6.08,4.9c0,6.37-.05,10.92-.2,14.84H158.9c-.15-3-.2-6.76-.2-12.44s3.53-7.3,7.64-7.3,6.13,1.61,6.13,5c0,5.74,0,10.64-.2,14.7Zm-83.79,0c-.24-5.88-.19-11.07-.19-18.52,0-8.18,0-13.28.19-19.4H86.52c.2,6.32.2,11.51.2,18.71,0,7,0,13.14-.2,19.21ZM24.43,16.61c9.17,0,20.19.05,31.51.1-.1-1.52-.15-3.78-.15-5.83s.15-4.56.2-6.18H4.24c.1,5.05.1,10.59.1,18.38s0,13.28-.19,18.37h21c-.2-2.5-.35-5.24-.49-8,10.78,0,21.31.09,30.52.09,0-2.89,0-8.28.1-11.07-9.36.25-19.89.2-30.87.2v-6Z"
          transform="translate(-0.9)"/>
    <path class="cls-5"
          d="M211.52,17.93c-5.29,0-13.47,0-17.44-.19.09,2,.14,4,.14,6.12,0,2.26-.05,4.22-.14,6.37,4-.15,12.15-.19,17.44-.19,5.49,0,13.62.09,17.54.19-.1-2.15-.1-4.11-.1-6.37,0-2.11,0-4.11.1-6.12C225.09,17.93,217,17.93,211.52,17.93ZM189.37,41.45c-.19-2.89-.24-6-.24-9.26s.15-5.88.15-10.34c0-7.2-3.63-11.71-14.26-11.71-7.45,0-13.09,2.11-16,8l-.44-.05c-1-5-4.8-8-14.16-8-7.89,0-12.59,2.4-15.53,7.4l-.39-.1c.14-2.35.24-4.11.29-6.51H111.17c.15,4.41.2,8.82.2,15.38s0,10.73-.2,15.14h17.39c0-2.45-.09-6-.09-12.44,0-5.59,3.43-7.3,7.69-7.3s6.08,1.81,6.08,4.9c0,6.37-.05,10.92-.2,14.84H158.9c-.15-3-.2-6.76-.2-12.44s3.53-7.3,7.64-7.3,6.13,1.61,6.13,5c0,5.74,0,10.64-.2,14.7Zm-83.79,0c-.24-5.88-.19-11.07-.19-18.52,0-8.18,0-13.28.19-19.4H86.52c.2,6.32.2,11.51.2,18.71,0,7,0,13.14-.2,19.21ZM24.43,16.61c9.17,0,20.19.05,31.51.1-.1-1.52-.15-3.78-.15-5.83s.15-4.56.2-6.18H4.24c.1,5.05.1,10.59.1,18.38s0,13.28-.19,18.37h21c-.2-2.5-.35-5.24-.49-8,10.78,0,21.31.09,30.52.09,0-2.89,0-8.28.1-11.07-9.36.25-19.89.2-30.87.2v-6Z"
          transform="translate(-0.9)"/>
    <path class="cls-4"
          vector-effect="non-scaling-stroke"
          d="M82.79,52.26c-.25-4.92-.25-8.76-.25-15.29,0-6.33,0-10.13.25-15H63.9c.14,5,.19,9,.19,14.6,0,5.9,0,10.81-.19,15.73Z"
          transform="translate(-0.9)"/>
    <path class="cls-6"
          vector-effect="non-scaling-stroke"
          d="M82.79,52.26c-.25-4.92-.25-8.76-.25-15.29,0-6.33,0-10.13.25-15H63.9c.14,5,.19,9,.19,14.6,0,5.9,0,10.81-.19,15.73Z"
          transform="translate(-0.9)"/>
  </g>
  <rect class="cls-4" x="69.02" y="11.2" width="18.89" height="10.34" vector-effect="non-scaling-stroke" />
  <rect class="cls-7" x="69.02" y="11.2" width="18.89" height="10.34" vector-effect="non-scaling-stroke" />
  <rect class="cls-4" x="67.45" y="9.64" width="18.89" height="10.34" vector-effect="non-scaling-stroke" />
  <rect class="cls-7" x="67.45" y="9.64" width="18.89" height="10.34" vector-effect="non-scaling-stroke" />
  <rect class="cls-4" x="65.89" y="8.07" width="18.89" height="10.34" vector-effect="non-scaling-stroke" />
  <rect class="cls-7" x="65.89" y="8.07" width="18.89" height="10.34" vector-effect="non-scaling-stroke" />
  <rect class="cls-4" x="64.32" y="6.51" width="18.89" height="10.34" vector-effect="non-scaling-stroke" />
  <rect class="cls-7" x="64.32" y="6.51" width="18.89" height="10.34" vector-effect="non-scaling-stroke" />
  <rect class="cls-4" x="204.7" y="104.26" width="18.89" height="10.34" vector-effect="non-scaling-stroke" />
  <rect class="cls-7" x="204.7" y="104.26" width="18.89" height="10.34" vector-effect="non-scaling-stroke" />
  <rect class="cls-4" x="206.27" y="102.69" width="18.89" height="10.34" vector-effect="non-scaling-stroke" />
  <rect class="cls-7" x="206.27" y="102.69" width="18.89" height="10.34" vector-effect="non-scaling-stroke" />
  <rect class="cls-4" x="207.84" y="101.12" width="18.89" height="10.34" vector-effect="non-scaling-stroke" />
  <rect class="cls-7" x="207.84" y="101.12" width="18.89" height="10.34" vector-effect="non-scaling-stroke" />
  <rect class="cls-4" x="209.4" y="99.56" width="18.89" height="10.34" vector-effect="non-scaling-stroke" />
  <rect class="cls-7" x="209.4" y="99.56" width="18.89" height="10.34" vector-effect="non-scaling-stroke" />
  <g class="cls-8">
    <path vector-effect="non-scaling-stroke"
      class="cls-4"
          d="M224.5,147.26c-.24-4.92-.24-8.76-.24-15.29,0-6.33,0-10.13.24-15H205.61c.15,5,.2,9,.2,14.6,0,5.9.05,10.81-.2,15.73Z"
          transform="translate(-0.9)"/>
    <path vector-effect="non-scaling-stroke"
      class="cls-6"
          d="M224.5,147.26c-.24-4.92-.24-8.76-.24-15.29,0-6.33,0-10.13.24-15H205.61c.15,5,.2,9,.2,14.6,0,5.9.05,10.81-.2,15.73Z"
          transform="translate(-0.9)"/>
    <path vector-effect="non-scaling-stroke"
      class="cls-4"
          d="M300.86,219.26c-.25-4.92-.25-8.76-.25-15.29,0-6.33,0-10.13.25-15H282c.14,5,.19,9,.19,14.6,0,5.9,0,10.81-.19,15.73Z"
          transform="translate(-0.9)"/>
    <path vector-effect="non-scaling-stroke"
      class="cls-6"
          d="M300.86,219.26c-.25-4.92-.25-8.76-.25-15.29,0-6.33,0-10.13.25-15H282c.14,5,.19,9,.19,14.6,0,5.9,0,10.81-.19,15.73Z"
          transform="translate(-0.9)"/>
  </g>
  <rect class="cls-4" x="281.09" y="176.2" width="18.89" height="10.34" vector-effect="non-scaling-stroke" />
  <rect class="cls-7" x="281.09" y="176.2" width="18.89" height="10.34" vector-effect="non-scaling-stroke" />
  <rect class="cls-4" x="279.52" y="174.64" width="18.89" height="10.34" vector-effect="non-scaling-stroke" />
  <rect class="cls-7" x="279.52" y="174.64" width="18.89" height="10.34" vector-effect="non-scaling-stroke" />
  <rect class="cls-4" x="277.96" y="173.07" width="18.89" height="10.34" vector-effect="non-scaling-stroke" />
  <rect class="cls-7" x="277.96" y="173.07" width="18.89" height="10.34" vector-effect="non-scaling-stroke" />
  <rect class="cls-4" x="276.39" y="171.51" width="18.89" height="10.34" vector-effect="non-scaling-stroke" />
  <rect class="cls-7" x="276.39" y="171.51" width="18.89" height="10.34" vector-effect="non-scaling-stroke" />
</svg>
