<svg xmlns="http://www.w3.org/2000/svg" width="307.1" height="307.1" viewBox="0 0 307.1 307.1"><defs><style>.cls-1{fill:#ffd500;}</style></defs><g id="Ebene_2" data-name="Ebene 2"><g id="Ebene_1-2" data-name="Ebene 1"><g id="Web_1920" data-name="Web 1920"><g id="Programmübersicht"><path id="FS24-stern" class="cls-1" d="M143.56,116.27,90.75,12.5l41.78,108.68L50.24,38.81l73.31,90.45L19.84,76.35l97.68,63.37-115-18.27L115,151.53,0,169.69l116.27-6.15L12.5,216.35l108.68-41.78L38.81,256.86l90.45-73.31L76.35,287.26l63.37-97.68-18.27,115L151.53,192.1l18.16,115-6.15-116.26L216.35,294.6,174.57,185.92l82.29,82.37-73.31-90.45,103.71,52.91-97.67-63.37,115,18.27L192.1,155.57l115-18.16-116.27,6.15L294.6,90.75,185.92,132.53l82.37-82.29-90.45,73.32L230.75,19.84l-63.37,97.68,18.27-115L155.57,115,137.41,0Z"/></g></g></g></g></svg>