<?xml version="1.0" encoding="utf-8"?>
<!-- Generator: Adobe Illustrator 26.0.2, SVG Export Plug-In . SVG Version: 6.00 Build 0)  -->
<svg version="1.1" id="Ebene_1" xmlns="http://www.w3.org/2000/svg" xmlns:xlink="http://www.w3.org/1999/xlink" x="0px" y="0px"
	 viewBox="0 0 1919.3 1157" style="enable-background:new 0 0 1919.3 1157;" xml:space="preserve">
<style type="text/css">
	.st0{fill:#EF6F1F;}
	.st1{fill:#C8D500;}
	.st2{fill:#31AC62;}
</style>
<path class="st0" d="M1596.7,32.5c0,289.9-216.8,289.9-216.8,579.8c0,277.8,199,289.4,215.7,544.9H1842
	c-16.7-255.4-215.7-267.1-215.7-544.8c0-289.9,216.8-289.9,216.8-579.9c0-11.3-0.3-22.2-0.9-32.7h-246.6
	C1596.4,10.3,1596.7,21.2,1596.7,32.5z"/>
<path class="st1" d="M1311.5,32.5c0,289.9-216.8,289.9-216.8,579.8c0,277.8,199,289.4,215.7,544.9h285.2
	c-16.7-255.4-215.7-267.1-215.7-544.8c0-289.9,216.8-289.9,216.8-579.9c0-11.3-0.3-22.2-0.9-32.7h-285.4
	C1311.1,10.3,1311.5,21.1,1311.5,32.5z"/>
<path class="st2" d="M1145.8,32.5c0,289.9-216.8,289.9-216.8,579.8c0,277.8,199,289.4,215.7,544.9h170
	C1298,901.8,1099,890.1,1099,612.4c0-289.9,216.8-289.9,216.8-579.9c0-11.3-0.3-22.2-0.9-32.7h-170.1
	C1145.4,10.3,1145.8,21.2,1145.8,32.5z"/>
<path class="st0" d="M758.6,32.5c0,289.9-216.8,289.9-216.8,579.8c0,277.8,199,289.4,215.7,544.9h401.2
	C1142,901.8,943,890.1,943,612.4c0-289.9,216.8-289.9,216.8-579.9c0-11.4-0.3-22.2-0.8-32.7H757.5C758.2,10.3,758.6,21.2,758.6,32.5
	z"/>
<path class="st2" d="M248.5,32.5c0,289.9-216.8,289.9-216.8,579.8c0,277.8,199,289.4,215.7,544.9h274.3
	C505,901.8,306.1,890.1,306.1,612.4c0-289.9,216.8-289.9,216.8-579.9c0-11.3-0.3-22.2-0.9-32.7H247.5
	C248.1,10.3,248.5,21.2,248.5,32.5z"/>
<path class="st1" d="M522.9,32.5c0,289.9-216.8,289.9-216.8,579.8c0,277.8,199,289.4,215.7,544.9h266.1
	c-16.7-255.4-215.7-267.1-215.7-544.8c0-289.9,216.8-290,216.8-579.9c0-11.4-0.3-22.2-0.9-32.7H521.8
	C522.5,10.3,522.9,21.2,522.9,32.5z"/>
</svg>
