<?xml version="1.0" encoding="utf-8"?>
<!-- Generator: Adobe Illustrator 26.0.2, SVG Export Plug-In . SVG Version: 6.00 Build 0)  -->
<svg version="1.1" id="Ebene_1" xmlns="http://www.w3.org/2000/svg" xmlns:xlink="http://www.w3.org/1999/xlink" x="0px" y="0px"
	 viewBox="0 0 384.2 384.2" style="enable-background:new 0 0 384.2 384.2;" xml:space="preserve">
<style type="text/css">
	.st0{fill:#ED711F;}
	.st1{enable-background:new    ;}
	.st2{fill:#2B2B2A;}
</style>
<polygon id="stern" class="st0" points="182.1,145.1 123.2,12.5 168,150.4 71,42.6 156.4,159.9 30.8,87.3 148.2,172.5 6.3,142.3 
	144.3,187.1 0,202.1 145.1,202.1 12.5,261 150.4,216.1 42.6,313.1 159.9,227.8 87.3,353.4 172.5,236 142.3,377.9 187.1,239.9 
	202.1,384.2 202.1,239.1 261,371.7 216.1,233.7 313.1,341.6 227.8,224.3 353.4,296.9 236,211.6 377.9,241.9 239.9,197.1 384.2,182 
	239.1,182.1 371.7,123.2 233.7,168 341.6,71 224.3,156.4 296.9,30.8 211.6,148.2 241.9,6.3 197.1,144.3 182,0 "/>
<g id="_x31_0-Jahre">
	<g id="_x31_0" class="st1">
		<path class="st2" d="M179.2,160.8c-0.1,2.8-0.1,6.7-0.1,11.8c0,5,0,8.3,0.1,11.8c-0.7,0-1.2,0-1.7,0c-0.5,0-1.1,0-1.8,0
			c0.1-3.4,0.1-6.8,0.1-11.8c0-4.8-0.1-7.6-0.2-10.2c0.7-0.4,1.4-1,1.9-1.5h0.8H179.2z"/>
		<path class="st2" d="M194.6,184.8c-6.4,0-10.5-4.3-10.5-12.4c0-8.1,4.3-12,10.5-12c6.2,0,10.5,3.9,10.5,12
			C205.2,180.5,201.1,184.8,194.6,184.8z M187.4,172.5c0,6.6,2.9,9.4,7.3,9.4c4.4,0,7.3-2.8,7.3-9.4c0-6.4-3-9.2-7.3-9.2
			C190.3,163.3,187.4,166,187.4,172.5z"/>
	</g>
	<g id="Jahre">
		<g class="st1">
			<path class="st2" d="M153.6,189.3c-0.1,2.6-0.1,4.6-0.1,7.6c0,1.3,0.1,4.4,0.1,8.5c0,4.7-2.2,7.7-6.9,7.7c-1.9,0-3.9-0.4-5.6-1.3
				c0.2-0.6,0.6-2.3,0.7-3.1c1.2,0.8,2.6,1.3,4.5,1.3c2.6,0,4.1-1.4,4.1-4.5c0-9.7,0-13.8-0.2-16.3H153.6z"/>
			<path class="st2" d="M172.9,209.2c-1,2.6-3.6,4-7.6,4c-4.2,0-6.6-1.7-6.6-5.3c0-3.7,2.5-5.4,7.9-5.4c2.7,0,4.9,0.2,6.3,0.5
				c0-0.8,0-1.5,0-2.1c0-2.8-1.4-4.7-5.2-4.7c-3.6,0-5.4,1.6-5.3,4.7c-0.4,0-0.8,0-1.3,0c-0.6,0-1.2,0-1.6,0.1
				c-0.2-4.3,2.4-7.3,8.2-7.3c6,0,8.3,3.1,8.3,7.1c0,2.3-0.1,4.1-0.1,6.3s0.1,4.8,0.4,5.7h-2.5c-0.7,0-0.8-0.2-0.8-0.9
				c0-0.8,0-1.8,0.1-2.8H172.9z M173,204.6c-1.7-0.3-3.8-0.4-5.9-0.4c-3.6,0-5.3,1-5.3,3.4c0,2.2,1.4,3.4,4.7,3.4
				c4.3,0,6.5-2.3,6.5-5.3V204.6z"/>
		</g>
		<g class="st1">
			<path class="st2" d="M196.5,212.9c0.1-3,0.1-6.6,0.1-11.6c0-3.3-1.5-4.9-5.1-4.9c-3.5,0-6.4,1.8-6.4,5.8c0,6.6,0,8.8,0.1,10.7
				H182c0.1-2.9,0.1-5.6,0.1-10.2c0-5.7-0.1-10.6-0.1-14.1h3.3c-0.1,2-0.1,3.7-0.1,5.7c0,1.2,0,2.1-0.1,3.3l0.2,0
				c1.2-2.7,3.8-4,7.4-4c4.5,0,7,2.4,7,6.8c0,3-0.1,4.2-0.1,6.1c0,2.3,0,4.3,0.1,6.4H196.5z"/>
		</g>
		<g class="st1">
			<path class="st2" d="M208.1,198.3c1-3.1,3.1-4.5,6.3-4.5c1.4,0,2.6,0.3,3.6,0.7c-0.2,0.7-0.4,2.1-0.5,3c-1-0.5-2.1-0.7-3.4-0.7
				c-3.2,0-5.6,1.8-5.6,6.4c0,3.4,0,7.7,0.1,9.9h-3.3c0.1-2.6,0.1-5.4,0.1-9.5c0-4,0-6.7-0.1-9.4h2.8c0,1.2-0.1,2.5-0.2,4.2H208.1z"
				/>
		</g>
		<g class="st1">
			<path class="st2" d="M236.5,206.5c0.1,3.6-1.4,6.7-8.1,6.7c-5.7,0-9.4-3.2-9.4-9.8c0-6.7,3.7-9.9,9.4-9.9c5.8,0,8.1,3.1,8.1,7.8
				c0,1,0,2-0.1,2.7c-1.4,0-4,0-7.6,0c-2.4,0-4.9,0-6.9-0.1c0.2,4.7,2.5,6.9,6.5,6.9c4.1,0,5.3-1.8,5.3-4.4c0.4,0,0.8,0.1,1.4,0.1
				C235.8,206.6,236.2,206.6,236.5,206.5z M222,202.3c3.3,0.1,9.2,0.1,11.7,0c0-0.3,0-0.8,0-1.2c0-3.2-1.6-5.2-5.4-5.2
				C224.7,195.9,222.4,197.8,222,202.3z"/>
		</g>
	</g>
</g>
</svg>
