<?xml version="1.0" encoding="utf-8"?>
<!-- Generator: Adobe Illustrator 26.0.2, SVG Export Plug-In . SVG Version: 6.00 Build 0)  -->
<svg version="1.1" id="Ebene_1" xmlns="http://www.w3.org/2000/svg" xmlns:xlink="http://www.w3.org/1999/xlink" x="0px" y="0px"
	 viewBox="0 0 1920 1157.4" style="enable-background:new 0 0 1920 1157.4;" xml:space="preserve">
<style type="text/css">
	.st0{fill:#31AC62;}
	.st1{fill:#EF6F1F;}
	.st2{fill:none;}
	.st3{fill:#C8D500;}
</style>
<rect x="1627" class="st0" width="293.6" height="1157.4"/>
<rect x="-23.5" class="st1" width="246.8" height="1157.4"/>
<rect x="-23.5" class="st2" width="1919.4" height="1157.4"/>
<path class="st1" d="M1597.2,32.7c0,289.9-216.8,289.9-216.8,579.8c0,277.8,199,289.4,215.7,544.9h246.4
	c-16.7-255.4-215.7-267.1-215.7-544.8c0-289.9,216.8-289.9,216.8-579.9c0-11.3-0.3-22.2-0.9-32.7h-246.6
	C1596.9,10.5,1597.2,21.4,1597.2,32.7z"/>
<path class="st3" d="M1312,32.7c0,289.9-216.8,289.9-216.8,579.8c0,277.8,199,289.4,215.7,544.9h285.2
	c-16.7-255.4-215.7-267.1-215.7-544.8c0-289.9,216.8-289.9,216.8-579.9c0-11.3-0.3-22.2-0.9-32.7h-285.4
	C1311.6,10.5,1312,21.4,1312,32.7z"/>
<path class="st0" d="M1146.3,32.7c0,289.9-216.8,289.9-216.8,579.8c0,277.8,199,289.4,215.7,544.9h170
	c-16.7-255.4-215.7-267.1-215.7-544.8c0-289.9,216.8-289.9,216.8-579.9c0-11.3-0.3-22.2-0.9-32.7h-170.1
	C1145.9,10.5,1146.3,21.4,1146.3,32.7z"/>
<path class="st1" d="M759.1,32.7c0,289.9-216.8,289.9-216.8,579.8c0,277.8,199,289.4,215.7,544.9h401.2
	C1142.5,902,943.5,890.3,943.5,612.6c0-289.9,216.8-289.9,216.8-579.9c0-11.4-0.3-22.2-0.8-32.7H758
	C758.7,10.5,759.1,21.4,759.1,32.7z"/>
<path class="st3" d="M497.9,32.7c0,289.9-216.8,289.9-216.8,579.8c0,277.8,199,289.4,215.7,544.9h266.1
	C746.2,902,547.2,890.3,547.2,612.6C547.2,322.7,764,322.7,764,32.7c0-11.4-0.3-22.2-0.9-32.7H496.8
	C497.5,10.5,497.9,21.4,497.9,32.7z"/>
<path class="st0" d="M223.5,32.7c0,289.9-216.8,289.9-216.8,579.8c0,277.8,199,289.4,215.7,544.9h274.3C480,902,281,890.3,281,612.6
	c0-289.9,216.8-289.9,216.8-579.9c0-11.3-0.3-22.2-0.9-32.7H222.4C223.1,10.5,223.5,21.4,223.5,32.7z"/>
</svg>
