<svg id="Ebene_1" data-name="Ebene 1" xmlns="http://www.w3.org/2000/svg" width="1355.37" height="817.05" viewBox="0 0 1355.37 817.05"><defs><style>.cls-1{fill:#31ac62;}.cls-2{fill:#ef6f1f;}.cls-3{fill:none;}.cls-4{fill:#c8d500;}</style></defs><rect class="cls-1" x="1178.7" width="176.67" height="817.05"/><rect class="cls-2" width="174.2" height="817.05"/><rect class="cls-3" width="1354.96" height="817.05"/><path class="cls-2" d="M1160.49,23.07c0,204.65-153,204.65-153,409.31,0,196.1,140.5,204.31,152.26,384.67h174c-11.79-180.3-152.26-188.54-152.26-384.61,0-204.66,153-204.67,153-409.34q0-12-.63-23.1H1159.76Q1160.48,11.1,1160.49,23.07Z"/><path class="cls-4" d="M959.13,23.06c0,204.66-153,204.65-153,409.31,0,196.1,140.51,204.31,152.26,384.68H1159.7c-11.79-180.31-152.26-188.55-152.26-384.62,0-204.66,153-204.67,153-409.34q0-12-.62-23.09H958.39Q959.13,11.1,959.13,23.06Z"/><path class="cls-1" d="M839.15,23.08c0,204.66-153,204.65-153,409.31,0,196.09,140.5,204.31,152.26,384.66h120c-11.79-180.3-152.26-188.54-152.26-384.61,0-204.66,153-204.67,153-409.34q0-12-.65-23.1H838.43Q839.14,11.1,839.15,23.08Z"/><path class="cls-2" d="M555.94,23.07c0,204.65-153.05,204.65-153.05,409.31,0,196.1,140.5,204.31,152.26,384.67H838.36C826.57,636.75,686.1,628.51,686.1,432.44c0-204.66,153-204.67,153-409.34q0-12-.6-23.1H555.17Q555.93,11.12,555.94,23.07Z"/><path class="cls-4" d="M368.06,23.07c0,204.65-153,204.65-153,409.31,0,196.1,140.5,204.31,152.26,384.67H555.14c-11.79-180.3-152.26-188.54-152.26-384.61,0-204.66,153-204.67,153-409.34q0-12-.63-23.1h-188Q368.06,11.1,368.06,23.07Z"/><path class="cls-1" d="M174.37,23.07c0,204.66-153,204.66-153,409.32,0,196.09,140.5,204.31,152.26,384.66H367.26C355.47,636.74,215,628.5,215,432.43c0-204.66,153.05-204.67,153.05-409.34q0-12-.62-23.09H173.63Q174.37,11.1,174.37,23.07Z"/></svg>