<?xml version="1.0" standalone="no"?>
<!DOCTYPE svg PUBLIC "-//W3C//DTD SVG 20010904//EN"
 "http://www.w3.org/TR/2001/REC-SVG-20010904/DTD/svg10.dtd">
<svg version="1.0" xmlns="http://www.w3.org/2000/svg"
 width="700.000000pt" height="700.000000pt" viewBox="0 0 700.000000 700.000000"
 preserveAspectRatio="xMidYMid meet">
<metadata>
Created by potrace 1.14, written by Peter Selinger 2001-2017
</metadata>
<g transform="translate(0.000000,700.000000) scale(0.100000,-0.100000)"
fill="#000000" stroke="none">
<path d="M103 6738 c23 -440 15 -5613 -10 -6400 l-6 -208 1421 0 c1171 0 1422
2 1422 13 0 7 -7 139 -15 293 -17 317 -45 1000 -45 1087 l0 59 193 -6 c105 -3
984 -9 1953 -12 l1761 -6 7 1008 c3 555 9 1033 13 1063 l6 54 -244 -7 c-679
-19 -1248 -25 -2431 -26 l-1298 0 0 472 0 471 1833 -7 c1007 -3 1919 -9 2025
-13 l192 -6 -7 179 c-11 242 -10 1337 1 1767 l8 347 -3392 0 -3393 0 6 -122z
m6630 -340 c-9 -383 -9 -1566 1 -1640 l7 -50 -598 6 c-329 4 -1239 8 -2023 9
l-1425 2 -3 -607 -2 -608 1257 0 c1159 0 1969 9 2498 26 l210 7 -2 -699 c-1
-385 -5 -800 -9 -923 l-6 -223 -1959 7 -1958 8 5 -69 c2 -38 11 -251 19 -474
9 -223 20 -488 25 -590 6 -102 10 -213 10 -247 l0 -63 -1275 0 -1275 0 7 398
c5 218 8 1672 8 3230 l0 2832 3248 0 3249 0 -9 -332z"/>
</g>
</svg>
