<?xml version="1.0" standalone="no"?>
<!DOCTYPE svg PUBLIC "-//W3C//DTD SVG 20010904//EN"
 "http://www.w3.org/TR/2001/REC-SVG-20010904/DTD/svg10.dtd">
<svg version="1.0" xmlns="http://www.w3.org/2000/svg"
 width="2048.000000pt" height="2048.000000pt" viewBox="0 0 2048.000000 2048.000000"
 preserveAspectRatio="xMidYMid meet">
<metadata>
Created by potrace 1.14, written by Peter Selinger 2001-2017
</metadata>
<g transform="translate(0.000000,2048.000000) scale(0.100000,-0.100000)"
fill="#000000" stroke="none">
<path d="M9690 20450 l-45 -5 55 -8 c30 -4 75 -6 100 -5 l45 1 -50 7 c-40 6
-37 7 15 3 36 -3 124 -6 195 -7 72 0 136 -5 143 -9 7 -5 12 -4 12 2 0 7 30 11
80 11 52 0 80 -4 80 -11 0 -8 4 -8 13 -1 8 7 60 10 142 8 72 -2 119 0 105 4
-14 4 16 7 70 7 80 0 86 -2 40 -7 l-55 -7 55 -1 c30 0 75 3 100 7 l45 8 -40 3
c-81 5 -1062 5 -1105 0z m223 -7 c-7 -2 -19 -2 -25 0 -7 3 -2 5 12 5 14 0 19
-2 13 -5z m80 0 c-7 -2 -19 -2 -25 0 -7 3 -2 5 12 5 14 0 19 -2 13 -5z m520 0
c-7 -2 -19 -2 -25 0 -7 3 -2 5 12 5 14 0 19 -2 13 -5z"/>
<path d="M9600 20434 c22 -9 25 -12 10 -9 -14 3 -43 7 -65 10 -29 3 -23 0 20
-11 43 -11 69 -12 95 -6 31 9 32 10 8 11 -15 1 -30 6 -33 11 -3 6 -21 10 -38
9 l-32 -1 35 -14z"/>
<path d="M10835 20435 l-50 -12 35 -7 c21 -4 61 -1 100 8 l65 16 -55 -5 c-37
-3 -49 -1 -35 5 28 12 0 10 -60 -5z m42 -11 c-3 -3 -12 -4 -19 -1 -8 3 -5 6 6
6 11 1 17 -2 13 -5z"/>
<path d="M9345 20420 c12 -5 14 -9 6 -9 -8 -1 -11 -4 -8 -7 4 -4 12 -2 19 4 8
6 34 12 58 15 32 2 25 4 -25 5 -47 0 -63 -2 -50 -8z"/>
<path d="M9797 20423 c-63 -5 -50 -23 16 -23 33 0 47 3 38 9 -11 7 -11 9 0 14
8 3 10 5 4 4 -5 0 -31 -2 -58 -4z"/>
<path d="M10629 20422 c11 -8 11 -10 0 -15 -8 -3 9 -6 36 -6 28 0 57 4 65 9
11 7 2 10 -32 10 -25 0 -55 3 -65 6 -13 4 -15 3 -4 -4z"/>
<path d="M11055 20423 c27 -3 55 -9 62 -15 8 -6 16 -8 20 -4 3 3 0 6 -8 7 -8
0 -6 4 6 9 13 6 -5 8 -55 7 -56 0 -62 -2 -25 -4z"/>
<path d="M9235 20410 l-20 -9 20 0 c11 0 27 4 35 9 13 9 13 10 0 9 -8 0 -24
-4 -35 -9z"/>
<path d="M9908 20413 c23 -2 61 -2 85 0 23 2 4 4 -43 4 -47 0 -66 -2 -42 -4z"/>
<path d="M10093 20413 c9 -2 25 -2 35 0 9 3 1 5 -18 5 -19 0 -27 -2 -17 -5z"/>
<path d="M10353 20413 c9 -2 25 -2 35 0 9 3 1 5 -18 5 -19 0 -27 -2 -17 -5z"/>
<path d="M10488 20413 c23 -2 61 -2 85 0 23 2 4 4 -43 4 -47 0 -66 -2 -42 -4z"/>
<path d="M11205 20410 c3 -6 40 -10 81 -10 41 0 74 -4 74 -9 0 -14 150 -25
163 -12 7 7 2 10 -19 10 -16 0 -60 4 -99 10 -122 16 -206 21 -200 11z"/>
<path d="M9133 20403 c15 -2 37 -2 50 0 12 2 0 4 -28 4 -27 0 -38 -2 -22 -4z"/>
<path d="M9436 20396 c4 -12 19 -16 55 -16 27 0 49 5 49 10 0 6 -11 10 -24 10
-13 0 -38 3 -55 6 -26 6 -30 4 -25 -10z"/>
<path d="M10978 20403 c-55 -6 -46 -23 11 -23 34 0 51 4 55 15 3 10 0 14 -12
13 -9 -1 -34 -3 -54 -5z"/>
<path d="M9020 20390 c-8 -6 -28 -7 -45 -4 -23 5 -27 3 -19 -6 9 -9 34 -10 90
-4 58 5 72 9 54 15 -36 10 -63 10 -80 -1z"/>
<path d="M9900 20390 c0 -5 5 -10 10 -10 6 0 10 5 10 10 0 6 -4 10 -10 10 -5
0 -10 -4 -10 -10z"/>
<path d="M8815 20364 c-38 -7 -86 -13 -106 -13 -19 -1 -44 -8 -55 -17 -18 -14
-16 -15 21 -9 45 7 164 7 210 0 24 -4 26 -3 10 4 -11 5 -42 10 -70 12 l-50 2
45 7 c25 5 54 6 65 4 15 -4 16 -3 6 4 -11 8 -11 10 0 15 21 8 1 6 -76 -9z
m-118 -30 c-3 -3 -12 -4 -19 -1 -8 3 -5 6 6 6 11 1 17 -2 13 -5z"/>
<path d="M11525 20364 c-45 -12 -46 -13 -10 -8 22 3 51 8 65 10 18 4 21 3 11
-4 -10 -7 -10 -11 -1 -17 8 -5 9 -10 2 -14 -6 -3 17 -6 51 -6 l62 0 5 -2850 5
-2850 3 2842 c1 1563 -1 2848 -4 2857 -5 12 -20 16 -60 16 -30 0 -54 4 -54 9
0 5 28 7 63 5 50 -3 55 -2 27 5 -69 17 -116 19 -165 5z"/>
<path d="M8945 20360 c11 -5 29 -8 40 -8 16 0 15 2 -5 8 -34 11 -60 11 -35 0z"/>
<path d="M11738 18192 c1 -1186 3 -2454 5 -2817 1 -363 3 600 4 2140 1 1540
-1 2808 -5 2817 -4 10 -6 -953 -4 -2140z"/>
<path d="M8950 20336 c0 -9 40 -13 46 -5 3 5 -6 9 -20 9 -14 0 -26 -2 -26 -4z"/>
<path d="M9080 20330 c0 -5 9 -10 20 -10 11 0 20 5 20 10 0 6 -9 10 -20 10
-11 0 -20 -4 -20 -10z"/>
<path d="M9770 20330 c0 -6 32 -10 75 -10 43 0 75 4 75 10 0 6 -32 10 -75 10
-43 0 -75 -4 -75 -10z"/>
<path d="M10560 20330 c0 -5 18 -10 40 -10 22 0 40 5 40 10 0 6 -18 10 -40 10
-22 0 -40 -4 -40 -10z"/>
<path d="M11360 20330 c0 -5 9 -10 20 -10 11 0 20 5 20 10 0 6 -9 10 -20 10
-11 0 -20 -4 -20 -10z"/>
<path d="M11484 20331 c3 -5 15 -7 26 -4 28 7 25 13 -6 13 -14 0 -23 -4 -20
-9z"/>
<path d="M8578 20323 c7 -3 16 -2 19 1 4 3 -2 6 -13 5 -11 0 -14 -3 -6 -6z"/>
<path d="M8448 20303 c6 -2 18 -2 25 0 6 3 1 5 -13 5 -14 0 -19 -2 -12 -5z"/>
<path d="M8361 20292 c-19 -2 -40 -11 -46 -19 -8 -11 -23 -14 -47 -11 -24 2
-35 0 -35 -9 0 -8 7 -11 17 -8 10 3 34 6 54 7 20 1 32 4 25 8 -17 11 5 22 39
20 43 -3 62 -1 62 8 0 8 -14 9 -69 4z"/>
<path d="M8458 20283 c7 -3 16 -2 19 1 4 3 -2 6 -13 5 -11 0 -14 -3 -6 -6z"/>
<path d="M8278 20273 c7 -3 16 -2 19 1 4 3 -2 6 -13 5 -11 0 -14 -3 -6 -6z"/>
<path d="M8365 20261 c18 -8 17 -10 -12 -16 -18 -4 -33 -11 -33 -16 0 -14 38
-11 44 4 5 10 7 10 12 0 6 -14 64 -18 64 -5 0 5 10 14 23 21 17 9 18 10 2 5
-11 -3 -36 -8 -55 -10 -30 -3 -32 -2 -10 5 14 5 18 10 10 10 -8 1 -26 4 -40 6
-22 5 -22 4 -5 -4z"/>
<path d="M8165 20250 c-17 -7 -15 -9 12 -9 17 -1 35 4 38 9 7 12 -22 12 -50 0z"/>
<path d="M8010 20218 c-19 -5 -48 -12 -65 -16 -48 -12 -38 -35 16 -37 29 -1
46 2 46 10 0 8 -13 9 -44 5 -63 -10 -52 4 15 19 32 7 65 17 73 22 17 11 5 10
-41 -3z"/>
<path d="M8075 20220 c-3 -6 1 -7 9 -4 18 7 21 14 7 14 -6 0 -13 -4 -16 -10z"/>
<path d="M8028 20193 c6 -2 18 -2 25 0 6 3 1 5 -13 5 -14 0 -19 -2 -12 -5z"/>
<path d="M7868 20183 c6 -2 18 -2 25 0 6 3 1 5 -13 5 -14 0 -19 -2 -12 -5z"/>
<path d="M8028 20173 c6 -2 18 -2 25 0 6 3 1 5 -13 5 -14 0 -19 -2 -12 -5z"/>
<path d="M7695 20140 l-20 -9 20 -1 c17 -2 16 -3 -5 -10 -14 -5 -18 -8 -9 -9
9 -1 32 -3 50 -6 30 -5 31 -4 10 5 -14 6 -21 16 -17 25 6 17 0 18 -29 5z"/>
<path d="M7610 20115 c-14 -8 -20 -14 -13 -15 6 0 15 -9 18 -20 4 -14 15 -20
36 -20 16 0 29 4 29 9 0 13 -27 21 -47 14 -11 -4 -14 -3 -9 5 4 7 2 12 -6 12
-7 1 -2 7 12 15 14 8 21 14 15 14 -5 0 -21 -6 -35 -14z"/>
<path d="M7650 20100 c8 -5 26 -10 39 -10 32 0 24 6 -19 14 -25 4 -31 3 -20
-4z"/>
<path d="M7500 20090 c-12 -7 -10 -9 7 -7 12 0 19 5 17 9 -6 10 -6 10 -24 -2z"/>
<path d="M7400 20060 c-8 -5 -3 -9 12 -12 13 -2 29 1 35 8 9 9 6 12 -12 12
-12 0 -28 -4 -35 -8z"/>
<path d="M7520 20040 c0 -15 7 -20 25 -20 14 0 25 5 25 10 0 6 7 10 15 10 8 0
15 5 15 10 0 6 -18 10 -40 10 -33 0 -40 -3 -40 -20z"/>
<path d="M7340 20040 c9 -6 8 -9 -6 -13 -10 -2 -4 -4 14 -4 18 0 28 3 21 7 -8
6 -8 9 2 12 8 3 1 5 -15 5 -17 0 -23 -2 -16 -7z"/>
<path d="M7398 20033 c7 -3 16 -2 19 1 4 3 -2 6 -13 5 -11 0 -14 -3 -6 -6z"/>
<path d="M7287 20018 c-3 -9 6 -13 27 -14 17 -1 23 1 14 3 -10 2 -18 9 -18 14
0 13 -17 11 -23 -3z"/>
<path d="M7418 20013 c7 -3 16 -2 19 1 4 3 -2 6 -13 5 -11 0 -14 -3 -6 -6z"/>
<path d="M7368 20003 c6 -2 18 -2 25 0 6 3 1 5 -13 5 -14 0 -19 -2 -12 -5z"/>
<path d="M7143 19983 c-17 -6 -17 -33 0 -33 7 0 13 9 13 20 0 11 0 20 -1 19 0
0 -6 -3 -12 -6z"/>
<path d="M7006 19941 c-92 -32 -105 -39 -80 -44 20 -4 34 0 46 13 10 11 28 17
42 16 15 -2 23 1 19 7 -4 6 4 8 20 5 15 -3 24 -1 21 4 -3 4 2 11 12 15 10 4
20 0 26 -10 5 -10 14 -17 19 -17 6 0 3 7 -5 16 -9 8 -14 20 -11 25 4 5 5 9 3
8 -2 0 -52 -18 -112 -38z"/>
<path d="M7170 19945 c0 -8 -5 -15 -12 -15 -6 0 -9 -2 -6 -5 3 -3 13 -3 22 1
17 7 22 34 6 34 -5 0 -10 -7 -10 -15z"/>
<path d="M6855 19890 c-16 -7 -17 -9 -3 -9 9 -1 20 4 23 9 7 11 7 11 -20 0z"/>
<path d="M7040 19890 c0 -5 14 -10 30 -10 17 0 30 5 30 10 0 6 -13 10 -30 10
-16 0 -30 -4 -30 -10z"/>
<path d="M6877 19873 c-14 -13 -6 -21 23 -25 32 -5 29 6 -5 16 -11 3 0 3 25 1
32 -4 41 -2 30 5 -17 11 -63 13 -73 3z"/>
<path d="M6797 19864 c-3 -4 -21 -10 -39 -15 l-33 -8 35 5 c19 3 43 6 53 7 9
1 17 5 17 9 0 9 -24 11 -33 2z"/>
<path d="M17492 15400 l3 -2045 467 -2 c408 -2 466 -1 462 12 -7 17 -24 20
-24 5 0 -6 -140 -10 -400 -10 -260 0 -400 4 -400 10 0 6 -20 10 -45 10 -44 0
-44 0 -38 30 3 19 1 30 -6 30 -8 0 -11 521 -11 1985 0 1132 4 1985 9 1985 14
0 32 -26 23 -35 -4 -5 -2 -5 5 -2 6 4 20 -5 31 -20 11 -16 23 -25 26 -22 3 3
-19 30 -49 59 l-55 54 2 -2044z"/>
<path d="M17544 17336 c3 -14 2 -26 -3 -26 -5 0 -11 -6 -14 -12 -3 -9 7 -14
27 -15 23 -2 27 0 16 7 -13 9 -13 11 0 20 10 6 11 10 3 10 -7 0 -13 6 -13 14
0 8 -5 18 -11 22 -9 5 -10 -1 -5 -20z"/>
<path d="M17510 17330 c0 -5 5 -10 10 -10 6 0 10 5 10 10 0 6 -4 10 -10 10 -5
0 -10 -4 -10 -10z"/>
<path d="M17590 17292 c0 -12 3 -12 15 -2 8 7 15 13 15 15 0 1 -7 2 -15 2 -8
0 -15 -7 -15 -15z"/>
<path d="M17611 17264 c0 -11 3 -14 6 -6 3 7 2 16 -1 19 -3 4 -6 -2 -5 -13z"/>
<path d="M17640 17270 c0 -6 7 -13 15 -16 23 -9 18 -26 -5 -19 -11 4 -20 2
-20 -4 0 -6 11 -12 25 -12 14 -1 31 -2 37 -3 7 0 19 -13 26 -28 7 -16 20 -28
28 -28 10 0 -8 24 -42 60 -61 63 -64 66 -64 50z"/>
<path d="M17638 17203 c7 -3 16 -2 19 1 4 3 -2 6 -13 5 -11 0 -14 -3 -6 -6z"/>
<path d="M17687 17163 c-4 -3 -7 -16 -6 -27 0 -19 1 -19 10 3 10 24 8 36 -4
24z"/>
<path d="M17716 17141 c-4 -7 -5 -15 -2 -18 9 -9 19 4 14 18 -4 11 -6 11 -12
0z"/>
<path d="M17600 17130 c0 -5 5 -10 10 -10 6 0 10 5 10 10 0 6 -4 10 -10 10 -5
0 -10 -4 -10 -10z"/>
<path d="M17755 17120 c3 -5 8 -10 11 -10 2 0 4 5 4 10 0 6 -5 10 -11 10 -5 0
-7 -4 -4 -10z"/>
<path d="M17799 17104 c17 -21 18 -30 9 -48 -11 -21 -11 -21 10 -2 20 17 22
17 28 2 3 -9 11 -16 16 -16 6 0 -7 20 -28 44 -42 48 -69 63 -35 20z"/>
<path d="M17767 17093 c-4 -3 -7 -11 -7 -17 0 -6 5 -4 11 4 9 12 10 11 6 -5
-3 -11 -8 -28 -12 -37 -4 -10 -3 -18 2 -18 11 0 34 60 27 71 -6 11 -18 12 -27
2z"/>
<path d="M17866 17015 c-8 -22 -8 -25 5 -25 5 0 7 5 4 10 -3 6 -4 10 -1 10 7
0 46 -38 46 -45 0 -6 10 -8 16 -3 2 3 -11 19 -30 37 -28 27 -34 30 -40 16z"/>
<path d="M17800 16980 c0 -24 35 -28 43 -6 4 10 1 13 -9 9 -7 -3 -14 0 -14 6
0 6 -4 11 -10 11 -5 0 -10 -9 -10 -20z"/>
<path d="M17930 16925 c-10 -19 -11 -28 -2 -37 8 -8 10 -6 6 9 -9 33 13 36 40
6 14 -15 28 -25 30 -22 3 3 -9 20 -27 37 l-33 32 -14 -25z"/>
<path d="M17940 16906 c0 -2 7 -9 15 -16 13 -11 14 -10 9 4 -5 14 -24 23 -24
12z"/>
<path d="M17960 16850 c0 -5 7 -10 15 -10 8 0 15 5 15 10 0 6 -7 10 -15 10 -8
0 -15 -4 -15 -10z"/>
<path d="M18000 16842 c0 -7 5 -12 11 -12 6 0 9 -6 6 -13 -3 -8 2 -13 11 -12
17 1 22 7 22 26 0 6 -6 9 -14 6 -7 -3 -19 0 -25 6 -8 8 -11 8 -11 -1z"/>
<path d="M17920 16810 c0 -5 5 -10 10 -10 6 0 10 5 10 10 0 6 -4 10 -10 10 -5
0 -10 -4 -10 -10z"/>
<path d="M18100 16761 c7 -14 7 -22 -2 -27 -6 -4 -8 -3 -4 4 3 6 1 14 -5 17
-7 5 -10 1 -7 -11 2 -12 13 -18 30 -19 l27 -2 -20 29 c-23 32 -35 37 -19 9z"/>
<path d="M18168 16638 c5 -33 12 -31 16 4 2 14 -2 25 -9 25 -7 0 -9 -12 -7
-29z"/>
<path d="M18080 16650 c0 -5 5 -10 10 -10 6 0 10 5 10 10 0 6 -4 10 -10 10 -5
0 -10 -4 -10 -10z"/>
<path d="M18199 16632 c7 -13 6 -23 -1 -30 -13 -13 -8 -15 16 -6 12 5 13 10 4
30 -6 13 -15 24 -20 24 -5 0 -4 -8 1 -18z"/>
<path d="M18160 16580 c0 -6 7 -13 15 -17 24 -9 27 1 5 15 -13 8 -20 8 -20 2z"/>
<path d="M18214 16569 c-4 -7 3 -9 17 -7 25 3 59 -28 59 -53 0 -7 -6 -5 -15 7
-17 23 -20 12 -3 -15 10 -16 14 -17 25 -5 12 12 10 19 -11 47 -25 32 -60 45
-72 26z"/>
<path d="M18240 16501 c0 -5 5 -13 10 -16 6 -3 10 -2 10 4 0 5 -4 13 -10 16
-5 3 -10 2 -10 -4z"/>
<path d="M18280 16450 c0 -5 5 -10 10 -10 6 0 10 5 10 10 0 6 -4 10 -10 10 -5
0 -10 -4 -10 -10z"/>
<path d="M18332 16438 c-15 -15 -16 -32 -2 -23 6 3 10 0 10 -7 0 -10 2 -10 9
1 6 9 11 10 15 2 4 -6 12 -9 17 -5 6 4 6 11 -2 20 -9 12 -15 12 -27 2 -13 -11
-15 -10 -9 5 8 20 5 21 -11 5z"/>
<path d="M18403 16365 c-3 -9 -3 -18 -1 -21 3 -3 8 4 11 16 6 23 -1 27 -10 5z"/>
<path d="M18426 16324 c-6 -21 0 -31 31 -59 63 -56 66 -29 5 48 l-30 37 -6
-26z m35 -26 c11 -13 24 -32 31 -43 9 -16 6 -15 -16 5 -28 26 -51 60 -40 60 3
0 14 -10 25 -22z"/>
<path d="M18330 16330 c0 -5 7 -10 15 -10 8 0 15 5 15 10 0 6 -7 10 -15 10 -8
0 -15 -4 -15 -10z"/>
<path d="M18404 16284 c0 -23 5 -39 10 -36 5 3 15 -3 22 -13 8 -10 17 -15 21
-12 3 4 -5 20 -19 35 -14 15 -28 36 -31 47 -2 11 -4 1 -3 -21z"/>
<path d="M18514 16215 c7 -18 -5 -20 -24 -2 -7 6 -4 -2 8 -19 23 -34 48 -41
48 -13 0 10 -5 15 -10 12 -5 -4 -7 1 -3 10 3 9 -1 18 -10 21 -11 4 -14 2 -9
-9z"/>
<path d="M18480 16181 c0 -6 4 -13 10 -16 6 -3 7 1 4 9 -7 18 -14 21 -14 7z"/>
<path d="M18400 16170 c0 -5 5 -10 10 -10 6 0 10 5 10 10 0 6 -4 10 -10 10 -5
0 -10 -4 -10 -10z"/>
<path d="M18566 16131 c-4 -6 -3 -18 4 -25 8 -11 8 -15 -2 -19 -7 -3 -8 -6 -2
-6 6 -1 19 9 30 22 10 12 15 19 10 15 -5 -4 -14 0 -21 9 -9 12 -14 13 -19 4z"/>
<path d="M18606 16092 c-3 -5 1 -9 9 -9 8 0 12 4 9 9 -3 4 -7 8 -9 8 -2 0 -6
-4 -9 -8z"/>
<path d="M18580 16041 c0 -11 -6 -21 -12 -24 -7 -2 -10 -8 -6 -12 9 -10 38 19
38 39 0 9 -4 16 -10 16 -5 0 -10 -9 -10 -19z"/>
<path d="M18647 16033 c-7 -12 -1 -92 7 -100 4 -4 11 -2 15 5 6 10 11 9 21 -3
7 -9 20 -13 28 -10 10 3 12 0 8 -10 -3 -8 -1 -15 5 -15 6 0 6 -7 -1 -19 -13
-26 -13 -81 1 -81 7 0 9 12 6 33 -3 21 1 38 11 50 9 10 11 17 4 17 -7 0 -12 6
-12 14 0 7 -8 20 -17 27 -11 10 -14 10 -9 2 10 -17 -2 -16 -20 1 -18 19 -18
30 1 22 12 -4 13 -2 2 15 -12 20 -12 20 -21 -5 -6 -14 -13 -26 -18 -26 -4 0
-3 11 2 25 6 15 6 26 0 30 -6 4 -10 11 -10 16 0 6 5 7 12 3 7 -4 8 -3 4 4 -8
14 -13 15 -19 5z"/>
<path d="M18745 15870 c-9 -15 0 -23 28 -27 15 -2 18 0 9 6 -8 4 -13 12 -12
17 2 13 -17 16 -25 4z"/>
<path d="M18790 15815 c0 -8 4 -15 9 -15 4 0 7 -11 6 -24 -3 -19 1 -24 16 -21
21 4 24 -3 9 -25 -8 -12 -10 -12 -10 -1 0 24 -15 1 -15 -24 -1 -19 4 -22 24
-20 14 1 27 8 29 14 3 9 8 8 20 -1 9 -7 4 5 -11 27 -15 22 -32 40 -39 40 -6 0
-13 6 -16 14 -3 9 0 11 8 6 7 -4 4 4 -5 19 -20 30 -25 32 -25 11z m70 -91 c0
-3 -7 -12 -15 -20 -16 -17 -18 -14 -9 10 6 15 24 23 24 10z"/>
<path d="M18720 15690 c0 -5 5 -10 10 -10 6 0 10 5 10 10 0 6 -4 10 -10 10 -5
0 -10 -4 -10 -10z"/>
<path d="M18886 15654 c-13 -34 -7 -51 20 -51 14 0 21 3 15 7 -7 3 -9 13 -6
22 3 8 -1 20 -8 27 -12 9 -16 8 -21 -5z m16 -26 c-7 -7 -12 -8 -12 -2 0 14 12
26 19 19 2 -3 -1 -11 -7 -17z"/>
<path d="M18920 15574 c0 -8 2 -14 4 -14 2 0 11 -3 20 -6 10 -4 16 -1 16 9 0
8 -9 17 -20 20 -13 3 -20 0 -20 -9z"/>
<path d="M18880 15563 c1 -14 27 -43 39 -43 8 0 5 9 -6 25 -18 24 -33 32 -33
18z"/>
<path d="M18945 15530 c-3 -5 3 -10 14 -10 24 0 44 -31 35 -54 -9 -25 -26 -19
-19 7 5 20 5 20 -6 4 -18 -30 5 -45 32 -21 18 15 21 16 17 3 -4 -10 -1 -16 8
-16 12 0 11 5 -2 26 -22 34 -56 71 -65 71 -4 0 -11 -4 -14 -10z"/>
<path d="M18911 15465 c0 -11 4 -27 9 -35 9 -13 11 -13 20 0 14 21 12 30 -4
30 -8 0 -17 6 -19 13 -3 6 -6 3 -6 -8z"/>
<path d="M19041 15414 c0 -11 3 -14 6 -6 3 7 2 16 -1 19 -3 4 -6 -2 -5 -13z"/>
<path d="M19059 15398 c0 -2 -2 -19 -4 -37 -2 -27 -1 -31 7 -18 5 10 13 15 19
12 5 -3 6 1 3 9 -3 9 -10 16 -16 16 -5 0 -6 5 -3 10 3 6 4 10 1 10 -3 0 -6 -1
-7 -2z"/>
<path d="M18990 15370 c0 -5 7 -10 15 -10 8 0 15 5 15 10 0 6 -7 10 -15 10 -8
0 -15 -4 -15 -10z"/>
<path d="M19067 15323 c-11 -18 -4 -63 9 -63 16 0 19 16 4 25 -5 3 -9 14 -9
23 1 16 2 16 6 0 2 -9 11 -19 19 -22 12 -4 12 -2 4 14 -12 23 -27 33 -33 23z"/>
<path d="M19124 15227 c-1 -23 1 -32 3 -19 2 12 9 20 14 16 5 -3 6 -10 3 -16
-8 -12 15 -58 29 -58 6 0 6 5 0 13 -6 6 -13 21 -17 32 -5 16 -3 16 15 -5 11
-14 17 -18 12 -10 -14 25 -55 90 -56 90 -1 0 -3 -19 -3 -43z"/>
<path d="M19124 15153 c1 -22 6 -28 25 -30 13 0 20 2 14 5 -5 4 -16 17 -25 30
l-15 22 1 -27z"/>
<path d="M19186 15134 c-5 -14 -4 -15 9 -4 17 14 19 20 6 20 -5 0 -12 -7 -15
-16z"/>
<path d="M19213 15084 c-7 -7 -13 -21 -12 -31 0 -14 2 -13 9 5 11 26 22 30 18
6 -2 -10 4 -18 14 -19 16 -3 16 -1 1 23 -9 15 -17 28 -17 28 -1 1 -7 -4 -13
-12z"/>
<path d="M19200 14990 c0 -16 5 -30 10 -30 6 0 10 14 10 30 0 17 -4 30 -10 30
-5 0 -10 -13 -10 -30z"/>
<path d="M19289 14971 c-7 -19 21 -79 38 -86 11 -4 11 0 0 23 -8 15 -19 38
-24 52 -7 16 -11 20 -14 11z"/>
<path d="M19283 14908 c1 -15 6 -23 11 -18 4 4 4 16 -2 26 -9 16 -10 14 -9 -8z"/>
<path d="M19363 14810 c2 -14 8 -34 12 -44 6 -13 5 -17 -2 -13 -7 5 -9 -1 -5
-15 5 -19 7 -20 10 -5 5 27 22 9 22 -24 0 -31 14 -39 24 -13 3 9 -3 28 -14 44
-11 15 -20 33 -20 39 0 6 -5 11 -11 11 -5 0 -8 4 -5 8 2 4 0 14 -5 22 -8 12
-9 9 -6 -10z"/>
<path d="M11742 14660 c0 -14 2 -19 5 -12 2 6 2 18 0 25 -3 6 -5 1 -5 -13z"/>
<path d="M19443 14651 c0 -11 5 -18 9 -15 4 3 5 11 1 19 -7 21 -12 19 -10 -4z"/>
<path d="M6715 14613 l2 -23 -353 0 -354 0 0 -465 0 -465 -465 0 -465 0 0
-465 0 -465 -465 0 -465 0 0 -465 0 -465 -465 0 -465 0 0 -3090 0 -3090 5625
0 5625 0 0 465 0 465 465 0 465 0 0 465 0 465 465 0 465 0 0 465 0 465 465 0
465 0 0 3090 0 3090 -2749 0 c-1712 0 -2759 4 -2775 9 -17 7 -26 7 -30 -2 -2
-7 -5 -7 -5 -2 -1 7 -836 9 -2490 7 -2367 -2 -2490 -1 -2494 15 -2 10 -3 8 -2
-4z m10505 -3113 l0 -3050 -5585 0 -5585 0 0 3050 0 3050 5585 0 5585 0 0
-3050z m-11210 -485 l0 -2605 5140 0 5140 0 0 -445 0 -445 -5585 0 -5585 0 0
3050 0 3050 445 0 445 0 0 -2605z m-930 -930 l0 -2605 5140 0 5140 0 0 -445 0
-445 -5585 0 -5585 0 0 3050 0 3050 445 0 445 0 0 -2605z m-930 -930 l0 -2605
5140 0 5140 0 0 -445 0 -445 -5585 0 -5585 0 0 3050 0 3050 445 0 445 0 0
-2605z"/>
<path d="M19461 14603 c0 -17 -6 -35 -12 -39 -9 -5 -10 1 -5 19 5 21 3 25 -9
21 -17 -7 -21 -44 -5 -44 6 0 10 -13 10 -28 0 -38 17 -52 60 -51 l35 1 -34 8
c-47 11 -67 50 -40 77 6 6 9 23 6 39 l-4 29 -2 -32z"/>
<path d="M19360 14590 c0 -16 5 -30 10 -30 6 0 10 14 10 30 0 17 -4 30 -10 30
-5 0 -10 -13 -10 -30z"/>
<path d="M19480 14543 c0 -25 15 -38 25 -22 4 6 0 18 -9 27 -15 15 -16 15 -16
-5z"/>
<path d="M19534 14442 c1 -17 5 -34 9 -38 4 -4 7 -14 7 -23 0 -9 7 -24 14 -34
13 -17 14 -16 19 2 3 12 0 19 -7 18 -6 -1 -11 9 -12 23 0 15 -5 24 -13 22 -8
-1 -10 4 -7 15 3 10 2 24 -3 32 -6 9 -8 4 -7 -17z"/>
<path d="M19525 14373 c14 -35 18 -93 6 -93 -6 0 -11 -9 -11 -20 0 -33 14 -23
28 21 11 34 10 45 -4 75 -17 35 -32 48 -19 17z"/>
<path d="M19604 14292 c3 -6 -1 -17 -9 -25 -19 -20 -19 -31 1 -23 8 3 13 2 10
-3 -3 -5 1 -12 9 -15 11 -4 14 -13 9 -30 -3 -13 -1 -27 4 -30 6 -4 8 3 6 16
l-5 23 12 -22 c7 -13 15 -23 20 -23 11 0 -14 63 -31 78 -8 8 -9 11 -3 7 9 -4
11 -1 7 9 -3 9 -11 13 -17 9 -6 -4 -8 0 -4 10 3 9 1 19 -5 23 -6 4 -8 3 -4 -4z"/>
<path d="M19602 14180 c0 -14 2 -19 5 -12 2 6 2 18 0 25 -3 6 -5 1 -5 -13z"/>
<path d="M19696 14091 c3 -13 2 -21 -2 -18 -15 9 -14 -51 1 -63 12 -10 15 -9
16 6 0 14 4 11 14 -11 8 -16 14 -23 14 -15 0 8 -6 26 -13 39 -13 23 -14 23
-24 5 -14 -24 -16 1 -2 27 8 13 8 24 0 37 -9 14 -10 13 -4 -7z"/>
<path d="M19700 13953 c0 -5 5 -15 10 -23 8 -12 10 -11 10 8 0 12 -4 22 -10
22 -5 0 -10 -3 -10 -7z"/>
<path d="M19768 13853 c-2 -26 -3 -93 -1 -93 5 0 33 65 33 77 0 23 -20 4 -21
-20 -1 -16 -3 -17 -6 -5 -2 9 1 26 7 37 7 14 7 21 0 21 -5 0 -11 -8 -12 -17z"/>
<path d="M19796 13785 c-9 -26 -7 -32 5 -12 6 10 9 21 6 23 -2 3 -7 -2 -11
-11z"/>
<path d="M19865 13631 c6 -18 4 -22 -6 -15 -11 6 -12 5 -2 -7 6 -8 13 -27 16
-44 3 -19 4 -13 4 17 0 26 -4 53 -9 60 -6 8 -7 5 -3 -11z"/>
<path d="M19840 13568 c0 -36 4 -35 14 5 4 16 2 27 -4 27 -5 0 -10 -14 -10
-32z"/>
<path d="M19890 13529 c0 -5 5 -7 10 -4 6 3 10 8 10 11 0 2 -4 4 -10 4 -5 0
-10 -5 -10 -11z"/>
<path d="M17570 13430 c0 -5 7 -10 15 -10 8 0 15 5 15 10 0 6 -7 10 -15 10 -8
0 -15 -4 -15 -10z"/>
<path d="M19870 13426 c0 -22 11 -46 21 -46 5 0 9 14 9 30 0 20 -5 30 -15 30
-8 0 -15 -6 -15 -14z"/>
<path d="M19939 13413 c-5 -25 -7 -74 -3 -70 7 6 13 77 8 77 -2 0 -5 -3 -5 -7z"/>
<path d="M18540 13330 c0 -27 5 -50 10 -50 6 0 10 23 10 50 0 28 -4 50 -10 50
-5 0 -10 -22 -10 -50z"/>
<path d="M18474 13320 c0 -27 4 -40 13 -40 11 0 13 -515 13 -3040 0 -2020 3
-3040 10 -3040 7 0 10 1020 10 3040 0 2020 -3 3040 -10 3040 -5 0 -10 18 -10
40 0 26 -5 40 -13 40 -8 0 -13 -14 -13 -40z"/>
<path d="M19950 13338 c0 -7 -3 -24 -7 -37 -4 -17 -3 -22 5 -17 7 4 12 16 12
27 0 11 4 17 10 14 6 -3 7 1 4 9 -7 19 -24 21 -24 4z"/>
<path d="M18424 10305 l1 -3030 5 3005 5 3005 5 -3005 5 -3005 3 3008 c1 1850
-2 3007 -7 3007 -5 0 -12 10 -14 23 -2 12 -4 -1341 -3 -3008z"/>
<path d="M20010 13148 c12 -14 13 -31 3 -25 -5 3 -9 -9 -10 -26 l-1 -32 15 34
c13 30 13 35 -1 48 -9 7 -11 8 -6 1z"/>
<path d="M20016 13061 c-4 -7 -5 -15 -2 -18 9 -9 19 4 14 18 -4 11 -6 11 -12
0z"/>
<path d="M20020 12934 c0 -22 26 -62 34 -53 2 2 1 21 -2 42 -5 43 -32 53 -32
11z"/>
<path d="M20073 12863 c-15 -5 -18 -63 -4 -63 5 0 12 6 14 13 3 6 6 2 6 -10 1
-13 6 -23 12 -23 6 0 9 -9 6 -19 -2 -10 -1 -24 3 -31 4 -7 10 1 14 22 4 20 2
34 -4 36 -10 4 -40 54 -40 67 0 3 5 3 10 0 6 -3 10 -1 10 4 0 12 -7 13 -27 4z"/>
<path d="M20085 12730 c-3 -5 -1 -10 4 -10 6 0 11 5 11 10 0 6 -2 10 -4 10 -3
0 -8 -4 -11 -10z"/>
<path d="M20169 12551 c10 -17 10 -25 2 -30 -7 -5 -9 -24 -4 -57 6 -46 7 -47
14 -19 3 17 10 39 14 50 l8 20 -17 -20 -18 -20 7 20 c16 45 16 52 -1 66 -16
13 -16 12 -5 -10z"/>
<path d="M20191 12434 c0 -11 3 -14 6 -6 3 7 2 16 -1 19 -3 4 -6 -2 -5 -13z"/>
<path d="M20241 12254 c0 -11 3 -14 6 -6 3 7 2 16 -1 19 -3 4 -6 -2 -5 -13z"/>
<path d="M20253 12180 c0 -25 2 -35 4 -22 2 12 2 32 0 45 -2 12 -4 2 -4 -23z"/>
<path d="M20214 12129 c3 -17 6 -53 6 -80 0 -48 14 -67 23 -31 4 16 5 16 6 0
0 -10 5 -18 10 -18 4 0 6 12 3 26 -3 16 -9 23 -18 20 -15 -6 -19 9 -5 18 4 3
7 16 6 28 -1 13 -3 33 -4 46 0 13 -7 22 -17 22 -13 0 -15 -7 -10 -31z"/>
<path d="M20262 12065 c6 -13 15 -22 19 -19 5 2 1 14 -9 24 -22 26 -24 25 -10
-5z"/>
<path d="M20281 12014 c0 -11 3 -14 6 -6 3 7 2 16 -1 19 -3 4 -6 -2 -5 -13z"/>
<path d="M20321 11794 c0 -11 3 -14 6 -6 3 7 2 16 -1 19 -3 4 -6 -2 -5 -13z"/>
<path d="M20322 11740 c0 -14 2 -19 5 -12 2 6 2 18 0 25 -3 6 -5 1 -5 -13z"/>
<path d="M20332 11650 c0 -19 2 -27 5 -17 2 9 2 25 0 35 -3 9 -5 1 -5 -18z"/>
<path d="M20346 11605 c-3 -9 -6 -22 -5 -28 0 -7 5 -1 10 12 5 13 8 26 5 28
-2 2 -6 -3 -10 -12z"/>
<path d="M20332 11540 c0 -14 2 -19 5 -12 2 6 2 18 0 25 -3 6 -5 1 -5 -13z"/>
<path d="M20342 11470 c0 -19 2 -27 5 -17 2 9 2 25 0 35 -3 9 -5 1 -5 -18z"/>
<path d="M20362 11465 c0 -16 2 -22 5 -12 2 9 2 23 0 30 -3 6 -5 -1 -5 -18z"/>
<path d="M20380 11160 c0 -22 5 -40 10 -40 6 0 10 18 10 40 0 22 -4 40 -10 40
-5 0 -10 -18 -10 -40z"/>
<path d="M20320 11080 c0 -22 5 -40 10 -40 6 0 10 18 10 40 0 22 -4 40 -10 40
-5 0 -10 -18 -10 -40z"/>
<path d="M20411 11024 c0 -11 3 -14 6 -6 3 7 2 16 -1 19 -3 4 -6 -2 -5 -13z"/>
<path d="M20406 10845 c-3 -9 -5 -33 -5 -53 1 -34 2 -33 10 13 8 51 6 68 -5
40z"/>
<path d="M20421 10674 c1 -38 4 -80 9 -94 4 -14 5 16 2 65 -6 108 -12 126 -11
29z"/>
<path d="M20402 10615 c0 -16 2 -22 5 -12 2 9 2 23 0 30 -3 6 -5 -1 -5 -18z"/>
<path d="M20355 10557 c-3 -12 -4 -54 -2 -92 l3 -70 2 83 c1 47 6 82 12 82 6
0 10 5 10 10 0 20 -20 10 -25 -13z"/>
<path d="M20408 10545 c2 -14 6 -25 8 -25 2 0 4 11 4 25 0 14 -4 25 -9 25 -4
0 -6 -11 -3 -25z"/>
<path d="M20428 10510 c-7 -24 -3 -38 8 -28 3 4 4 17 2 30 l-3 23 -7 -25z"/>
<path d="M20402 10480 c0 -19 2 -27 5 -17 2 9 2 25 0 35 -3 9 -5 1 -5 -18z"/>
<path d="M20320 10240 c0 -100 4 -160 10 -160 6 0 10 60 10 160 0 100 -4 160
-10 160 -6 0 -10 -60 -10 -160z"/>
<path d="M20384 10240 c0 -91 2 -128 3 -82 2 45 2 119 0 165 -1 45 -3 8 -3
-83z"/>
<path d="M20411 10384 c0 -11 3 -14 6 -6 3 7 2 16 -1 19 -3 4 -6 -2 -5 -13z"/>
<path d="M20443 10260 c0 -25 2 -35 4 -22 2 12 2 32 0 45 -2 12 -4 2 -4 -23z"/>
<path d="M20411 10094 c0 -11 3 -14 6 -6 3 7 2 16 -1 19 -3 4 -6 -2 -5 -13z"/>
<path d="M20352 10005 c-2 -77 8 -118 25 -102 4 5 2 11 -4 15 -7 5 -14 41 -16
87 l-3 80 -2 -80z"/>
<path d="M20402 10000 c0 -19 2 -27 5 -17 2 9 2 25 0 35 -3 9 -5 1 -5 -18z"/>
<path d="M20421 9993 c0 -5 4 -17 9 -28 8 -18 9 -17 9 8 1 15 -3 27 -9 27 -5
0 -10 -3 -9 -7z"/>
<path d="M20408 9935 c-3 -14 -1 -25 3 -25 5 0 9 11 9 25 0 14 -2 25 -4 25 -2
0 -6 -11 -8 -25z"/>
<path d="M20426 9889 c-3 -17 -5 -59 -5 -93 2 -55 3 -52 9 29 8 95 7 116 -4
64z"/>
<path d="M20402 9865 c0 -16 2 -22 5 -12 2 9 2 23 0 30 -3 6 -5 -1 -5 -18z"/>
<path d="M20400 9684 c0 -21 5 -46 10 -54 7 -10 8 1 4 35 -8 62 -14 70 -14 19z"/>
<path d="M20320 9400 c0 -22 5 -40 10 -40 6 0 10 18 10 40 0 22 -4 40 -10 40
-5 0 -10 -18 -10 -40z"/>
<path d="M20393 9364 c-15 -15 -18 -84 -4 -84 7 0 22 87 17 96 -1 1 -7 -4 -13
-12z"/>
<path d="M20342 9010 c0 -19 2 -27 5 -17 2 9 2 25 0 35 -3 9 -5 1 -5 -18z"/>
<path d="M20362 9015 c0 -16 2 -22 5 -12 2 9 2 23 0 30 -3 6 -5 -1 -5 -18z"/>
<path d="M20332 8940 c0 -14 2 -19 5 -12 2 6 2 18 0 25 -3 6 -5 1 -5 -13z"/>
<path d="M20341 8894 c0 -11 3 -14 6 -6 3 7 2 16 -1 19 -3 4 -6 -2 -5 -13z"/>
<path d="M20332 8830 c0 -19 2 -27 5 -17 2 9 2 25 0 35 -3 9 -5 1 -5 -18z"/>
<path d="M20322 8740 c0 -14 2 -19 5 -12 2 6 2 18 0 25 -3 6 -5 1 -5 -13z"/>
<path d="M20220 8431 c0 -27 -3 -63 -6 -80 -5 -24 -3 -31 10 -31 10 0 17 9 17
23 1 12 3 32 4 45 1 12 -2 25 -6 28 -14 9 -10 24 5 18 9 -3 15 4 18 20 6 29
-8 36 -15 9 -4 -17 -5 -17 -6 0 0 9 -5 17 -11 17 -5 0 -10 -22 -10 -49z"/>
<path d="M20261 8413 c-10 -26 -10 -27 4 -9 8 11 15 23 15 28 0 15 -7 8 -19
-19z"/>
<path d="M20252 8320 c0 -14 2 -19 5 -12 2 6 2 18 0 25 -3 6 -5 1 -5 -13z"/>
<path d="M20170 8043 c0 -11 -3 -35 -6 -52 -4 -21 -3 -31 5 -31 8 0 10 8 6 21
-5 14 -3 19 4 15 7 -5 9 3 4 26 -7 40 -13 49 -13 21z"/>
<path d="M20191 8044 c0 -11 3 -14 6 -6 3 7 2 16 -1 19 -3 4 -6 -2 -5 -13z"/>
<path d="M20166 7923 c-6 -14 -5 -15 5 -6 7 7 10 15 7 18 -3 3 -9 -2 -12 -12z"/>
<path d="M20085 7750 c3 -5 8 -10 11 -10 2 0 4 5 4 10 0 6 -5 10 -11 10 -5 0
-7 -4 -4 -10z"/>
<path d="M20110 7750 c-1 -8 -2 -23 -1 -32 1 -10 -3 -18 -8 -18 -6 0 -11 -10
-12 -22 0 -13 -3 -17 -6 -10 -9 23 -23 12 -23 -18 0 -16 2 -30 4 -30 2 0 11
-3 20 -6 9 -3 16 -1 16 6 0 6 -4 8 -10 5 -16 -10 -12 7 11 44 13 21 19 45 16
65 -2 17 -5 24 -7 16z"/>
<path d="M20033 7585 c-18 -20 -17 -65 2 -65 9 0 15 9 15 24 0 13 3 31 6 40 8
20 -7 20 -23 1z"/>
<path d="M20010 7431 c0 -6 5 -13 10 -16 6 -3 10 1 10 9 0 9 -4 16 -10 16 -5
0 -10 -4 -10 -9z"/>
<path d="M20003 7383 c1 -19 6 -28 11 -23 6 6 5 18 -2 32 -10 22 -10 21 -9 -9z"/>
<path d="M18440 7260 c0 -5 5 -10 10 -10 6 0 10 5 10 10 0 6 -4 10 -10 10 -5
0 -10 -4 -10 -10z"/>
<path d="M18470 7234 c0 -10 -6 -14 -15 -10 -8 3 -15 1 -15 -4 0 -6 9 -10 20
-10 13 0 20 7 20 20 0 11 -2 20 -5 20 -3 0 -5 -7 -5 -16z"/>
<path d="M17495 5130 c0 -1141 1 -1608 2 -1038 2 571 2 1505 0 2075 -1 571 -2
104 -2 -1037z"/>
<path d="M19941 7188 c1 -7 5 -24 9 -38 8 -24 8 -24 9 7 1 17 -3 35 -9 38 -5
3 -10 0 -9 -7z"/>
<path d="M19932 7111 c0 -17 1 -31 3 -31 7 0 12 39 5 49 -4 7 -7 -1 -8 -18z"/>
<path d="M19876 7084 c-10 -27 -7 -44 9 -44 10 0 15 10 15 30 0 32 -14 40 -24
14z"/>
<path d="M19841 6913 c-1 -18 4 -33 10 -33 5 0 7 -5 3 -12 -4 -7 -3 -8 5 -4 6
4 9 12 5 17 -3 6 -10 23 -14 37 -8 27 -8 27 -9 -5z"/>
<path d="M19872 6915 c0 -16 2 -22 5 -12 2 9 2 23 0 30 -3 6 -5 -1 -5 -18z"/>
<path d="M19766 6682 c1 -63 3 -69 15 -49 10 17 4 73 -9 81 -4 2 -7 -12 -6
-32z m11 -34 c-3 -7 -5 -2 -5 12 0 14 2 19 5 13 2 -7 2 -19 0 -25z"/>
<path d="M19790 6711 c0 -6 4 -13 10 -16 6 -3 7 1 4 9 -7 18 -14 21 -14 7z"/>
<path d="M19707 6546 c-4 -10 -5 -21 -2 -24 9 -9 17 6 13 25 -3 17 -4 17 -11
-1z"/>
<path d="M19692 6468 c-12 -15 -11 -69 1 -61 4 2 4 16 1 31 -4 21 -3 24 5 12
9 -12 11 -11 11 8 0 25 -3 27 -18 10z"/>
<path d="M19602 6300 c0 -14 2 -19 5 -12 2 6 2 18 0 25 -3 6 -5 1 -5 -13z"/>
<path d="M19623 6304 c-3 -8 -2 -19 3 -24 5 -5 9 1 9 16 0 28 -3 30 -12 8z"/>
<path d="M19603 6247 c-26 -11 -29 -22 -10 -30 7 -3 19 4 26 15 16 25 12 28
-16 15z"/>
<path d="M19520 6220 c0 -11 5 -20 10 -20 13 0 13 -41 0 -76 -16 -40 -5 -40
14 0 14 30 15 41 4 75 -14 44 -28 54 -28 21z"/>
<path d="M19561 6122 c-8 -15 -18 -35 -23 -45 -5 -11 -7 -21 -5 -23 2 -3 14
16 26 42 12 25 20 48 18 50 -2 2 -9 -8 -16 -24z"/>
<path d="M19452 5988 c-7 -7 -12 -25 -12 -40 0 -15 -4 -28 -10 -28 -16 0 -12
-37 5 -44 12 -4 14 0 9 22 -5 26 -5 26 10 8 9 -11 16 -15 16 -10 0 6 -5 15
-11 21 -19 19 -2 60 28 71 l28 10 -25 1 c-15 1 -31 -4 -38 -11z"/>
<path d="M19487 5963 c-4 -3 -7 -13 -7 -22 1 -13 3 -13 11 2 11 19 8 33 -4 20z"/>
<path d="M19360 5890 c0 -16 5 -30 10 -30 6 0 10 14 10 30 0 17 -4 30 -10 30
-5 0 -10 -13 -10 -30z"/>
<path d="M19400 5778 c0 -19 2 -20 10 -8 13 19 13 30 0 30 -5 0 -10 -10 -10
-22z"/>
<path d="M19368 5742 c-3 -11 0 -19 7 -19 7 0 10 8 7 19 -2 10 -6 18 -7 18 -1
0 -5 -8 -7 -18z"/>
<path d="M19284 5572 c-1 -15 1 -21 3 -14 3 6 9 9 15 6 6 -4 5 2 -1 15 -15 27
-16 27 -17 -7z"/>
<path d="M19200 5490 c0 -16 5 -30 10 -30 6 0 10 14 10 30 0 17 -4 30 -10 30
-5 0 -10 -13 -10 -30z"/>
<path d="M19200 5420 c0 -11 4 -20 9 -20 5 0 7 9 4 20 -3 11 -7 20 -9 20 -2 0
-4 -9 -4 -20z"/>
<path d="M19124 5327 l-1 -27 15 22 c9 13 20 26 25 30 6 3 -1 5 -14 5 -19 -2
-24 -8 -25 -30z"/>
<path d="M19150 5305 c-7 -14 -11 -28 -8 -31 3 -3 13 9 21 25 18 37 6 42 -13
6z"/>
<path d="M19122 5270 c0 -14 2 -19 5 -12 2 6 2 18 0 25 -3 6 -5 1 -5 -13z"/>
<path d="M19063 5188 c2 -39 14 -42 35 -10 13 20 13 22 -1 16 -9 -3 -18 -13
-20 -22 -4 -16 -5 -16 -6 0 0 9 4 20 9 23 15 9 12 25 -4 25 -10 0 -14 -10 -13
-32z"/>
<path d="M19050 5141 c0 -6 4 -13 10 -16 6 -3 7 1 4 9 -7 18 -14 21 -14 7z"/>
<path d="M18990 5110 c0 -5 7 -10 15 -10 8 0 15 5 15 10 0 6 -7 10 -15 10 -8
0 -15 -4 -15 -10z"/>
<path d="M18916 5044 c-3 -9 -6 -23 -5 -32 0 -11 2 -12 6 -4 2 6 11 12 19 12
8 0 14 2 14 4 0 12 -13 36 -20 36 -4 0 -11 -7 -14 -16z"/>
<path d="M18965 5031 c-3 -6 -1 -19 5 -28 9 -16 10 -15 5 5 -6 22 9 32 18 12
3 -6 4 -5 3 2 -3 16 -23 22 -31 9z"/>
<path d="M18892 4940 c-24 -38 -6 -42 21 -5 13 18 14 25 5 25 -7 0 -19 -9 -26
-20z"/>
<path d="M18945 4950 c3 -5 8 -10 11 -10 2 0 4 5 4 10 0 6 -5 10 -11 10 -5 0
-7 -4 -4 -10z"/>
<path d="M18931 4921 c-7 -5 -12 -14 -10 -20 2 -6 10 -2 17 9 14 22 13 23 -7
11z"/>
<path d="M18881 4852 c0 -16 3 -21 6 -12 4 8 13 20 20 25 12 9 10 11 -6 12
-17 1 -21 -4 -20 -25z"/>
<path d="M6711 4823 c2 -24 2 -25 6 -5 l4 22 2480 0 c1646 0 2479 -3 2479 -10
0 -5 5 -10 10 -10 6 0 10 7 10 15 0 13 -284 15 -2495 15 l-2495 0 1 -27z"/>
<path d="M11710 4835 c0 -8 6 -15 14 -15 8 0 16 7 20 15 4 10 -1 15 -14 15
-11 0 -20 -7 -20 -15z"/>
<path d="M11735 2470 c0 -1286 3 -2332 7 -2322 9 23 10 4662 1 4662 -5 0 -8
-1053 -8 -2340z"/>
<path d="M11715 2480 c0 -1279 1 -1802 2 -1163 2 640 2 1686 0 2325 -1 640 -2
117 -2 -1162z"/>
<path d="M18720 4790 c0 -5 5 -10 10 -10 6 0 10 5 10 10 0 6 -4 10 -10 10 -5
0 -10 -4 -10 -10z"/>
<path d="M18805 4774 c0 -23 15 -47 15 -25 0 7 4 10 8 7 4 -2 13 4 20 15 7 10
9 20 5 20 -42 7 -49 5 -48 -17z"/>
<path d="M18803 4715 c0 -8 4 -12 9 -9 5 3 6 10 3 15 -9 13 -12 11 -12 -6z"/>
<path d="M18720 4648 c0 -50 14 -64 28 -31 11 25 11 26 -2 9 -14 -17 -15 -16
-9 18 4 23 2 36 -6 36 -6 0 -11 -15 -11 -32z"/>
<path d="M18690 4545 c-10 -13 -15 -13 -21 -3 -4 7 -11 9 -15 5 -10 -9 -13
-87 -3 -82 4 3 6 18 5 35 -2 32 10 41 17 13 4 -17 5 -17 6 0 0 9 5 17 10 17 5
0 11 7 15 15 7 19 2 19 -14 0z"/>
<path d="M18560 4470 c0 -5 5 -10 10 -10 6 0 10 -9 10 -20 0 -11 5 -20 10 -20
15 0 12 29 -4 46 -17 16 -26 18 -26 4z"/>
<path d="M18563 4380 c1 -11 4 -20 8 -20 10 0 19 27 12 34 -12 12 -22 5 -20
-14z"/>
<path d="M18400 4310 c0 -5 5 -10 10 -10 6 0 10 5 10 10 0 6 -4 10 -10 10 -5
0 -10 -4 -10 -10z"/>
<path d="M18484 4311 c-2 -2 -4 -9 -4 -15 0 -6 5 -4 11 4 9 12 10 11 6 -7 -3
-15 -1 -20 9 -16 8 3 14 12 14 20 0 8 4 12 9 8 5 -3 12 -2 15 3 5 8 -52 11
-60 3z"/>
<path d="M18436 4244 c-3 -9 -12 -14 -19 -11 -8 3 -12 -8 -13 -37 -1 -22 1
-31 3 -20 2 12 15 32 29 45 25 23 31 39 15 39 -5 0 -12 -7 -15 -16z"/>
<path d="M18457 4215 c-22 -19 -37 -39 -35 -44 1 -5 20 11 41 35 46 53 45 55
-6 9z"/>
<path d="M18330 4150 c0 -5 7 -10 15 -10 8 0 15 5 15 10 0 6 -7 10 -15 10 -8
0 -15 -4 -15 -10z"/>
<path d="M18340 4071 c0 -7 -4 -9 -10 -6 -5 3 -10 2 -10 -4 0 -5 4 -12 9 -15
10 -6 25 24 16 32 -3 3 -5 0 -5 -7z"/>
<path d="M18280 4030 c0 -5 5 -10 10 -10 6 0 10 5 10 10 0 6 -4 10 -10 10 -5
0 -10 -4 -10 -10z"/>
<path d="M18247 3993 c-4 -3 -7 -11 -7 -17 0 -6 5 -5 12 2 6 6 9 14 7 17 -3 3
-9 2 -12 -2z"/>
<path d="M18271 3979 c-7 -12 -10 -23 -8 -26 3 -3 11 5 17 17 15 28 8 35 -9 9z"/>
<path d="M18165 3909 c-11 -17 -2 -18 19 -3 17 12 17 14 4 14 -9 0 -20 -5 -23
-11z"/>
<path d="M18218 3908 c9 -9 15 -9 24 0 9 9 7 12 -12 12 -19 0 -21 -3 -12 -12z"/>
<path d="M18195 3880 c3 -5 8 -10 11 -10 2 0 4 5 4 10 0 6 -5 10 -11 10 -5 0
-7 -4 -4 -10z"/>
<path d="M18170 3849 c0 -11 4 -18 10 -14 5 3 7 12 3 20 -7 21 -13 19 -13 -6z"/>
<path d="M18080 3830 c0 -5 5 -10 10 -10 6 0 10 5 10 10 0 6 -4 10 -10 10 -5
0 -10 -4 -10 -10z"/>
<path d="M18083 3743 c-9 -22 2 -25 20 -5 15 17 16 19 1 19 -9 0 -18 -7 -21
-14z"/>
<path d="M17920 3670 c0 -5 5 -10 10 -10 6 0 10 5 10 10 0 6 -4 10 -10 10 -5
0 -10 -4 -10 -10z"/>
<path d="M18017 3667 c3 -5 -1 -13 -8 -18 -7 -4 -11 -10 -8 -13 3 -3 15 4 27
17 20 21 20 23 2 23 -10 0 -16 -4 -13 -9z"/>
<path d="M17960 3630 c0 -5 7 -10 15 -10 8 0 15 5 15 10 0 6 -7 10 -15 10 -8
0 -15 -4 -15 -10z"/>
<path d="M17923 3584 c-3 -8 -2 -19 3 -24 5 -5 9 1 9 16 0 28 -3 30 -12 8z"/>
<path d="M17950 3585 c-7 -9 -8 -15 -2 -15 5 0 12 7 16 15 3 8 4 15 2 15 -2 0
-9 -7 -16 -15z"/>
<path d="M17800 3500 c0 -11 5 -20 10 -20 6 0 10 5 10 11 0 6 7 9 14 6 10 -4
13 -1 9 9 -8 22 -43 18 -43 -6z"/>
<path d="M17860 3479 c0 -5 5 -7 10 -4 6 3 10 8 10 11 0 2 -4 4 -10 4 -5 0
-10 -5 -10 -11z"/>
<path d="M17765 3443 c4 -10 9 -27 12 -38 4 -16 3 -17 -6 -5 -7 9 -11 10 -11
3 0 -17 20 -27 31 -16 10 10 -10 73 -24 73 -5 0 -6 -8 -2 -17z"/>
<path d="M17806 3427 c3 -10 9 -15 12 -12 3 3 0 11 -7 18 -10 9 -11 8 -5 -6z"/>
<path d="M17755 3360 c-3 -5 -1 -10 4 -10 6 0 11 5 11 10 0 6 -2 10 -4 10 -3
0 -8 -4 -11 -10z"/>
<path d="M17600 3350 c0 -5 5 -10 10 -10 6 0 10 5 10 10 0 6 -4 10 -10 10 -5
0 -10 -4 -10 -10z"/>
<path d="M17681 3343 c-1 -12 4 -25 9 -28 12 -7 12 2 0 30 -8 19 -9 19 -9 -2z"/>
<path d="M17710 3351 c0 -6 5 -13 10 -16 6 -3 10 1 10 9 0 9 -4 16 -10 16 -5
0 -10 -4 -10 -9z"/>
<path d="M17638 3273 c7 -3 16 -2 19 1 4 3 -2 6 -13 5 -11 0 -14 -3 -6 -6z"/>
<path d="M17658 3263 c-16 -2 -28 -9 -28 -14 0 -11 39 -2 55 12 5 5 7 8 5 8
-3 -1 -17 -4 -32 -6z"/>
<path d="M17611 3214 c0 -11 3 -14 6 -6 3 7 2 16 -1 19 -3 4 -6 -2 -5 -13z"/>
<path d="M17527 3183 c3 -7 9 -13 14 -13 5 0 6 -12 3 -26 -5 -19 -4 -25 5 -20
6 4 11 14 11 22 0 8 6 14 13 14 8 0 7 4 -3 10 -13 9 -13 11 0 20 11 7 7 9 -16
7 -20 -1 -30 -6 -27 -14z"/>
<path d="M17590 3184 c0 -8 5 -12 10 -9 6 4 8 11 5 16 -9 14 -15 11 -15 -7z"/>
<path d="M17510 3150 c0 -5 5 -10 10 -10 6 0 10 5 10 10 0 6 -4 10 -10 10 -5
0 -10 -4 -10 -10z"/>
<path d="M6745 634 c11 -3 33 -10 48 -16 20 -8 31 -8 39 0 7 7 3 10 -13 10
-13 1 -40 3 -59 6 -19 3 -26 3 -15 0z"/>
<path d="M6897 633 c-16 -3 -26 -10 -24 -16 5 -16 52 -21 74 -8 14 9 8 10 -27
6 -25 -2 -36 -2 -25 1 11 3 24 10 30 15 5 5 7 8 5 8 -3 -1 -18 -4 -33 -6z"/>
<path d="M6840 596 c0 -2 9 -6 20 -9 11 -3 18 -1 14 4 -5 9 -34 13 -34 5z"/>
<path d="M7040 590 c0 -5 14 -10 30 -10 17 0 30 5 30 10 0 6 -13 10 -30 10
-16 0 -30 -4 -30 -10z"/>
<path d="M6920 581 c-21 -6 -13 -10 50 -30 41 -13 101 -32 134 -43 32 -10 61
-17 64 -13 3 3 0 5 -7 5 -8 0 -11 7 -7 15 3 9 0 15 -8 15 -8 0 -16 -6 -19 -12
-2 -7 -7 -10 -11 -7 -4 4 1 15 11 25 17 17 17 18 0 11 -10 -4 -21 -7 -23 -7
-3 0 -2 -5 2 -11 4 -7 -1 -9 -12 -7 -11 2 -18 9 -17 15 1 6 -9 8 -24 5 -16 -3
-24 -1 -20 5 4 6 -4 9 -19 7 -15 -1 -28 4 -31 12 -3 9 -12 13 -20 10 -8 -3
-11 -1 -8 4 7 11 2 11 -35 1z"/>
<path d="M7158 553 c6 -2 12 -11 12 -19 0 -8 5 -14 10 -14 6 0 10 4 10 8 0 12
-22 32 -34 31 -6 0 -5 -3 2 -6z"/>
<path d="M7287 463 c6 -15 23 -17 23 -4 0 5 8 12 18 14 9 2 3 4 -14 3 -21 -1
-30 -5 -27 -13z"/>
<path d="M7368 473 c6 -2 18 -2 25 0 6 3 1 5 -13 5 -14 0 -19 -2 -12 -5z"/>
<path d="M7418 463 c7 -3 16 -2 19 1 4 3 -2 6 -13 5 -11 0 -14 -3 -6 -6z"/>
<path d="M7334 453 c14 -4 15 -7 6 -13 -7 -5 -2 -7 15 -7 16 0 22 3 15 7 -9 6
-9 9 1 12 8 3 -2 5 -21 5 -19 0 -26 -2 -16 -4z"/>
<path d="M7520 440 c0 -17 7 -20 40 -20 22 0 40 5 40 10 0 6 -7 10 -15 10 -8
0 -15 5 -15 10 0 6 -11 10 -25 10 -18 0 -25 -5 -25 -20z"/>
<path d="M7398 443 c7 -3 16 -2 19 1 4 3 -2 6 -13 5 -11 0 -14 -3 -6 -6z"/>
<path d="M7410 429 c-22 -5 -23 -7 -7 -14 10 -4 21 -5 24 -1 3 3 12 1 20 -5
17 -14 17 -2 1 15 -8 7 -23 9 -38 5z"/>
<path d="M7620 410 c0 -5 -10 -19 -22 -30 -15 -14 -17 -19 -7 -15 10 4 20 2
24 -4 3 -6 14 -11 23 -11 12 1 10 5 -8 15 -14 8 -19 14 -12 15 8 0 10 5 6 12
-5 8 -2 9 9 5 20 -7 47 1 47 14 0 5 -13 9 -30 9 -16 0 -30 -4 -30 -10z"/>
<path d="M7490 395 c0 -7 30 -13 34 -7 3 4 -4 9 -15 9 -10 1 -19 0 -19 -2z"/>
<path d="M7650 380 c-11 -7 -5 -8 20 -4 43 8 51 14 19 14 -13 0 -31 -5 -39
-10z"/>
<path d="M7695 370 c-28 -7 -29 -8 -5 -10 l25 -2 -25 -8 c-15 -5 -18 -8 -8 -9
9 -1 24 -4 32 -7 12 -5 15 -2 10 10 -4 11 1 19 17 25 21 8 21 10 4 9 -11 0
-33 -4 -50 -8z"/>
<path d="M7818 313 c7 -3 16 -2 19 1 4 3 -2 6 -13 5 -11 0 -14 -3 -6 -6z"/>
<path d="M7853 310 c2 -8 14 -16 28 -17 19 -1 20 -1 4 4 -11 3 -24 10 -28 17
-6 7 -7 6 -4 -4z"/>
<path d="M7913 307 c-3 -5 -1 -12 3 -16 12 -11 135 -44 141 -38 5 6 -97 37
-121 37 -9 0 -16 4 -16 8 0 5 20 6 43 2 30 -4 44 -3 44 5 0 14 -86 15 -94 2z"/>
<path d="M8028 303 c6 -2 18 -2 25 0 6 3 1 5 -13 5 -14 0 -19 -2 -12 -5z"/>
<path d="M8028 283 c6 -2 18 -2 25 0 6 3 1 5 -13 5 -14 0 -19 -2 -12 -5z"/>
<path d="M8070 266 c0 -2 7 -9 15 -16 9 -7 15 -8 15 -2 0 5 -7 12 -15 16 -8 3
-15 4 -15 2z"/>
<path d="M8320 251 c0 -5 15 -12 33 -16 29 -6 30 -8 12 -16 -17 -8 -17 -9 5
-4 14 2 32 5 40 6 8 0 4 5 -10 10 -22 7 -20 8 10 5 19 -2 44 -7 55 -10 16 -5
15 -4 -2 5 -13 7 -23 16 -23 21 0 13 -58 9 -64 -4 -5 -10 -7 -10 -12 0 -6 14
-44 17 -44 3z"/>
<path d="M8160 230 c36 -12 62 -12 55 0 -3 6 -23 10 -43 9 -33 -1 -34 -2 -12
-9z"/>
<path d="M8233 227 c0 -9 11 -11 35 -9 24 3 39 0 47 -11 12 -17 115 -32 115
-17 0 11 -17 13 -62 10 -34 -2 -56 9 -39 20 7 4 -5 7 -25 8 -20 1 -44 4 -54 7
-10 3 -17 0 -17 -8z"/>
<path d="M8278 203 c7 -3 16 -2 19 1 4 3 -2 6 -13 5 -11 0 -14 -3 -6 -6z"/>
<path d="M8458 193 c7 -3 16 -2 19 1 4 3 -2 6 -13 5 -11 0 -14 -3 -6 -6z"/>
<path d="M8448 173 c6 -2 18 -2 25 0 6 3 1 5 -13 5 -14 0 -19 -2 -12 -5z"/>
<path d="M8578 153 c7 -3 16 -2 19 1 4 3 -2 6 -13 5 -11 0 -14 -3 -6 -6z"/>
<path d="M8660 152 c0 -16 12 -21 71 -26 30 -3 79 -10 109 -15 52 -9 181 6
197 23 10 9 -17 7 -82 -9 -71 -17 -85 -18 -65 -4 12 8 11 9 -5 5 -11 -3 -40
-2 -65 3 l-45 9 50 2 c28 1 59 5 70 10 15 7 11 8 -15 5 -58 -8 -163 -8 -192 0
-18 5 -28 3 -28 -3z m37 -8 c-3 -3 -12 -4 -19 -1 -8 3 -5 6 6 6 11 1 17 -2 13
-5z"/>
<path d="M9360 150 c0 -5 18 -10 40 -10 22 0 40 5 40 10 0 6 -18 10 -40 10
-22 0 -40 -4 -40 -10z"/>
<path d="M11040 150 c0 -5 18 -10 40 -10 22 0 40 5 40 10 0 6 -18 10 -40 10
-22 0 -40 -4 -40 -10z"/>
<path d="M11585 150 c19 -8 103 -14 94 -6 -2 2 -29 6 -59 9 -34 3 -47 2 -35
-3z"/>
<path d="M9140 130 c0 -5 9 -10 20 -10 11 0 20 5 20 10 0 6 -9 10 -20 10 -11
0 -20 -4 -20 -10z"/>
<path d="M11300 130 c0 -5 9 -10 20 -10 11 0 20 5 20 10 0 6 -9 10 -20 10 -11
0 -20 -4 -20 -10z"/>
<path d="M11443 134 c17 -17 145 -31 206 -23 88 13 90 20 4 17 -39 -2 -66 -6
-60 -10 18 -11 -1 -9 -68 7 -65 16 -92 18 -82 9z"/>
<path d="M9760 110 c0 -7 167 -10 480 -10 313 0 480 3 480 10 0 7 -167 10
-480 10 -313 0 -480 -3 -480 -10z"/>
<path d="M8950 100 c-11 -7 -4 -9 25 -9 22 1 52 -2 68 -6 16 -4 27 -3 27 3 0
20 -92 30 -120 12z"/>
<path d="M11430 100 c-24 -15 -3 -24 28 -11 16 7 42 9 58 6 22 -5 25 -4 14 4
-18 13 -80 14 -100 1z"/>
<path d="M9280 90 c0 -5 -17 -11 -37 -11 l-38 -2 35 -6 c19 -4 40 -3 47 2 6 4
33 6 60 3 26 -3 40 -3 31 0 -10 3 -18 10 -18 15 0 5 -18 9 -40 9 -22 0 -40 -4
-40 -10z"/>
<path d="M11120 91 c0 -5 -8 -11 -17 -13 -10 -2 32 -4 92 -4 61 0 86 2 58 3
-29 2 -53 8 -53 14 0 5 -18 9 -40 9 -22 0 -40 -4 -40 -9z"/>
<path d="M9113 73 c9 -2 23 -2 30 0 6 3 -1 5 -18 5 -16 0 -22 -2 -12 -5z"/>
<path d="M9178 73 c7 -3 16 -2 19 1 4 3 -2 6 -13 5 -11 0 -14 -3 -6 -6z"/>
<path d="M9658 73 c7 -3 16 -2 19 1 4 3 -2 6 -13 5 -11 0 -14 -3 -6 -6z"/>
<path d="M10808 73 c7 -3 16 -2 19 1 4 3 -2 6 -13 5 -11 0 -14 -3 -6 -6z"/>
<path d="M11343 73 c9 -2 23 -2 30 0 6 3 -1 5 -18 5 -16 0 -22 -2 -12 -5z"/>
<path d="M9580 59 c-14 -6 -37 -8 -52 -5 -15 3 -30 1 -33 -4 -3 -6 5 -10 18
-10 13 0 46 -3 72 -7 36 -5 46 -3 41 6 -4 7 -17 9 -29 6 -16 -5 -18 -4 -8 3 7
6 41 7 75 5 33 -3 59 -3 56 -1 -11 11 -117 16 -140 7z"/>
<path d="M10805 60 c-36 -7 -34 -7 16 -5 31 2 63 -1 70 -7 10 -7 8 -8 -8 -3
-12 3 -25 1 -29 -6 -5 -9 5 -11 41 -6 26 4 60 8 74 8 16 1 8 5 -19 9 -25 4
-58 10 -75 13 -16 2 -48 1 -70 -3z"/>
<path d="M9368 53 c23 -2 59 -2 80 0 20 2 1 4 -43 4 -44 0 -61 -2 -37 -4z"/>
<path d="M9740 50 c-8 -6 -35 -10 -60 -11 l-45 -2 55 -7 c72 -10 1028 -10
1100 0 54 7 55 7 12 9 -24 0 -52 6 -63 11 -11 7 -19 7 -19 1 0 -5 6 -12 13
-14 6 -3 -215 -6 -493 -6 -315 0 -499 3 -490 9 8 5 12 11 9 14 -2 3 -11 1 -19
-4z"/>
<path d="M11038 53 c23 -2 59 -2 80 0 20 2 1 4 -43 4 -44 0 -61 -2 -37 -4z"/>
</g>
</svg>
