<?xml version="1.0" encoding="utf-8"?>
<!-- Generator: Adobe Illustrator 26.0.2, SVG Export Plug-In . SVG Version: 6.00 Build 0)  -->
<svg version="1.1" xmlns="http://www.w3.org/2000/svg" xmlns:xlink="http://www.w3.org/1999/xlink" x="0px" y="0px"
	 viewBox="0 0 265.1 84.1" style="enable-background:new 0 0 265.1 84.1;" xml:space="preserve">
<style type="text/css">
	.st0{fill:#ED6D05;}
	.st1{enable-background:new    ;}
	.st2{fill:#FFFFFF;stroke:#1D1D1B;stroke-width:0.25;}
</style>
<rect id="box-5" x="1.1" y="9.6" class="st0" width="100.3" height="54.9"/>
<rect id="box-4" x="164.8" y="18.3" class="st0" width="100.3" height="54.9"/>
<rect id="box-3" x="88.9" y="29.2" class="st0" width="100.3" height="54.9"/>
<rect id="box-2" x="72.5" y="1.7" class="st0" width="100.3" height="54.9"/>
<rect id="box-1" x="146.3" y="9.6" class="st0" width="100.3" height="54.9"/>
<g class="st1">
	<path class="st2" d="M52.6,17.1c0,0.7-0.1,1.9-0.1,2.8c0,1,0,2.2,0.1,2.9c-5.9,0-15-0.1-20.4-0.1v2.9c6.1,0,15.3,0,20-0.1
		c-0.1,1.2-0.1,3.7-0.1,5c-4.6-0.1-13.9-0.2-20-0.2v3c5.4,0,15,0,20.4-0.1c-0.1,0.8-0.1,2-0.1,3.2c0,1,0,2.2,0.1,3.1H19.8
		c0.1-3.1,0.2-6.5,0.2-11.2c0-4.8,0-8.2-0.2-11.2H52.6z"/>
	<path class="st2" d="M66.2,33.3c0,1.3,1.3,1.9,6.7,1.9c4.6,0,5.6-0.4,5.6-1.2c0-0.9-0.8-1.5-8.2-1.5c-10.6-0.2-13.4-2-13.4-6.1
		c0-4.4,3.7-6.3,15.7-6.3c11.3,0,16.1,1.1,16.1,6.3c0,0.2,0,0.5-0.1,0.8c-1.3-0.1-3.6-0.2-5.6-0.2c-1.5,0-3,0-3.8,0.1v-0.3
		c0-1.2-1.3-1.7-6.2-1.7c-4.7,0-5.5,0.4-5.5,1.2s0.7,1.4,8.5,1.5c10.9,0.2,13,1.7,13,6c0,4.5-3.7,6.5-16,6.5
		c-13.1,0-16.2-1.9-16.2-6.3c0-0.3,0-0.6,0-0.9c1.4,0.1,3.2,0.2,5.5,0.2c1.4,0,2.7,0,3.7-0.1V33.3z"/>
	<path class="st2" d="M101.4,33.3c0,1.3,1.3,1.9,6.7,1.9c4.6,0,5.6-0.4,5.6-1.2c0-0.9-0.8-1.5-8.2-1.5c-10.6-0.2-13.4-2-13.4-6.1
		c0-4.4,3.7-6.3,15.7-6.3c11.3,0,16.1,1.1,16.1,6.3c0,0.2,0,0.5-0.1,0.8c-1.3-0.1-3.6-0.2-5.6-0.2c-1.5,0-3,0-3.8,0.1v-0.3
		c0-1.2-1.3-1.7-6.2-1.7c-4.7,0-5.5,0.4-5.5,1.2s0.7,1.4,8.5,1.5c10.9,0.2,13,1.7,13,6c0,4.5-3.7,6.5-16,6.5
		c-13.1,0-16.2-1.9-16.2-6.3c0-0.3,0-0.6,0-0.9c1.4,0.1,3.2,0.2,5.5,0.2c1.4,0,2.7,0,3.7-0.1V33.3z"/>
	<path class="st2" d="M160.8,33c0.4,4.8-2.1,7.4-16.3,7.4c-11.9,0-17.4-3-17.4-10.5c0-7.2,5.9-9.8,17.8-9.8
		c12.5,0,16.1,2.6,16.1,8.2c0,1.5-0.1,2.4-0.2,3.4c-3.2-0.1-8.5-0.1-13.3-0.1c-3.6,0-7,0-9.1,0.1c0.5,2.6,2.4,3.5,6.5,3.5
		c3.8,0,5.3-0.8,5.4-2.2c1.1,0.1,3.2,0.1,5.4,0.1C157.6,33.1,159.3,33.1,160.8,33z M150.4,28.1c0-2.1-1.5-3.1-5.5-3.1
		c-4.5,0-6.2,0.8-6.6,3.4c3.8,0.1,8,0.1,12.1,0V28.1z"/>
	<path class="st2" d="M188.1,39.6c0.1-1.8,0.1-4.6,0.1-7.7c0-3.3-1.3-4.4-5.1-4.4c-3.4,0-6,1.4-6,5.1c0,3.9,0,5.6,0.1,7.1h-11.9
		c0.1-2.6,0.1-4.8,0.1-9.2c0-4-0.1-6.7-0.1-9.5H177c0,1.7,0,3-0.1,4.7l0.2,0c1.6-3.8,5.3-5.4,11.5-5.4c6.9,0,11.3,2.4,11.3,8.7
		c0,2.1-0.1,3.3-0.1,4.8c0,2.1,0,4,0.2,5.8H188.1z"/>
</g>
<g class="st1">
	<path class="st2" d="M238.4,28.9c1.6,0.8,3.3,1.7,5.3,2.3c3.6-2.1,5-5,5.1-7.3c1.5,0.1,3,0.1,4.6,0.1c1.6,0,3,0,4.7-0.1
		c0,3.5-3.9,6.8-8.4,8.8c2.3,0.4,4.9,0.5,7.6,0.3c-0.1,0.9-0.2,2.1-0.2,3.5c0,1.2,0.1,2.5,0.2,3.4c-5.8,0.1-11.3-0.9-16.4-2.9
		c-2.9,1.9-6.8,3.4-13.2,3.4c-7.3,0-10.8-1.9-10.8-6.6c0-4,2.2-5.6,8.8-6.4c-4.3-1.3-5.5-2.9-5.5-5.1c0-3.8,3.1-5.7,13.9-5.7
		c10.3,0,13.7,1.5,13.7,5.6c0,4-4,5.5-10.8,6.1L238.4,28.9z M236.1,34.5c-2.5-1.4-4.9-3.1-7.3-5c-1.2,0.4-1.9,1-1.9,2.4
		c0,1.8,1.4,2.8,5.2,2.8C233.6,34.8,234.9,34.7,236.1,34.5z M230.3,22.9c0,0.9,1,2,3.1,3.3c4.3-0.7,6.1-1.8,6.1-3.2
		c0-1.3-1.2-1.7-4.3-1.7C231.5,21.3,230.3,21.8,230.3,22.9z"/>
</g>
<g class="st1">
	<path class="st2" d="M50.6,47.1c-0.1,1-0.1,2.6-0.1,4s0,3,0.1,4.1c-3.5-0.1-7-0.1-10.3-0.1c0,6.9,0.1,13,0.2,14.5
		c-1.7-0.1-4.5-0.1-6.5-0.1c-2,0-4.7,0-6.5,0.1c0.1-1.6,0.2-7.7,0.2-14.5c-3.2,0-6.7,0.1-10.3,0.1c0-1.1,0-2.8,0-4.1s0-2.9,0-4H50.6
		z"/>
</g>
<g class="st1">
	<path class="st2" d="M63.2,55.5c1.5-3.5,4.7-4.9,8.8-4.9c2,0,3.4,0.3,4.8,0.6c-0.3,2.3-0.6,5.8-0.6,8.5c-1.3-0.5-2.8-0.8-5.1-0.8
		c-4.1,0-6.1,1.2-6.1,4.5c0,2.2,0,4.6,0.2,6.1H52.9C53,67,53,64.3,53,60.3c0-4,0-6.7-0.1-9.4h10.3c-0.1,1.5-0.2,2.9-0.2,4.6
		L63.2,55.5z"/>
	<path class="st2" d="M86.1,49.6c-5.8,0-6.5-0.8-6.5-2c0-1.2,0.8-1.9,6.5-1.9c5.7,0,6.5,0.7,6.5,1.9C92.5,48.7,91.9,49.6,86.1,49.6z
		 M80.2,69.6c0.1-3,0.1-6.1,0.1-9.7c0-3.5,0-5.9-0.1-9h11.6c-0.1,3-0.1,5.4-0.1,9.3c0,4,0,6.4,0.1,9.4H80.2z"/>
	<path class="st2" d="M119.7,69.6c0.1-1.8,0.1-4.6,0.1-7.7c0-3.3-1.3-4.4-5.1-4.4c-3.4,0-6,1.4-6,5.1c0,3.9,0,5.6,0.1,7.1H96.9
		c0.1-2.6,0.1-4.8,0.1-9.2c0-4-0.1-6.7-0.1-9.5h11.8c0,1.7,0,3-0.1,4.7l0.2,0c1.6-3.8,5.3-5.4,11.5-5.4c6.9,0,11.3,2.4,11.3,8.7
		c0,2.1-0.1,3.3-0.1,4.8c0,2.1,0,4,0.1,5.8H119.7z"/>
</g>
<g class="st1">
	<path class="st2" d="M170.7,50.9c-2.9,2.9-7.4,8.1-12.2,9.5c6,1.5,7.7,5,12.7,9.2h-12.6c-1.5,0-2.1-0.3-2.8-1
		c-2.1-1.9-4.9-4.3-7.3-5.8H148c0,2.4,0,4.4,0.1,6.7h-11.6c0.1-3.8,0.1-7.6,0.1-12.1c0-4.1,0.1-7.3-0.1-11.1h11.6
		c-0.2,3.9-0.1,6.8-0.1,11.9v0.9h0.5c1.2-1.1,2.5-2.3,3.6-3.2c2.6-2.2,4-3.8,5.2-5.1H170.7z"/>
</g>
<g class="st1">
	<path class="st2" d="M204.6,63c0.4,4.8-2.1,7.4-16.3,7.4c-11.9,0-17.4-3-17.4-10.5c0-7.2,5.9-9.8,17.8-9.8
		c12.5,0,16.1,2.6,16.1,8.2c0,1.5-0.1,2.4-0.2,3.4c-3.1-0.1-8.5-0.1-13.3-0.1c-3.6,0-7,0-9.1,0.1c0.5,2.6,2.4,3.5,6.5,3.5
		c3.8,0,5.3-0.8,5.4-2.2c1.1,0.1,3.2,0.1,5.4,0.1C201.4,63.1,203.2,63.1,204.6,63z M194.2,58.1c0-2.1-1.5-3.1-5.5-3.1
		c-4.5,0-6.2,0.8-6.6,3.4c3.8,0.1,8,0.1,12.1,0V58.1z"/>
	<path class="st2" d="M231.9,69.6c0.1-1.8,0.1-4.6,0.1-7.7c0-3.3-1.3-4.4-5.1-4.4c-3.4,0-6,1.4-6,5.1c0,3.9,0,5.6,0.1,7.1h-11.9
		c0.1-2.6,0.1-4.8,0.1-9.2c0-4-0.1-6.7-0.1-9.5h11.8c0,1.7,0,3-0.1,4.7l0.2,0c1.6-3.8,5.3-5.4,11.5-5.4c6.9,0,11.3,2.4,11.3,8.7
		c0,2.1-0.1,3.3-0.1,4.8c0,2.1,0,4,0.1,5.8H231.9z"/>
</g>
</svg>
