<?xml version="1.0" encoding="utf-8"?>
<!-- Generator: Adobe Illustrator 26.0.2, SVG Export Plug-In . SVG Version: 6.00 Build 0)  -->
<svg version="1.1" id="Ebene_1" xmlns="http://www.w3.org/2000/svg" xmlns:xlink="http://www.w3.org/1999/xlink" x="0px" y="0px"
	 viewBox="0 0 384.2 384.2" style="enable-background:new 0 0 384.2 384.2;" xml:space="preserve">
<style type="text/css">
	.st0{fill:#ED711F;}
	.st1{fill:#2B2B2A;}
	.st2{font-family:'Obviously';}
	.st3{font-size:31.38px;}
</style>
<polygon class="st0" points="182.1,145.1 123.2,12.5 168,150.4 71,42.6 156.4,159.9 30.8,87.3 148.2,172.5 6.3,142.3 144.3,187.1
	0,202.1 145.1,202.1 12.5,261 150.4,216.1 42.6,313.1 159.9,227.8 87.3,353.4 172.5,236 142.3,377.9 187.1,239.9 202.1,384.2
	202.1,239.1 261,371.7 216.1,233.7 313.1,341.6 227.8,224.3 353.4,296.9 236,211.6 377.9,241.9 239.9,197.1 384.2,182 239.1,182.1
	371.7,123.2 233.7,168 341.6,71 224.3,156.4 296.9,30.8 211.6,148.2 241.9,6.3 197.1,144.3 182,0 "/>
<g id="_x31_0-Jahre">
	<text transform="matrix(1 0 0 1 172.43 184.35)" class="st1 st2 st3">10</text>
	<g id="Jahre">
		<text transform="matrix(1 0 0 1 140.6 212.88)" class="st1 st2 st3">Ja</text>
		<text transform="matrix(1 0 0 1 179.04 212.88)" class="st1 st2 st3">h</text>
		<text transform="matrix(1 0 0 1 202.39 212.88)" class="st1 st2 st3">r</text>
		<text transform="matrix(1 0 0 1 217.46 212.88)" class="st1 st2 st3">e</text>
	</g>
</g>
</svg>
